<svg width="120" height="120" xmlns="http://www.w3.org/2000/svg">
 <!-- Created with SVG Editor - http://github.com/mzalive/SVG Editor/ -->

 <g>
  <title>background</title>
  <rect fill="none" id="canvas_background" height="122" width="122" y="-1" x="-1"/>
 </g>
 <g>
  <title>Layer 1</title>
  <metadata transform="matrix(0.08252642130770482,0,0,0.08252642130770482,0,0) " id="svg_229">image/svg+xml</metadata>

  <g stroke="null" id="svg_231">
   <g stroke="null" id="svg_117" transform="matrix(0.4769716329963296,0,0,-0.4769716329963296,-150.7241238615286,8.344091677645968) ">
    <g stroke="null" id="svg_118" transform="translate(0,-353.1968994140625) scale(0.10000000149011612) ">
     <path stroke="null" fill="#5e7cbd" fill-rule="nonzero" d="m2376.942098,2156.594337l12.87111,4.32l-0.7969,-1.79l-12.07421,-2.53m120.62091,246.32l-4.707,14.01l5.422,-12.4l-0.715,-1.61" id="svg_223"/>
     <path stroke="null" fill="#5e7cbd" fill-rule="nonzero" d="m3394.986008,1826.434337l-0.3,0.9l5.07,0l-4.77,-0.9m-209.614,624.07l-1.086,3.24l1.086,11.24l0,-14.48" id="svg_178"/>
     <path stroke="null" fill="#bcc5c8" fill-rule="nonzero" d="m3164.801008,2252.004337l0.461,4.78l1.399,-4.16l-1.86,-0.62" id="svg_175"/>
     <path stroke="null" fill="#ffffff" fill-rule="nonzero" d="m3988.266008,1477.943337l858.371,0l0,396.172l-858.371,0l0,-396.172z" id="svg_166"/>
     <path stroke="null" fill="#ffffff" fill-rule="nonzero" d="m5107.996008,1444.935337c0,-9.082 -7.43,-16.512 -16.5,-16.512l-1348.08,0c-9.08,0 -16.51,7.43 -16.51,16.512l0,66.031c0,9.066 7.43,16.5 16.51,16.5l1348.08,0c9.07,0 16.5,-7.434 16.5,-16.5l0,-66.031" id="svg_165"/>
     <path stroke="null" fill="#ffffff" fill-rule="nonzero" d="m5649.546008,1867.334337c0,-22 -18,-40 -40,-40l-2384.174,0c-22.004,0 -40,18 -40,40l0,1587.21c0,22 17.996,40 40,40l2384.174,0c22,0 40,-18 40,-40l0,-1587.21" id="svg_164"/>
     <path stroke="null" fill="#5e7cbd" fill-rule="nonzero" d="m3984.206008,1761.624337l4.0586,0l0,65.707l-4.0586,0l0,-65.707z" id="svg_163"/>
     <path stroke="null" fill="#dde7e9" fill-rule="nonzero" d="m3988.266008,1761.624337l858.371,0l0,65.707l-858.371,0l0,-65.707z" id="svg_162"/>
     <path stroke="null" fill="#5e7cbd" fill-rule="nonzero" d="m3984.206008,1527.466337l4.0586,0l0,16.9766l-4.0586,0l0,-16.9766z" id="svg_161"/>
     <path stroke="null" fill="#dde7e9" fill-rule="nonzero" d="m3988.266008,1527.466337l858.371,0l0,16.9766l-858.371,0l0,-16.9766z" id="svg_160"/>
     <path stroke="null" fill="#dde7e9" fill-rule="nonzero" d="m4846.636008,1527.466337l-862.43,0l862.43,0" id="svg_159"/>
     <path stroke="null" fill="#0f1828" fill-rule="nonzero" d="m3231.700008,1973.144337l2371.52,0l0,1471.88l-2371.52,0l0,-1471.88z" id="svg_158"/>
     <path stroke="null" fill="#c7d8e4" fill-rule="nonzero" d="m5603.216008,3418.364337l1.0625,0l0,26.6602l-1.0625,0l0,-26.6602z" id="svg_157"/>
     <path stroke="null" fill="#5572b1" fill-rule="nonzero" d="m5092.006008,1428.423337l-259.28,0l258.77,0c9.07,0 16.5,7.43 16.5,16.512l0,0l0,-0.52c0,-8.84 -7.16,-15.992 -15.99,-15.992m-637.45,0l-712.33,0c-8.46,0 -15.32,6.852 -15.32,15.313l0,1.199c0,-9.082 7.43,-16.512 16.51,-16.512l711.14,0" id="svg_156"/>
     <path stroke="null" fill="#dde7e9" fill-rule="nonzero" d="m5091.496008,1428.423337l-1348.08,0c-9.08,0 -16.51,7.43 -16.51,16.512l1381.09,0c0,-9.082 -7.43,-16.512 -16.5,-16.512" id="svg_155"/>
     <path stroke="null" fill="#0f1828" fill-rule="nonzero" d="m4444.276008,1900.934337c0,-14.81 -12,-26.82 -26.82,-26.82c-14.81,0 -26.83,12.01 -26.83,26.82c0,14.81 12.02,26.82 26.83,26.82c14.82,0 26.82,-12.01 26.82,-26.82" id="svg_154"/>
     <path stroke="null" fill="#ffffff" fill-rule="nonzero" d="m4661.366008,2236.574337c0,55.14 44.7,99.88 99.85,99.88c55.17,0 99.87,-44.74 99.87,-99.88c0,-55.19 -44.7,-99.88 -99.87,-99.88c-55.15,0 -99.85,44.69 -99.85,99.88zm249.03,-43.5l35.2,6.91l-0.05,71.91l-35,7.64c-3.19,11.17 -7.59,21.74 -13.09,31.76l19.98,29.76l-50.83,50.81l-30.23,-19.35c-9.94,5.52 -20.48,9.95 -31.68,13.21l-6.9,35.2l-71.86,0l-7.66,-35.05c-11.18,-3.22 -21.74,-7.59 -31.73,-13.09l-29.77,19.99l-50.87,-50.89l19.31,-30.18c-5.48,-9.94 -9.87,-20.51 -13.17,-31.65l-35.19,-6.94l0.05,-71.88l35.05,-7.69c3.21,-11.17 7.58,-21.69 13.03,-31.66l-19.96,-29.81l50.86,-50.84l30.21,19.35c9.93,-5.52 20.46,-9.94 31.64,-13.13l6.94,-35.25l71.87,0l7.66,35.04c11.15,3.25 21.73,7.6 31.71,13.12l29.82,-20.04l50.81,50.89l-19.36,30.18c5.56,10 9.95,20.51 13.21,31.68" id="svg_153"/>
     <path stroke="null" fill="#ffffff" fill-rule="nonzero" d="m5014.096008,2476.944337c0,80.38 65.18,145.56 145.54,145.56c80.38,0 145.59,-65.18 145.59,-145.56c0,-80.41 -65.21,-145.57 -145.59,-145.57c-80.36,0 -145.54,65.16 -145.54,145.57zm362.96,-63.42l51.31,10.1l-0.05,104.8l-51.03,11.15c-4.67,16.31 -11.06,31.68 -19.06,46.22l29.11,43.45l-74.06,74.09l-44.11,-28.22c-14.44,8.06 -29.86,14.49 -46.14,19.23l-10.1,51.28l-104.74,0l-11.17,-51.08c-16.29,-4.67 -31.69,-11.08 -46.24,-19.08l-43.41,29.17l-74.08,-74.17l28.15,-44.01c-8.03,-14.54 -14.46,-29.86 -19.2,-46.15l-51.34,-10.04l0.05,-104.85l51.07,-11.13c4.71,-16.32 11.1,-31.67 19.05,-46.24l-29.07,-43.42l74.09,-74.08l44.01,28.18c14.46,-8.01 29.89,-14.44 46.15,-19.16l10.12,-51.33l104.75,0l11.17,51.08c16.29,4.72 31.71,11.06 46.22,19.09l43.5,-29.2l74.02,74.17l-28.19,44.01c8.05,14.53 14.49,29.88 19.22,46.14" id="svg_152"/>
     <path stroke="null" fill="#334154" fill-rule="nonzero" d="m3987.606008,3200.194337l-252.32,0c-8.02,0 -14.52,6.5 -14.52,14.52l0,42.1c0,8.02 6.5,14.53 14.52,14.53l252.32,0c8.02,0 14.52,-6.51 14.52,-14.53l0,-42.1c0,-8.02 -6.5,-14.52 -14.52,-14.52" id="svg_151"/>
     <path stroke="null" fill="#334154" fill-rule="nonzero" d="m4596.326008,3200.194337l-550.91,0c-8.01,0 -14.52,6.5 -14.52,14.52l0,42.1c0,8.02 6.51,14.53 14.52,14.53l550.91,0c8.02,0 14.52,-6.51 14.52,-14.53l0,-42.1c0,-8.02 -6.5,-14.52 -14.52,-14.52" id="svg_150"/>
     <path stroke="null" fill="#334154" fill-rule="nonzero" d="m4406.766008,3077.654337l-671.48,0c-8.02,0 -14.52,6.5 -14.52,14.53l0,42.1c0,8.02 6.5,14.52 14.52,14.52l671.48,0c8.02,0 14.52,-6.5 14.52,-14.52l0,-42.1c0,-8.03 -6.5,-14.53 -14.52,-14.53" id="svg_149"/>
     <path stroke="null" fill="#334154" fill-rule="nonzero" d="m4707.206008,3077.654337l-242.63,0c-8.01,0 -14.52,6.5 -14.52,14.53l0,42.1c0,8.02 6.51,14.52 14.52,14.52l242.63,0c8.02,0 14.52,-6.5 14.52,-14.52l0,-42.1c0,-8.03 -6.5,-14.53 -14.52,-14.53" id="svg_148"/>
     <path stroke="null" fill="#334154" fill-rule="nonzero" d="m4175.926008,2955.124337l-440.64,0c-8.02,0 -14.52,6.5 -14.52,14.52l0,42.1c0,8.02 6.5,14.52 14.52,14.52l440.64,0c8.01,0 14.52,-6.5 14.52,-14.52l0,-42.1c0,-8.02 -6.51,-14.52 -14.52,-14.52" id="svg_147"/>
     <path stroke="null" fill="#334154" fill-rule="nonzero" d="m4582.226008,2955.124337l-348.49,0c-8.02,0 -14.52,6.5 -14.52,14.52l0,42.1c0,8.02 6.5,14.52 14.52,14.52l348.49,0c8.02,0 14.52,-6.5 14.52,-14.52l0,-42.1c0,-8.02 -6.5,-14.52 -14.52,-14.52" id="svg_146"/>
     <path stroke="null" fill="#334154" fill-rule="nonzero" d="m4297.746008,2832.594337l-562.46,0c-8.02,0 -14.52,6.5 -14.52,14.52l0,42.1c0,8.02 6.5,14.52 14.52,14.52l562.46,0c8.02,0 14.52,-6.5 14.52,-14.52l0,-42.1c0,-8.02 -6.5,-14.52 -14.52,-14.52" id="svg_145"/>
     <path stroke="null" fill="#334154" fill-rule="nonzero" d="m4635.696008,2832.594337l-280.14,0c-8.02,0 -14.52,6.5 -14.52,14.52l0,42.1c0,8.02 6.5,14.52 14.52,14.52l280.14,0c8.01,0 14.52,-6.5 14.52,-14.52l0,-42.1c0,-8.02 -6.51,-14.52 -14.52,-14.52" id="svg_144"/>
     <path stroke="null" fill="#334154" fill-rule="nonzero" d="m4161.536008,2710.054337l-426.25,0c-8.02,0 -14.52,6.5 -14.52,14.52l0,42.1c0,8.03 6.5,14.52 14.52,14.52l426.25,0c8.02,0 14.52,-6.49 14.52,-14.52l0,-42.1c0,-8.02 -6.5,-14.52 -14.52,-14.52" id="svg_143"/>
     <path stroke="null" fill="#334154" fill-rule="nonzero" d="m4582.226008,2710.054337l-362.88,0c-8.02,0 -14.52,6.5 -14.52,14.52l0,42.1c0,8.03 6.5,14.52 14.52,14.52l362.88,0c8.02,0 14.52,-6.49 14.52,-14.52l0,-42.1c0,-8.02 -6.5,-14.52 -14.52,-14.52" id="svg_142"/>
     <path stroke="null" fill="#334154" fill-rule="nonzero" d="m4441.566008,2587.514337l-706.28,0c-8.02,0 -14.52,6.51 -14.52,14.52l0,42.11c0,8.02 6.5,14.52 14.52,14.52l706.28,0c8.01,0 14.52,-6.5 14.52,-14.52l0,-42.11c0,-8.01 -6.51,-14.52 -14.52,-14.52" id="svg_141"/>
     <path stroke="null" fill="#334154" fill-rule="nonzero" d="m4635.696008,2587.514337l-136.32,0c-8.02,0 -14.52,6.51 -14.52,14.52l0,42.11c0,8.02 6.5,14.52 14.52,14.52l136.32,0c8.01,0 14.52,-6.5 14.52,-14.52l0,-42.11c0,-8.01 -6.51,-14.52 -14.52,-14.52" id="svg_140"/>
     <path stroke="null" fill="#334154" fill-rule="nonzero" d="m4121.346008,2464.984337l-386.06,0c-8.02,0 -14.52,6.5 -14.52,14.52l0,42.1c0,8.03 6.5,14.52 14.52,14.52l386.06,0c8.02,0 14.52,-6.49 14.52,-14.52l0,-42.1c0,-8.02 -6.5,-14.52 -14.52,-14.52" id="svg_139"/>
     <path stroke="null" fill="#ffffff" fill-rule="nonzero" d="m3346.673008,2464.984337l263.993,0c20.09,0 36.37,16.29 36.37,36.37l0,733.61c0,20.09 -16.28,36.38 -36.37,36.38l-263.993,0c-20.086,0 -36.372,-16.29 -36.372,-36.38l0,-733.61c0,-20.08 16.286,-36.37 36.372,-36.37" id="svg_138"/>
     <path stroke="null" fill="#0f1828" fill-rule="nonzero" d="m3592.146008,2868.164337c0,-62.67 -50.8,-113.48 -113.47,-113.48c-62.68,0 -113.48,50.81 -113.48,113.48c0,62.67 50.8,113.47 113.48,113.47c62.67,0 113.47,-50.8 113.47,-113.47" id="svg_137"/>
     <path stroke="null" fill="#e6e6e4" fill-rule="nonzero" d="m3467.536008,2833.344337l0,73.19c0,2.99 3.62,4.49 5.73,2.37l36.59,-36.59c1.32,-1.31 1.32,-3.44 0,-4.75l-36.59,-36.59c-2.11,-2.11 -5.73,-0.62 -5.73,2.37" id="svg_136"/>
     <path stroke="null" fill="#f46845" fill-rule="nonzero" d="m3339.180008,2049.204337l972.976,0c15.95,0 28.88,12.93 28.88,28.87l0,237.97c0,15.96 -12.93,28.88 -28.88,28.88l-972.976,0c-15.949,0 -28.879,-12.92 -28.879,-28.88l0,-237.97c0,-15.94 12.93,-28.87 28.879,-28.87" id="svg_135"/>
     <path stroke="null" fill="#0f1828" fill-rule="nonzero" d="m3439.816008,2271.334337c-22.3,0 -40.38,-18.09 -40.38,-40.39c0,-22.31 18.08,-40.4 40.38,-40.4c22.31,0 40.39,18.09 40.39,40.4c0,22.3 -18.08,40.39 -40.39,40.39zm72.34,-166.92l-144.67,0c0,39.94 32.38,72.34 72.33,72.34c39.95,0 72.34,-32.4 72.34,-72.34" id="svg_134"/>
     <path stroke="null" fill="#0f1828" fill-rule="nonzero" d="m3880.206008,2230.414337l-239.64,0c-8.01,0 -14.52,6.5 -14.52,14.52l0,7.75c0,8.03 6.51,14.52 14.52,14.52l239.64,0c8.02,0 14.52,-6.49 14.52,-14.52l0,-7.75c0,-8.02 -6.5,-14.52 -14.52,-14.52" id="svg_133"/>
     <path stroke="null" fill="#0f1828" fill-rule="nonzero" d="m4028.516008,2184.024337l-391.75,0c-5.92,0 -10.72,4.81 -10.72,10.72l0,1.13c0,5.91 4.8,10.71 10.72,10.71l391.75,0c5.93,0 10.73,-4.8 10.73,-10.71l0,-1.13c0,-5.91 -4.8,-10.72 -10.73,-10.72" id="svg_132"/>
     <path stroke="null" fill="#0f1828" fill-rule="nonzero" d="m3860.046008,2146.974337l-223.28,0c-5.92,0 -10.72,4.81 -10.72,10.72l0,1.12c0,5.92 4.8,10.72 10.72,10.72l223.28,0c5.92,0 10.72,-4.8 10.72,-10.72l0,-1.12c0,-5.91 -4.8,-10.72 -10.72,-10.72" id="svg_131"/>
     <path stroke="null" fill="#0f1828" fill-rule="nonzero" d="m4119.266008,2146.974337l-223.27,0c-5.92,0 -10.72,4.81 -10.72,10.72l0,1.12c0,5.92 4.8,10.72 10.72,10.72l223.27,0c5.92,0 10.72,-4.8 10.72,-10.72l0,-1.12c0,-5.91 -4.8,-10.72 -10.72,-10.72" id="svg_130"/>
     <path stroke="null" fill="#0f1828" fill-rule="nonzero" d="m4028.516008,2109.924337l-391.75,0c-5.92,0 -10.72,4.79 -10.72,10.71l0,1.13c0,5.91 4.8,10.72 10.72,10.72l391.75,0c5.93,0 10.73,-4.81 10.73,-10.72l0,-1.13c0,-5.92 -4.8,-10.71 -10.73,-10.71" id="svg_129"/>
     <path stroke="null" fill="#0f1828" fill-rule="nonzero" d="m4203.946008,2230.414337l-275.05,0c-8.02,0 -14.52,6.5 -14.52,14.52l0,7.75c0,8.03 6.5,14.52 14.52,14.52l275.05,0c8.02,0 14.52,-6.49 14.52,-14.52l0,-7.75c0,-8.02 -6.5,-14.52 -14.52,-14.52" id="svg_128"/>
     <path stroke="null" fill="#f2a344" fill-rule="nonzero" d="m4949.376008,2902.794337l457.91,0c32.29,0 58.47,26.17 58.47,58.47l0,253.84c0,32.29 -26.18,58.47 -58.47,58.47l-457.91,0c-32.3,0 -58.48,-26.18 -58.48,-58.47l0,-253.84c0,-32.3 26.18,-58.47 58.48,-58.47" id="svg_127"/>
     <path stroke="null" fill="#334154" fill-rule="nonzero" d="m3231.700008,3344.994337l2371.52,0l0,73.3711l-2371.52,0l0,-73.3711z" id="svg_126"/>
     <path stroke="null" fill="#313e51" fill-rule="nonzero" d="m3231.700008,3418.364337l2371.52,0l0,26.6602l-2371.52,0l0,-26.6602z" id="svg_125"/>
     <path stroke="null" fill="#ffffff" fill-rule="nonzero" d="m5552.596008,3395.014337c0,-9.52 -7.71,-17.24 -17.24,-17.24c-9.52,0 -17.23,7.72 -17.23,17.24c0,9.52 7.71,17.24 17.23,17.24c9.53,0 17.24,-7.72 17.24,-17.24" id="svg_124"/>
     <path stroke="null" fill="#ffffff" fill-rule="nonzero" d="m5500.236008,3395.014337c0,-9.52 -7.72,-17.24 -17.24,-17.24c-9.52,0 -17.24,7.72 -17.24,17.24c0,9.52 7.72,17.24 17.24,17.24c9.52,0 17.24,-7.72 17.24,-17.24" id="svg_123"/>
     <path stroke="null" fill="#ffffff" fill-rule="nonzero" d="m5447.866008,3395.014337c0,-9.52 -7.71,-17.24 -17.23,-17.24c-9.52,0 -17.25,7.72 -17.25,17.24c0,9.52 7.73,17.24 17.25,17.24c9.52,0 17.23,-7.72 17.23,-17.24" id="svg_122"/>
     <path stroke="null" fill="#040606" fill-rule="nonzero" d="m5028.636008,3073.454337l0,21.85l85.58,35.14l0,-29.13l-43.15,-16.94l43.15,-17.3l0,-28.58l-85.58,34.96" id="svg_121"/>
     <path stroke="null" fill="#040606" fill-rule="nonzero" d="m5197.626008,3151.574337l28.41,0l-71.56,-153.33l-28.41,0l71.56,153.33" id="svg_120"/>
     <path stroke="null" fill="#040606" fill-rule="nonzero" d="m5242.426008,3038.494337l0,28.95l43.16,16.93l-43.16,17.3l0,28.77l85.58,-35.14l0,-21.85l-85.58,-34.96" id="svg_119"/>
    </g>
   </g>
  </g>
 </g>
</svg>