<svg width="120" height="120" xmlns="http://www.w3.org/2000/svg">
 <!-- Created with SVG Editor - http://github.com/mzalive/SVG Editor/ -->

 <g>
  <title>background</title>
  <rect fill="none" id="canvas_background" height="122" width="122" y="-1" x="-1"/>
 </g>
 <g>
  <title>Layer 1</title>
  <metadata transform="matrix(0.08252642130770482,0,0,0.08252642130770482,0,0) " id="svg_229">image/svg+xml</metadata>

  <g stroke="null" id="svg_231">
   <g stroke="null" id="svg_117" transform="matrix(0.28599186269564325,0,0,-0.28599186269564325,-95.94562032133474,13.972484722276022) ">
    <g stroke="null" id="svg_118" transform="translate(0,-353.1968994140625) scale(0.10000000149011612) ">
     <path fill="#6a86ca" fill-rule="nonzero" d="m7251.06875,2001.158256c0,-1012.63 -820.9,-1833.528 -1833.53,-1833.528c-1012.64,0 -1833.543,820.898 -1833.543,1833.528c0,1012.64 820.903,1833.54 1833.543,1833.54c1012.63,0 1833.53,-820.9 1833.53,-1833.54" id="svg_228"/>
     <path fill="#ffffff" fill-rule="nonzero" d="m3679.33575,633.247256l805.703,270.641l-371.949,1107.35l-622.961,-209.24l-115.9061,-260.32l305.1131,-908.431" id="svg_227"/>
     <path fill="#6a86ca" fill-rule="nonzero" d="m3679.33575,633.247256l3.188,-9.48l805.705,270.64c5.23,1.762 8.05,7.43 6.29,12.66l-371.945,1107.351c-1.761,5.24 -7.429,8.06 -12.664,6.3l-622.964,-209.24c-2.641,-0.88 -4.821,-2.87 -5.954,-5.41l-115.90581,-260.32c-1.02344,-2.3 -1.14453,-4.87 -0.34375,-7.25l305.11756,-908.431c0.836,-2.5 2.668,-4.597 5.027,-5.769c2.359,-1.18 5.137,-1.371 7.637,-0.531l-3.188,9.48l9.481,3.191l-303.8753,904.73l112.5353,252.75l609.32,204.66l365.582,-1088.401l-796.226,-267.449l3.183,-9.481l9.481,3.191l-9.481,-3.191" id="svg_226"/>
     <path fill="#6a86ca" fill-rule="nonzero" d="m3490.12875,1801.998256l66.824,-198.95l-182.73791,-61.38l115.91391,260.33" id="svg_225"/>
     <path fill="#dde7e9" fill-rule="nonzero" d="m3386.28905,1544.198256l0.7969,1.79l169.8668,57.06l-62.117,184.94l0.715,1.61l89.109,-203.82l-198.3707,-41.58" id="svg_224"/>
     <path fill="#5e7cbd" fill-rule="nonzero" d="m3374.21484,1541.668256l12.87111,4.32l-0.7969,-1.79l-12.07421,-2.53m120.62091,246.32l-4.707,14.01l5.422,-12.4l-0.715,-1.61" id="svg_223"/>
     <path fill="#5e7cbd" fill-rule="nonzero" d="m3556.95275,1603.048256l-66.824,198.95l4.707,-14.01l62.117,-184.94" id="svg_222"/>
     <path fill="#dadbd8" fill-rule="nonzero" d="m3933.60175,1601.058256l-10.988,32.71l218.035,73.23l10.984,-32.7l-218.031,-73.24" id="svg_221"/>
     <path fill="#dadbd8" fill-rule="nonzero" d="m3800.66375,1515.688256l-5.496,16.34l363.266,122.02l4.101,-12.19l-0.461,-4.78l-361.41,-121.39" id="svg_220"/>
     <path fill="#dadbd8" fill-rule="nonzero" d="m4010.93775,886.380256l-5.496,16.348l363.267,122.02l5.49,-16.35l-363.261,-122.018" id="svg_219"/>
     <path fill="#dadbd8" fill-rule="nonzero" d="m4177.13675,908.829256l-5.492,16.359l207.134,69.57l5.5,-16.339l-207.142,-69.59" id="svg_218"/>
     <path fill="#dadbd8" fill-rule="nonzero" d="m3563.54675,1279.268256l-9.785,29.12l595.898,200.15l-3.234,-33.48l-582.879,-195.79" id="svg_217"/>
     <path fill="#dadbd8" fill-rule="nonzero" d="m3583.42975,1220.068256l-9.773,29.11l569.425,191.26l-3.234,-33.47l-556.418,-186.9" id="svg_216"/>
     <path fill="#dadbd8" fill-rule="nonzero" d="m3603.31675,1160.858256l-9.782,29.13l542.969,182.35l-3.23,-33.47l-529.957,-178.01" id="svg_215"/>
     <path fill="#dadbd8" fill-rule="nonzero" d="m3623.20675,1101.648256l-9.781,29.12l516.504,173.48l-3.234,-33.47l-503.489,-169.13" id="svg_214"/>
     <path fill="#dadbd8" fill-rule="nonzero" d="m3643.08575,1042.448256l-9.773,29.11l490.23,164.67c-0.219,-10.87 2.406,-21.09 7.149,-30l-487.606,-163.78" id="svg_213"/>
     <path fill="#dadbd8" fill-rule="nonzero" d="m3662.97675,983.247256l-9.781,29.101l502.281,168.72c8.824,-4.89 18.926,-7.66 29.582,-7.66c3.816,0 7.707,0.36 11.633,1.1l81.781,15.47l-615.496,-206.731" id="svg_212"/>
     <path fill="#dadbd8" fill-rule="nonzero" d="m3682.85975,924.040256l-9.778,29.109l646.715,217.219l9.785,-29.11l-646.722,-217.218" id="svg_211"/>
     <path fill="#dadbd8" fill-rule="nonzero" d="m3702.74575,864.829256l-9.773,29.109l646.711,217.23l9.777,-29.12l-646.715,-217.219" id="svg_210"/>
     <path fill="#dadbd8" fill-rule="nonzero" d="m3810.20675,1487.278256l-5.492,16.33l356.02,119.59l-1.817,-18.81l-348.711,-117.11" id="svg_209"/>
     <path fill="#dadbd8" fill-rule="nonzero" d="m3819.75775,1458.838256l-5.492,16.36l343.308,115.31l-1.816,-18.82l-336,-112.85" id="svg_208"/>
     <path fill="#ffffff" fill-rule="nonzero" d="m6927.47875,1185.178256c-4.31,0.04 -8.11,2.85 -9.42,6.95l-37.22,116.5c-46.35,3.78 -82.91,42.71 -82.91,90.01l0,339.35c0,49.79 40.52,90.31 90.31,90.31l552.84,0c49.8,0 90.3,-40.52 90.3,-90.31l0,-339.35c0,-49.79 -40.5,-90.31 -90.3,-90.31l-464.05,0l-39.99,-116.41c-1.39,-4.04 -5.19,-6.74 -9.45,-6.74l-0.11,0" id="svg_207"/>
     <path fill="#6a86ca" fill-rule="nonzero" d="m7441.07875,1838.298256l-552.84,0c-55.31,0 -100.31,-45 -100.31,-100.31l0,-339.35c0,-50.22 37.11,-91.95 85.35,-99.2l35.25,-110.35c2.62,-8.21 10.22,-13.82 18.83,-13.9l0.23,-0.01c8.52,0 16.13,5.42 18.9,13.5l37.68,109.65l456.91,0c55.31,0 100.3,45 100.3,100.31l0,339.35c0,55.31 -44.99,100.31 -100.3,100.31zm0,-20c44.36,0 80.3,-35.96 80.3,-80.31l0,-339.35c0,-44.35 -35.94,-80.31 -80.3,-80.31l-471.19,0l-42.31,-123.15l-39.34,123.15c-44.36,0 -80.31,35.96 -80.31,80.31l0,339.35c0,44.35 35.95,80.31 80.31,80.31l552.84,0" id="svg_206"/>
     <path fill="#6a86ca" fill-rule="nonzero" d="m7011.62875,1576.398256c0,-23.66 19.18,-42.84 42.83,-42.84c23.65,0 42.83,19.18 42.83,42.84c0,23.65 -19.18,42.83 -42.83,42.83c-23.65,0 -42.83,-19.18 -42.83,-42.83" id="svg_205"/>
     <path fill="#6a86ca" fill-rule="nonzero" d="m7127.91875,1576.398256c0,-23.66 19.17,-42.84 42.83,-42.84c23.65,0 42.83,19.18 42.83,42.84c0,23.65 -19.18,42.83 -42.83,42.83c-23.66,0 -42.83,-19.18 -42.83,-42.83" id="svg_204"/>
     <path fill="#6a86ca" fill-rule="nonzero" d="m7244.20875,1576.398256c0,-23.66 19.17,-42.84 42.82,-42.84c23.66,0 42.83,19.18 42.83,42.84c0,23.65 -19.17,42.83 -42.83,42.83c-23.65,0 -42.82,-19.18 -42.82,-42.83" id="svg_203"/>
     <path fill="#ffffff" fill-rule="nonzero" d="m7083.62875,3250.748256c0,89.95 -72.93,162.88 -162.88,162.88c-35.75,0 -68.7,-11.65 -95.57,-31.17c0.03,1.59 0.13,3.18 0.13,4.78c0,165.35 -134.03,299.38 -299.37,299.38c-150.83,0 -275.56,-111.56 -296.3,-256.65c-35.35,33.07 -82.72,53.47 -134.94,53.47c-109.24,0 -197.79,-88.56 -197.79,-197.79c0,-106.62 84.42,-193.29 190.03,-197.39l0,-0.4l839.62,0l0,0.3c87.25,3.09 157.07,74.59 157.07,162.59" id="svg_202"/>
     <path fill="#6a86ca" fill-rule="nonzero" d="m7083.62875,3250.748256l10,0c-0.01,95.48 -77.4,172.87 -172.88,172.88c-37.94,0 -72.98,-12.39 -101.44,-33.08l5.87,-8.09l10,-0.19c0.02,1.31 0.13,2.96 0.13,4.97c-0.01,170.87 -138.51,309.37 -309.37,309.38l0,0c-155.88,-0.02 -284.76,-115.26 -306.2,-265.23l9.9,-1.42l6.83,7.3c-37.09,34.71 -86.92,56.17 -141.77,56.17c-114.77,-0.01 -207.78,-93.03 -207.79,-207.79c0.01,-112.02 88.69,-203.08 199.64,-207.39l0.39,10l-10,0l0,-0.4c0,-2.63 1.07,-5.21 2.93,-7.07c1.86,-1.86 4.44,-2.93 7.07,-2.93l839.62,0c2.63,0 5.21,1.07 7.07,2.93c1.86,1.86 2.93,4.44 2.93,7.07l0,0.3l-10,0l0.35,-10c92.61,3.28 166.71,79.18 166.72,172.59l-10,0l-10,0c0.01,-82.58 -65.53,-149.7 -147.42,-152.6c-5.37,-0.19 -9.65,-4.62 -9.65,-9.99l0,-0.3l10,0l0,10l-839.62,0l0,-10l10,0l0,0.4c0,5.37 -4.24,9.78 -9.61,9.99c-100.27,3.89 -180.43,86.19 -180.42,187.4c0.01,51.89 21,98.77 55,132.79c34.01,33.99 80.9,54.99 132.79,55c49.59,-0.01 94.49,-19.34 128.11,-50.77c2.72,-2.55 6.63,-3.37 10.15,-2.13c3.52,1.24 6.05,4.32 6.58,8.01c20.04,140.21 140.61,248.09 286.4,248.07c79.94,-0.01 152.22,-32.37 204.62,-84.76c52.38,-52.4 84.75,-124.68 84.75,-204.62c0,-1.2 -0.09,-2.72 -0.12,-4.6c-0.07,-3.8 2.01,-7.3 5.37,-9.05c3.37,-1.75 7.43,-1.45 10.5,0.78c25.27,18.34 56.13,29.25 89.69,29.26c42.25,-0.01 80.4,-17.1 108.1,-44.78c27.68,-27.7 44.78,-65.85 44.78,-108.1l10,0" id="svg_201"/>
     <path fill="#ffffff" fill-rule="nonzero" d="m7471.23875,2727.928256c0,50.53 -40.97,91.5 -91.51,91.5c-20.07,0 -38.58,-6.54 -53.67,-17.51l0.06,2.68c0,92.89 -75.29,168.18 -168.17,168.18c-84.73,0 -154.79,-62.66 -166.44,-144.17c-19.86,18.58 -46.47,30.03 -75.81,30.03c-61.36,0 -111.1,-49.74 -111.1,-111.1c0,-59.89 47.42,-108.59 106.75,-110.89l0,-0.22l471.66,0l0,0.17c49,1.73 88.23,41.9 88.23,91.33" id="svg_200"/>
     <path fill="#6a86ca" fill-rule="nonzero" d="m7471.23875,2727.928256l10,0c-0.01,56.06 -45.44,101.49 -101.51,101.5c-22.26,0 -42.86,-7.28 -59.55,-19.42l5.88,-8.09l10,-0.22l0.06,2.69l0,0.21c-0.01,98.41 -79.76,178.18 -178.17,178.18c-89.77,-0.02 -163.99,-66.36 -176.34,-152.76l9.9,-1.41l6.83,7.3c-21.6,20.22 -50.67,32.74 -82.64,32.73c-66.88,0 -121.1,-54.21 -121.1,-121.1c0.01,-65.3 51.69,-118.37 116.36,-120.88l0.39,9.99l-10,0l0,-0.22c0,-2.63 1.06,-5.21 2.92,-7.07c1.87,-1.86 4.44,-2.93 7.08,-2.93l471.66,0c2.63,0 5.21,1.07 7.07,2.93c1.86,1.86 2.93,4.44 2.93,7.07l0,0.17l-10,0l0.35,-10c54.36,1.93 97.87,46.48 97.88,101.33l-10,0l-10,0c0.01,-44.01 -34.94,-79.8 -78.59,-81.34c-5.37,-0.19 -9.64,-4.62 -9.64,-9.99l0,-0.17l10,0l0,10l-471.66,0l0,-10l10,0l0,0.22c0,5.37 -4.25,9.78 -9.62,9.99c-53.98,2.1 -97.14,46.41 -97.13,100.9c0,27.95 11.3,53.16 29.61,71.49c18.33,18.31 43.54,29.61 71.49,29.61c26.71,0 50.85,-10.39 68.98,-27.34c2.73,-2.54 6.63,-3.36 10.15,-2.12c3.52,1.23 6.05,4.32 6.58,8.01c10.95,76.63 76.86,135.61 156.54,135.59c43.71,0 83.19,-17.69 111.84,-46.33c28.64,-28.65 46.33,-68.13 46.33,-111.85l10,0l-10,0.22l-0.06,-2.68c-0.08,-3.8 2,-7.32 5.37,-9.08c3.36,-1.76 7.44,-1.46 10.51,0.77c13.49,9.79 29.9,15.59 47.79,15.6c22.54,-0.01 42.86,-9.11 57.64,-23.87c14.76,-14.78 23.86,-35.09 23.87,-57.63l10,0" id="svg_199"/>
     <path fill="#ffffff" fill-rule="nonzero" d="m3799.97675,3079.838256c-13.52,0 -24.52,11 -24.52,24.53l0,88.24c0,13.52 11,24.52 24.52,24.52l1125.832,0c13.52,0 24.53,-11 24.53,-24.52l0,-88.24c0,-13.53 -11.01,-24.53 -24.53,-24.53l-1125.832,0" id="svg_198"/>
     <path fill="#6a86ca" fill-rule="nonzero" d="m4925.80875,3227.128256l-1125.832,0c-19.035,0 -34.52,-15.48 -34.52,-34.52l0,-88.24c0,-19.04 15.485,-34.53 34.52,-34.53l1125.832,0c19.04,0 34.53,15.49 34.53,34.53l0,88.24c0,19.04 -15.49,34.52 -34.53,34.52zm0,-20c8.03,0 14.53,-6.49 14.53,-14.52l0,-88.24c0,-8.02 -6.5,-14.53 -14.53,-14.53l-1125.832,0c-8.024,0 -14.52,6.51 -14.52,14.53l0,88.24c0,8.03 6.496,14.52 14.52,14.52l1125.832,0" id="svg_197"/>
     <path fill="#ffffff" fill-rule="nonzero" d="m3799.97675,3255.118256c-13.52,0 -24.52,11 -24.52,24.52l0,88.25c0,13.52 11,24.52 24.52,24.52l1125.832,0c13.52,0 24.53,-11 24.53,-24.52l0,-88.25c0,-13.52 -11.01,-24.52 -24.53,-24.52l-1125.832,0" id="svg_196"/>
     <path fill="#6a86ca" fill-rule="nonzero" d="m4925.80875,3402.408256l-1125.832,0c-19.035,0 -34.52,-15.49 -34.52,-34.52l0,-88.25c0,-19.04 15.485,-34.52 34.52,-34.52l1125.832,0c19.04,0 34.53,15.48 34.53,34.52l0,88.25c0,19.03 -15.49,34.52 -34.53,34.52zm0,-20c8.03,0 14.53,-6.5 14.53,-14.52l0,-88.25c0,-8.02 -6.5,-14.52 -14.53,-14.52l-1125.832,0c-8.024,0 -14.52,6.5 -14.52,14.52l0,88.25c0,8.02 6.496,14.52 14.52,14.52l1125.832,0" id="svg_195"/>
     <path fill="#ffffff" fill-rule="nonzero" d="m3799.97675,3430.388256c-13.52,0 -24.52,11.01 -24.52,24.53l0,88.24c0,13.52 11,24.53 24.52,24.53l1125.832,0c13.52,0 24.53,-11.01 24.53,-24.53l0,-88.24c0,-13.52 -11.01,-24.53 -24.53,-24.53l-1125.832,0" id="svg_194"/>
     <path fill="#6a86ca" fill-rule="nonzero" d="m4925.80875,3577.688256l-1125.832,0c-19.035,0 -34.52,-15.49 -34.52,-34.53l0,-88.24c0,-19.04 15.485,-34.53 34.52,-34.53l1125.832,0c19.04,0 34.53,15.49 34.53,34.53l0,88.24c0,19.04 -15.49,34.53 -34.53,34.53zm0,-20c8.03,0 14.53,-6.51 14.53,-14.53l0,-88.24c0,-8.03 -6.5,-14.53 -14.53,-14.53l-1125.832,0c-8.024,0 -14.52,6.5 -14.52,14.53l0,88.24c0,8.02 6.496,14.53 14.52,14.53l1125.832,0" id="svg_193"/>
     <path fill="#6a86ca" fill-rule="nonzero" d="m3855.30475,3473.328256l-25.293,0c-7.211,0 -13.063,5.85 -13.063,13.06l0,25.3c0,7.21 5.852,13.06 13.063,13.06l25.293,0c7.211,0 13.062,-5.85 13.062,-13.06l0,-25.3c0,-7.21 -5.851,-13.06 -13.062,-13.06" id="svg_192"/>
     <path fill="#6a86ca" fill-rule="nonzero" d="m3855.30475,3298.058256l-25.293,0c-7.211,0 -13.063,5.85 -13.063,13.06l0,25.29c0,7.22 5.852,13.06 13.063,13.06l25.293,0c7.211,0 13.062,-5.84 13.062,-13.06l0,-25.29c0,-7.21 -5.851,-13.06 -13.062,-13.06" id="svg_191"/>
     <path fill="#6a86ca" fill-rule="nonzero" d="m3855.30475,3122.778256l-25.293,0c-7.211,0 -13.063,5.85 -13.063,13.06l0,25.3c0,7.21 5.852,13.06 13.063,13.06l25.293,0c7.211,0 13.062,-5.85 13.062,-13.06l0,-25.3c0,-7.21 -5.851,-13.06 -13.062,-13.06" id="svg_190"/>
     <path fill="#ffffff" fill-rule="nonzero" d="m6255.72875,2.958256c-1.03,0 -2.08,0.1602 -3.09,0.4922l-943.45,305.8988c-5.26,1.691 -8.13,7.339 -6.43,12.589l107.76,332.36c0.82,2.519 2.6,4.621 4.97,5.82c1.42,0.719 2.97,1.09 4.54,1.09c1.04,0 2.08,-0.168 3.09,-0.488l943.45,-305.91c5.25,-1.7 8.14,-7.34 6.43,-12.59l-107.76,-332.3518c-0.82,-2.5196 -2.61,-4.6211 -4.97,-5.8204c-1.41,-0.7187 -2.98,-1.0898 -4.54,-1.0898" id="svg_189"/>
     <path fill="#6a86ca" fill-rule="nonzero" d="m5420.02875,671.208256c-3.13,0 -6.24,-0.738 -9.08,-2.191c-4.73,-2.407 -8.31,-6.598 -9.94,-11.649l-107.76,-332.351c-1.64,-5.039 -1.21,-10.528 1.21,-15.25c2.41,-4.727 6.6,-8.309 11.64,-9.938l943.46,-305.89053c2.01,-0.66016 4.09,-0.98047 6.17,-0.98047c3.13,0 6.25,0.73047 9.09,2.17969c4.73,2.41015 8.29,6.60156 9.93,11.65231l107.76,332.34c3.41,10.508 -2.35,21.789 -12.85,25.199l-943.46,305.899c-2.01,0.66 -4.09,0.98 -6.17,0.98zm0,-20l943.45,-305.91l-107.75,-332.34l-943.46,305.898l107.76,332.352" id="svg_188"/>
     <path fill="#ffffff" fill-rule="nonzero" d="m6255.72875,2.958256c-3.21,0 -6.26,1.5391 -8.15,4.2109l-353.45,497.9491l-578.54,-195.371c-1.05,-0.359 -2.13,-0.527 -3.2,-0.527c-2.59,0 -5.13,1 -7.03,2.886c-2.69,2.661 -3.65,6.602 -2.48,10.192l188.35,580.152c0.82,2.528 2.61,4.617 4.97,5.817c1.42,0.722 2.98,1.093 4.54,1.093c1.04,0 2.08,-0.16 3.09,-0.48l943.34,-306.274c5.25,-1.707 8.13,-7.347 6.42,-12.597l-188.35,-580.1408c-1.17,-3.5899 -4.27,-6.2305 -8,-6.7891l-1.51,-0.1211" id="svg_187"/>
     <path fill="#6a86ca" fill-rule="nonzero" d="m5500.73875,919.368256c-3.12,0 -6.24,-0.75 -9.08,-2.191c-4.73,-2.399 -8.3,-6.59 -9.94,-11.637l-188.35,-580.141c-2.34,-7.191 -0.41,-15.089 4.96,-20.402c3.81,-3.758 8.89,-5.769 14.07,-5.769c2.14,0 4.3,0.339 6.39,1.039l571.49,192.992l349.14,-491.87912c3.78,-5.33985 9.89,-8.42188 16.3,-8.42188c1.01,0 2.02,0.07031 3.03,0.21875c7.48,1.15234 13.67,6.41016 16,13.60155l188.35,580.1287c1.64,5.051 1.2,10.543 -1.2,15.27c-2.41,4.722 -6.6,8.301 -11.65,9.941l-943.33,306.27c-2.02,0.64 -4.1,0.98 -6.18,0.98m0,-20.008l943.34,-306.261l-188.35,-580.141l-357.75,504.012l-585.59,-197.742l188.35,580.132" id="svg_186"/>
     <path fill="#ffffff" fill-rule="nonzero" d="m5957.14875,330.149256c-6.02,0 -11.66,0.809 -16.33,2.321l-191.2,62.078c-13.19,4.281 -27.62,16.941 -33.58,29.441l-215.83,453.051c-4.86,10.188 -2.32,16.879 -0.38,19.949c2.9,4.61 8.07,7.258 14.17,7.258c2.72,0 5.66,-0.508 8.74,-1.519l905.29,-293.918c12.76,-4.141 14.83,-12.403 15.13,-15.762c0.3,-3.36 -0.29,-11.86 -12.13,-18.18l-445.75,-238.441c-7.45,-3.989 -17.7,-6.278 -28.13,-6.278" id="svg_185"/>
     <path fill="#6a86ca" fill-rule="nonzero" d="m5513.99875,914.247256c-9.6,0 -17.85,-4.348 -22.62,-11.918c-3.05,-4.812 -7.12,-15.062 -0.2,-29.59l215.84,-453.051c7.13,-14.949 23.74,-29.531 39.5,-34.648l191.2,-62.082c5.74,-1.871 12.28,-2.809 19.43,-2.809c12.02,0 23.99,2.719 32.85,7.457l445.76,238.442c17.09,9.14 17.83,22.551 17.36,27.879c-0.48,5.351 -3.57,18.402 -22,24.39l-905.29,293.93c-4.08,1.313 -8.07,2 -11.83,2m0,-20c1.62,0 3.52,-0.328 5.66,-1.027l905.28,-293.922c10.47,-3.391 11.09,-10.418 1.39,-15.61l-445.77,-238.449c-6.16,-3.301 -15.06,-5.09 -23.41,-5.09c-4.81,0 -9.43,0.59 -13.25,1.829l-191.2,62.082c-10.47,3.398 -22.9,14.296 -27.62,24.23l-215.84,453.047c-3.77,7.91 -1.57,12.91 4.76,12.91" id="svg_184"/>
     <path fill="#5e7cbd" fill-rule="nonzero" d="m5414.72875,722.470256c-523.18,0 -947.3,44.449 -947.3,99.277c0,26.293 97.53,50.203 256.75,67.961l0,-59.699l0,0l0,-1.199c0,-8.461 6.86,-15.313 15.32,-15.313l712.33,0l-29.55,-91.027c-2.51,0 -5.03,0 -7.55,0m620.82,24.289l-205.55,66.738l259.28,0c8.83,0 15.99,7.152 15.99,15.992l0,0.52l0,0l0,59.699c159.22,-17.758 256.76,-41.668 256.76,-67.961c0,-29.937 -126.47,-56.789 -326.48,-74.988" id="svg_183"/>
     <path fill="#dde7e9" fill-rule="nonzero" d="m5443.31875,722.509256l29.54,90.988l46.55,0l42.79,-89.828c-38.88,-0.641 -78.58,-1.031 -118.88,-1.16" id="svg_182"/>
     <path fill="#5e7cbd" fill-rule="nonzero" d="m5422.27875,722.470256l29.55,91.027l21.03,0l-29.54,-90.988c-7,-0.02 -13.99,-0.031 -21.04,-0.039m613.25,24.289l-205.55,66.738l0.02,0l205.55,-66.738l-0.02,0" id="svg_181"/>
     <path fill="#dde7e9" fill-rule="nonzero" d="m5584.16875,724.048256l-42.61,89.449l223.65,0l218.96,-71.098c-115.61,-9.121 -251.82,-15.539 -400,-18.351" id="svg_180"/>
     <path fill="#5e7cbd" fill-rule="nonzero" d="m5562.19875,723.669256l-42.79,89.828l22.15,0l42.61,-89.449c-7.29,-0.129 -14.63,-0.258 -21.97,-0.379m421.97,18.73l-218.96,71.098l64.77,0l205.55,-66.738c-16.64,-1.512 -33.74,-2.961 -51.36,-4.36" id="svg_179"/>
     <path fill="#5e7cbd" fill-rule="nonzero" d="m4392.25875,1211.508256l-0.3,0.9l5.07,0l-4.77,-0.9m-209.614,624.07l-1.086,3.24l1.086,11.24l0,-14.48" id="svg_178"/>
     <path fill="#dde7e9" fill-rule="nonzero" d="m4155.47675,1181.068256c-10.465,5.79 -19.133,14.54 -24.785,25.16l61.281,20.58c7.351,-8.79 18.387,-14.4 30.672,-14.4l26.152,0l-93.32,-31.34m122.996,8.91l31.219,10.49l-4.012,11.94l65.179,0l1.57,-4.65l-93.956,-17.78m-154.93,46.25c0.031,1.59 0.125,3.2 0.281,4.82l2.872,29.73l55.949,18.79l0,-33.49l-59.102,-19.85m6.387,68.02l3.344,34.62l49.371,16.58l0,-33.5l-52.715,-17.7m6.574,68.09l3.344,34.63l42.797,14.37l0,-33.5l-46.141,-15.5m6.578,68.1l3.344,34.62l36.219,12.17l0,-33.5l-39.563,-13.29m6.578,68.1l6.098,63.15l26.887,9.03l0,-61.11l-32.985,-11.07m32.985,73.43l-5.121,15.24l-19.95,-6.7l1.344,13.88l14.555,4.89l-5.488,16.35l-7.25,-2.43l1.339,13.88l1.86,0.62l-1.399,4.16l14.313,148.17l5.797,-17.26l0,-190.8" id="svg_177"/>
     <path fill="#5e7cbd" fill-rule="nonzero" d="m4372.42875,1207.758256l-1.57,4.65l21.1,0l0.3,-0.9l-19.83,-3.75m-189.784,565.01l-5.797,17.26l4.711,48.79l1.086,-3.24l0,-62.81" id="svg_176"/>
     <path fill="#bcc5c8" fill-rule="nonzero" d="m4162.07375,1637.078256l0.461,4.78l1.399,-4.16l-1.86,-0.62" id="svg_175"/>
     <path fill="#bcc5c8" fill-rule="nonzero" d="m4146.42575,1475.058256l3.234,33.48l32.985,11.07l0,-32.38l-36.219,-12.17" id="svg_174"/>
     <path fill="#bcc5c8" fill-rule="nonzero" d="m4139.84775,1406.968256l3.234,33.47l39.563,13.29l0,-32.39l-42.797,-14.37" id="svg_173"/>
     <path fill="#bcc5c8" fill-rule="nonzero" d="m4133.27375,1338.868256l3.23,33.47l46.141,15.5l0,-32.39l-49.371,-16.58" id="svg_172"/>
     <path fill="#bcc5c8" fill-rule="nonzero" d="m4126.69575,1270.778256l3.234,33.47l52.715,17.7l0,-32.38l-55.949,-18.79" id="svg_171"/>
     <path fill="#bcc5c8" fill-rule="nonzero" d="m4130.69175,1206.228256c-4.743,8.91 -7.368,19.13 -7.149,30l59.102,19.85l0,-3.67c0,-9.72 3.512,-18.65 9.328,-25.6l-61.281,-20.58" id="svg_170"/>
     <path fill="#bcc5c8" fill-rule="nonzero" d="m4185.05875,1173.408256c-10.656,0 -20.758,2.77 -29.582,7.66l93.32,31.34l56.883,0l4.012,-11.94l-31.219,-10.49l-81.781,-15.47c-3.926,-0.74 -7.817,-1.1 -11.633,-1.1" id="svg_169"/>
     <path fill="#bcc5c8" fill-rule="nonzero" d="m4158.91775,1604.388256l1.817,18.81l7.25,2.43l5.488,-16.35l-14.555,-4.89" id="svg_168"/>
     <path fill="#bcc5c8" fill-rule="nonzero" d="m4155.75775,1571.688256l1.816,18.82l19.95,6.7l5.121,-15.24l0,-1.25l-26.887,-9.03" id="svg_167"/>
     <path fill="#ffffff" fill-rule="nonzero" d="m4985.53875,863.017256l858.371,0l0,396.172l-858.371,0l0,-396.172z" id="svg_166"/>
     <path fill="#ffffff" fill-rule="nonzero" d="m6105.26875,830.009256c0,-9.082 -7.43,-16.512 -16.5,-16.512l-1348.08,0c-9.08,0 -16.51,7.43 -16.51,16.512l0,66.031c0,9.066 7.43,16.5 16.51,16.5l1348.08,0c9.07,0 16.5,-7.434 16.5,-16.5l0,-66.031" id="svg_165"/>
     <path fill="#ffffff" fill-rule="nonzero" d="m6646.81875,1252.408256c0,-22 -18,-40 -40,-40l-2384.174,0c-22.004,0 -40,18 -40,40l0,1587.21c0,22 17.996,40 40,40l2384.174,0c22,0 40,-18 40,-40l0,-1587.21" id="svg_164"/>
     <path fill="#5e7cbd" fill-rule="nonzero" d="m4981.47875,1146.698256l4.0586,0l0,65.707l-4.0586,0l0,-65.707z" id="svg_163"/>
     <path fill="#dde7e9" fill-rule="nonzero" d="m4985.53875,1146.698256l858.371,0l0,65.707l-858.371,0l0,-65.707z" id="svg_162"/>
     <path fill="#5e7cbd" fill-rule="nonzero" d="m4981.47875,912.540256l4.0586,0l0,16.9766l-4.0586,0l0,-16.9766z" id="svg_161"/>
     <path fill="#dde7e9" fill-rule="nonzero" d="m4985.53875,912.540256l858.371,0l0,16.9766l-858.371,0l0,-16.9766z" id="svg_160"/>
     <path fill="#dde7e9" fill-rule="nonzero" d="m5843.90875,912.540256l-862.43,0l862.43,0" id="svg_159"/>
     <path fill="#0f1828" fill-rule="nonzero" d="m4228.97275,1358.218256l2371.52,0l0,1471.88l-2371.52,0l0,-1471.88z" id="svg_158"/>
     <path fill="#c7d8e4" fill-rule="nonzero" d="m6600.48875,2803.438256l1.0625,0l0,26.6602l-1.0625,0l0,-26.6602z" id="svg_157"/>
     <path fill="#5572b1" fill-rule="nonzero" d="m6089.27875,813.497256l-259.28,0l258.77,0c9.07,0 16.5,7.43 16.5,16.512l0,0l0,-0.52c0,-8.84 -7.16,-15.992 -15.99,-15.992m-637.45,0l-712.33,0c-8.46,0 -15.32,6.852 -15.32,15.313l0,1.199c0,-9.082 7.43,-16.512 16.51,-16.512l711.14,0" id="svg_156"/>
     <path fill="#dde7e9" fill-rule="nonzero" d="m6088.76875,813.497256l-1348.08,0c-9.08,0 -16.51,7.43 -16.51,16.512l1381.09,0c0,-9.082 -7.43,-16.512 -16.5,-16.512" id="svg_155"/>
     <path fill="#0f1828" fill-rule="nonzero" d="m5441.54875,1286.008256c0,-14.81 -12,-26.82 -26.82,-26.82c-14.81,0 -26.83,12.01 -26.83,26.82c0,14.81 12.02,26.82 26.83,26.82c14.82,0 26.82,-12.01 26.82,-26.82" id="svg_154"/>
     <path fill="#ffffff" fill-rule="nonzero" d="m5658.63875,1621.648256c0,55.14 44.7,99.88 99.85,99.88c55.17,0 99.87,-44.74 99.87,-99.88c0,-55.19 -44.7,-99.88 -99.87,-99.88c-55.15,0 -99.85,44.69 -99.85,99.88zm249.03,-43.5l35.2,6.91l-0.05,71.91l-35,7.64c-3.19,11.17 -7.59,21.74 -13.09,31.76l19.98,29.76l-50.83,50.81l-30.23,-19.35c-9.94,5.52 -20.48,9.95 -31.68,13.21l-6.9,35.2l-71.86,0l-7.66,-35.05c-11.18,-3.22 -21.74,-7.59 -31.73,-13.09l-29.77,19.99l-50.87,-50.89l19.31,-30.18c-5.48,-9.94 -9.87,-20.51 -13.17,-31.65l-35.19,-6.94l0.05,-71.88l35.05,-7.69c3.21,-11.17 7.58,-21.69 13.03,-31.66l-19.96,-29.81l50.86,-50.84l30.21,19.35c9.93,-5.52 20.46,-9.94 31.64,-13.13l6.94,-35.25l71.87,0l7.66,35.04c11.15,3.25 21.73,7.6 31.71,13.12l29.82,-20.04l50.81,50.89l-19.36,30.18c5.56,10 9.95,20.51 13.21,31.68" id="svg_153"/>
     <path fill="#ffffff" fill-rule="nonzero" d="m6011.36875,1862.018256c0,80.38 65.18,145.56 145.54,145.56c80.38,0 145.59,-65.18 145.59,-145.56c0,-80.41 -65.21,-145.57 -145.59,-145.57c-80.36,0 -145.54,65.16 -145.54,145.57zm362.96,-63.42l51.31,10.1l-0.05,104.8l-51.03,11.15c-4.67,16.31 -11.06,31.68 -19.06,46.22l29.11,43.45l-74.06,74.09l-44.11,-28.22c-14.44,8.06 -29.86,14.49 -46.14,19.23l-10.1,51.28l-104.74,0l-11.17,-51.08c-16.29,-4.67 -31.69,-11.08 -46.24,-19.08l-43.41,29.17l-74.08,-74.17l28.15,-44.01c-8.03,-14.54 -14.46,-29.86 -19.2,-46.15l-51.34,-10.04l0.05,-104.85l51.07,-11.13c4.71,-16.32 11.1,-31.67 19.05,-46.24l-29.07,-43.42l74.09,-74.08l44.01,28.18c14.46,-8.01 29.89,-14.44 46.15,-19.16l10.12,-51.33l104.75,0l11.17,51.08c16.29,4.72 31.71,11.06 46.22,19.09l43.5,-29.2l74.02,74.17l-28.19,44.01c8.05,14.53 14.49,29.88 19.22,46.14" id="svg_152"/>
     <path fill="#334154" fill-rule="nonzero" d="m4984.87875,2585.268256l-252.32,0c-8.02,0 -14.52,6.5 -14.52,14.52l0,42.1c0,8.02 6.5,14.53 14.52,14.53l252.32,0c8.02,0 14.52,-6.51 14.52,-14.53l0,-42.1c0,-8.02 -6.5,-14.52 -14.52,-14.52" id="svg_151"/>
     <path fill="#334154" fill-rule="nonzero" d="m5593.59875,2585.268256l-550.91,0c-8.01,0 -14.52,6.5 -14.52,14.52l0,42.1c0,8.02 6.51,14.53 14.52,14.53l550.91,0c8.02,0 14.52,-6.51 14.52,-14.53l0,-42.1c0,-8.02 -6.5,-14.52 -14.52,-14.52" id="svg_150"/>
     <path fill="#334154" fill-rule="nonzero" d="m5404.03875,2462.728256l-671.48,0c-8.02,0 -14.52,6.5 -14.52,14.53l0,42.1c0,8.02 6.5,14.52 14.52,14.52l671.48,0c8.02,0 14.52,-6.5 14.52,-14.52l0,-42.1c0,-8.03 -6.5,-14.53 -14.52,-14.53" id="svg_149"/>
     <path fill="#334154" fill-rule="nonzero" d="m5704.47875,2462.728256l-242.63,0c-8.01,0 -14.52,6.5 -14.52,14.53l0,42.1c0,8.02 6.51,14.52 14.52,14.52l242.63,0c8.02,0 14.52,-6.5 14.52,-14.52l0,-42.1c0,-8.03 -6.5,-14.53 -14.52,-14.53" id="svg_148"/>
     <path fill="#334154" fill-rule="nonzero" d="m5173.19875,2340.198256l-440.64,0c-8.02,0 -14.52,6.5 -14.52,14.52l0,42.1c0,8.02 6.5,14.52 14.52,14.52l440.64,0c8.01,0 14.52,-6.5 14.52,-14.52l0,-42.1c0,-8.02 -6.51,-14.52 -14.52,-14.52" id="svg_147"/>
     <path fill="#334154" fill-rule="nonzero" d="m5579.49875,2340.198256l-348.49,0c-8.02,0 -14.52,6.5 -14.52,14.52l0,42.1c0,8.02 6.5,14.52 14.52,14.52l348.49,0c8.02,0 14.52,-6.5 14.52,-14.52l0,-42.1c0,-8.02 -6.5,-14.52 -14.52,-14.52" id="svg_146"/>
     <path fill="#334154" fill-rule="nonzero" d="m5295.01875,2217.668256l-562.46,0c-8.02,0 -14.52,6.5 -14.52,14.52l0,42.1c0,8.02 6.5,14.52 14.52,14.52l562.46,0c8.02,0 14.52,-6.5 14.52,-14.52l0,-42.1c0,-8.02 -6.5,-14.52 -14.52,-14.52" id="svg_145"/>
     <path fill="#334154" fill-rule="nonzero" d="m5632.96875,2217.668256l-280.14,0c-8.02,0 -14.52,6.5 -14.52,14.52l0,42.1c0,8.02 6.5,14.52 14.52,14.52l280.14,0c8.01,0 14.52,-6.5 14.52,-14.52l0,-42.1c0,-8.02 -6.51,-14.52 -14.52,-14.52" id="svg_144"/>
     <path fill="#334154" fill-rule="nonzero" d="m5158.80875,2095.128256l-426.25,0c-8.02,0 -14.52,6.5 -14.52,14.52l0,42.1c0,8.03 6.5,14.52 14.52,14.52l426.25,0c8.02,0 14.52,-6.49 14.52,-14.52l0,-42.1c0,-8.02 -6.5,-14.52 -14.52,-14.52" id="svg_143"/>
     <path fill="#334154" fill-rule="nonzero" d="m5579.49875,2095.128256l-362.88,0c-8.02,0 -14.52,6.5 -14.52,14.52l0,42.1c0,8.03 6.5,14.52 14.52,14.52l362.88,0c8.02,0 14.52,-6.49 14.52,-14.52l0,-42.1c0,-8.02 -6.5,-14.52 -14.52,-14.52" id="svg_142"/>
     <path fill="#334154" fill-rule="nonzero" d="m5438.83875,1972.588256l-706.28,0c-8.02,0 -14.52,6.51 -14.52,14.52l0,42.11c0,8.02 6.5,14.52 14.52,14.52l706.28,0c8.01,0 14.52,-6.5 14.52,-14.52l0,-42.11c0,-8.01 -6.51,-14.52 -14.52,-14.52" id="svg_141"/>
     <path fill="#334154" fill-rule="nonzero" d="m5632.96875,1972.588256l-136.32,0c-8.02,0 -14.52,6.51 -14.52,14.52l0,42.11c0,8.02 6.5,14.52 14.52,14.52l136.32,0c8.01,0 14.52,-6.5 14.52,-14.52l0,-42.11c0,-8.01 -6.51,-14.52 -14.52,-14.52" id="svg_140"/>
     <path fill="#334154" fill-rule="nonzero" d="m5118.61875,1850.058256l-386.06,0c-8.02,0 -14.52,6.5 -14.52,14.52l0,42.1c0,8.03 6.5,14.52 14.52,14.52l386.06,0c8.02,0 14.52,-6.49 14.52,-14.52l0,-42.1c0,-8.02 -6.5,-14.52 -14.52,-14.52" id="svg_139"/>
     <path fill="#ffffff" fill-rule="nonzero" d="m4343.94575,1850.058256l263.993,0c20.09,0 36.37,16.29 36.37,36.37l0,733.61c0,20.09 -16.28,36.38 -36.37,36.38l-263.993,0c-20.086,0 -36.372,-16.29 -36.372,-36.38l0,-733.61c0,-20.08 16.286,-36.37 36.372,-36.37" id="svg_138"/>
     <path fill="#0f1828" fill-rule="nonzero" d="m4589.41875,2253.238256c0,-62.67 -50.8,-113.48 -113.47,-113.48c-62.68,0 -113.48,50.81 -113.48,113.48c0,62.67 50.8,113.47 113.48,113.47c62.67,0 113.47,-50.8 113.47,-113.47" id="svg_137"/>
     <path fill="#e6e6e4" fill-rule="nonzero" d="m4464.80875,2218.418256l0,73.19c0,2.99 3.62,4.49 5.73,2.37l36.59,-36.59c1.32,-1.31 1.32,-3.44 0,-4.75l-36.59,-36.59c-2.11,-2.11 -5.73,-0.62 -5.73,2.37" id="svg_136"/>
     <path fill="#f46845" fill-rule="nonzero" d="m4336.45275,1434.278256l972.976,0c15.95,0 28.88,12.93 28.88,28.87l0,237.97c0,15.96 -12.93,28.88 -28.88,28.88l-972.976,0c-15.949,0 -28.879,-12.92 -28.879,-28.88l0,-237.97c0,-15.94 12.93,-28.87 28.879,-28.87" id="svg_135"/>
     <path fill="#0f1828" fill-rule="nonzero" d="m4437.08875,1656.408256c-22.3,0 -40.38,-18.09 -40.38,-40.39c0,-22.31 18.08,-40.4 40.38,-40.4c22.31,0 40.39,18.09 40.39,40.4c0,22.3 -18.08,40.39 -40.39,40.39zm72.34,-166.92l-144.67,0c0,39.94 32.38,72.34 72.33,72.34c39.95,0 72.34,-32.4 72.34,-72.34" id="svg_134"/>
     <path fill="#0f1828" fill-rule="nonzero" d="m4877.47875,1615.488256l-239.64,0c-8.01,0 -14.52,6.5 -14.52,14.52l0,7.75c0,8.03 6.51,14.52 14.52,14.52l239.64,0c8.02,0 14.52,-6.49 14.52,-14.52l0,-7.75c0,-8.02 -6.5,-14.52 -14.52,-14.52" id="svg_133"/>
     <path fill="#0f1828" fill-rule="nonzero" d="m5025.78875,1569.098256l-391.75,0c-5.92,0 -10.72,4.81 -10.72,10.72l0,1.13c0,5.91 4.8,10.71 10.72,10.71l391.75,0c5.93,0 10.73,-4.8 10.73,-10.71l0,-1.13c0,-5.91 -4.8,-10.72 -10.73,-10.72" id="svg_132"/>
     <path fill="#0f1828" fill-rule="nonzero" d="m4857.31875,1532.048256l-223.28,0c-5.92,0 -10.72,4.81 -10.72,10.72l0,1.12c0,5.92 4.8,10.72 10.72,10.72l223.28,0c5.92,0 10.72,-4.8 10.72,-10.72l0,-1.12c0,-5.91 -4.8,-10.72 -10.72,-10.72" id="svg_131"/>
     <path fill="#0f1828" fill-rule="nonzero" d="m5116.53875,1532.048256l-223.27,0c-5.92,0 -10.72,4.81 -10.72,10.72l0,1.12c0,5.92 4.8,10.72 10.72,10.72l223.27,0c5.92,0 10.72,-4.8 10.72,-10.72l0,-1.12c0,-5.91 -4.8,-10.72 -10.72,-10.72" id="svg_130"/>
     <path fill="#0f1828" fill-rule="nonzero" d="m5025.78875,1494.998256l-391.75,0c-5.92,0 -10.72,4.79 -10.72,10.71l0,1.13c0,5.91 4.8,10.72 10.72,10.72l391.75,0c5.93,0 10.73,-4.81 10.73,-10.72l0,-1.13c0,-5.92 -4.8,-10.71 -10.73,-10.71" id="svg_129"/>
     <path fill="#0f1828" fill-rule="nonzero" d="m5201.21875,1615.488256l-275.05,0c-8.02,0 -14.52,6.5 -14.52,14.52l0,7.75c0,8.03 6.5,14.52 14.52,14.52l275.05,0c8.02,0 14.52,-6.49 14.52,-14.52l0,-7.75c0,-8.02 -6.5,-14.52 -14.52,-14.52" id="svg_128"/>
     <path fill="#f2a344" fill-rule="nonzero" d="m5946.64875,2287.868256l457.91,0c32.29,0 58.47,26.17 58.47,58.47l0,253.84c0,32.29 -26.18,58.47 -58.47,58.47l-457.91,0c-32.3,0 -58.48,-26.18 -58.48,-58.47l0,-253.84c0,-32.3 26.18,-58.47 58.48,-58.47" id="svg_127"/>
     <path fill="#334154" fill-rule="nonzero" d="m4228.97275,2730.068256l2371.52,0l0,73.3711l-2371.52,0l0,-73.3711z" id="svg_126"/>
     <path fill="#313e51" fill-rule="nonzero" d="m4228.97275,2803.438256l2371.52,0l0,26.6602l-2371.52,0l0,-26.6602z" id="svg_125"/>
     <path fill="#ffffff" fill-rule="nonzero" d="m6549.86875,2780.088256c0,-9.52 -7.71,-17.24 -17.24,-17.24c-9.52,0 -17.23,7.72 -17.23,17.24c0,9.52 7.71,17.24 17.23,17.24c9.53,0 17.24,-7.72 17.24,-17.24" id="svg_124"/>
     <path fill="#ffffff" fill-rule="nonzero" d="m6497.50875,2780.088256c0,-9.52 -7.72,-17.24 -17.24,-17.24c-9.52,0 -17.24,7.72 -17.24,17.24c0,9.52 7.72,17.24 17.24,17.24c9.52,0 17.24,-7.72 17.24,-17.24" id="svg_123"/>
     <path fill="#ffffff" fill-rule="nonzero" d="m6445.13875,2780.088256c0,-9.52 -7.71,-17.24 -17.23,-17.24c-9.52,0 -17.25,7.72 -17.25,17.24c0,9.52 7.73,17.24 17.25,17.24c9.52,0 17.23,-7.72 17.23,-17.24" id="svg_122"/>
     <path fill="#040606" fill-rule="nonzero" d="m6025.90875,2458.528256l0,21.85l85.58,35.14l0,-29.13l-43.15,-16.94l43.15,-17.3l0,-28.58l-85.58,34.96" id="svg_121"/>
     <path fill="#040606" fill-rule="nonzero" d="m6194.89875,2536.648256l28.41,0l-71.56,-153.33l-28.41,0l71.56,153.33" id="svg_120"/>
     <path fill="#040606" fill-rule="nonzero" d="m6239.69875,2423.568256l0,28.95l43.16,16.93l-43.16,17.3l0,28.77l85.58,-35.14l0,-21.85l-85.58,-34.96" id="svg_119"/>
    </g>
   </g>
  </g>
 </g>
</svg>