<?xml version="1.0" encoding="UTF-8" standalone="no"?>
<svg
   xmlns:dc="http://purl.org/dc/elements/1.1/"
   xmlns:cc="http://creativecommons.org/ns#"
   xmlns:rdf="http://www.w3.org/1999/02/22-rdf-syntax-ns#"
   xmlns:svg="http://www.w3.org/2000/svg"
   xmlns="http://www.w3.org/2000/svg"
   viewBox="0 0 1000 666.66669"
   height="666.66669"
   width="1000"
   xml:space="preserve"
   id="svg2"
   version="1.1"><metadata
     id="metadata8"><rdf:RDF><cc:Work
         rdf:about=""><dc:format>image/svg+xml</dc:format><dc:type
           rdf:resource="http://purl.org/dc/dcmitype/StillImage" /></cc:Work></rdf:RDF></metadata><defs
     id="defs6"><clipPath
       id="clipPath120"
       clipPathUnits="userSpaceOnUse"><path
         id="path118"
         d="m 3805.29,1445.26 c -128.34,37.96 -269.22,65.8 -319.98,75.34 h 319.98 v -75.34" /></clipPath></defs><g
     transform="matrix(1.3333333,0,0,-1.3333333,0,666.66667)"
     id="g10"><g
       transform="scale(0.1)"
       id="g12"><path
         id="path14"
         style="fill:#ffffff;fill-opacity:1;fill-rule:nonzero;stroke:none"
         d="M 0,0 H 7500 V 5000 H 0 Z" /><path
         id="path16"
         style="fill:#ecf7fd;fill-opacity:1;fill-rule:nonzero;stroke:none"
         d="m 759.578,1139.9 c 0,0 -513.574,991.32 -11.969,1445.2 214.786,194.35 414.981,414.84 536.971,680.52 138.05,300.69 103.61,628.92 204.29,938.77 70.6,217.29 206.98,425 413.59,522.49 248.63,117.32 541.79,54.71 805.4,-23.33 314.25,-93.02 612.24,-159.77 939.28,-98.48 225.09,42.18 430.19,148.28 656.02,186.7 349.16,59.41 720.92,10.25 1045.92,-129.29 225.5,-96.84 405.15,-236.51 533.79,-446.35 123.29,-201.13 204.99,-428.99 361.93,-608.51 154.53,-176.76 369.08,-284.45 532.49,-451.25 178.74,-182.47 264.35,-466.71 316.32,-710.97 49.3,-231.66 64.61,-477.08 12.88,-709.74 -25.18,-113.31 -66.51,-223.4 -128.15,-322.07 -34.72,-55.61 -160.64,-249.5 -234.83,-249.8 L 759.578,1139.9" /><path
         id="path18"
         style="fill:#e2eefa;fill-opacity:1;fill-rule:nonzero;stroke:none"
         d="m 3055.43,3805.65 c -108.11,38.51 -164.53,157.38 -126.02,265.48 38.51,108.12 157.37,164.54 265.48,126.03 108.11,-38.51 164.53,-157.37 126.02,-265.48 -38.51,-108.12 -157.37,-164.54 -265.48,-126.03 m 190.92,535.98 c -187.9,66.93 -394.48,-31.13 -461.41,-219.03 -66.93,-187.91 31.13,-394.48 219.03,-461.42 187.9,-66.93 394.48,31.14 461.41,219.03 66.93,187.9 -31.13,394.48 -219.03,461.42" /><path
         id="path20"
         style="fill:#e2eefa;fill-opacity:1;fill-rule:nonzero;stroke:none"
         d="m 3338.35,4220.55 -239.82,85.43 86.08,201.89 214.67,-76.47 -60.93,-210.85" /><path
         id="path22"
         style="fill:#e2eefa;fill-opacity:1;fill-rule:nonzero;stroke:none"
         d="m 3042.91,4301.2 -193.9,-164.99 -131.8,175.5 173.56,147.68 152.14,-158.19" /><path
         id="path24"
         style="fill:#e2eefa;fill-opacity:1;fill-rule:nonzero;stroke:none"
         d="m 2825.34,4085.65 45.93,-250.41 -217.88,-26.39 -41.11,224.15 213.06,52.65" /><path
         id="path26"
         style="fill:#e2eefa;fill-opacity:1;fill-rule:nonzero;stroke:none"
         d="m 2903.23,3789.46 239.83,-85.43 -86.09,-201.87 -214.67,76.46 60.93,210.84" /><path
         id="path28"
         style="fill:#e2eefa;fill-opacity:1;fill-rule:nonzero;stroke:none"
         d="m 3198.68,3706.92 192.01,167.17 133.77,-173.99 -171.87,-149.63 -153.91,156.45" /><path
         id="path30"
         style="fill:#e2eefa;fill-opacity:1;fill-rule:nonzero;stroke:none"
         d="m 3416.24,3924.37 -45.93,250.41 217.88,26.39 41.11,-224.15 -213.06,-52.65" /><path
         id="path32"
         style="fill:#e7f3fb;fill-opacity:1;fill-rule:nonzero;stroke:none"
         d="m 5415.13,3435.78 -167.22,28.85 v 30.77 c 0,51.9 -42.1,94 -94,94 h -110.36 v 0.1 l -64.44,-0.1 h -5.76 v 33.06 l 419.62,-72.38 7.89,45.72 -427.51,73.74 v 45.27 l 435.09,-75.05 7.89,45.72 -442.98,76.41 v 38.03 l 449.35,-77.51 7.89,45.72 -460.2,79.38 c -9.65,35.11 -41.8,60.91 -79.97,60.91 h -273.14 l -51.88,8.95 -1.55,-8.95 h -69.49 l 119.12,690.59 973.34,-167.89 -171.69,-995.34 m -590.77,629.36 v 0 c 33.38,-66.45 96.75,-116.75 175.68,-130.37 13.94,-2.4 27.81,-3.56 41.5,-3.56 63.33,0 122.74,24.88 166.89,66.7 v 0 0 c 36.63,34.76 62.77,81.14 72.02,134.77 22.78,132.07 -65.83,257.62 -197.9,280.4 -13.97,2.41 -27.84,3.57 -41.54,3.57 -115.92,0 -218.5,-83.36 -238.87,-201.47 -9.18,-53.22 -0.35,-105.23 22.22,-150.04 v 0" /><path
         id="path34"
         style="fill:#f7fcfe;fill-opacity:1;fill-rule:nonzero;stroke:none"
         d="m 5208.43,3997.91 c -33.38,66.44 -96.74,116.74 -175.67,130.36 -13.97,2.41 -27.86,3.57 -41.57,3.57 -63.31,0 -122.68,-24.84 -166.83,-66.7 v 0 c -22.57,44.81 -31.4,96.82 -22.22,150.04 20.37,118.11 122.95,201.47 238.87,201.47 13.7,0 27.57,-1.16 41.54,-3.57 132.07,-22.78 220.68,-148.33 197.9,-280.4 -9.25,-53.63 -35.39,-100.01 -72.02,-134.77 v 0 m -157.48,295.89 c -35.26,0 -66.45,-25.35 -72.64,-61.28 -6.94,-40.17 20.02,-78.36 60.18,-85.29 4.25,-0.73 8.47,-1.08 12.64,-1.08 35.26,0 66.45,25.35 72.66,61.28 6.92,40.16 -20.02,78.35 -60.2,85.28 -4.25,0.73 -8.47,1.09 -12.64,1.09" /><path
         id="path36"
         style="fill:#e7f3fb;fill-opacity:1;fill-rule:nonzero;stroke:none"
         d="m 5041.54,3931.21 c -13.69,0 -27.56,1.16 -41.5,3.56 -78.93,13.62 -142.3,63.92 -175.68,130.37 v 0 c 44.15,41.86 103.52,66.7 166.83,66.7 13.71,0 27.6,-1.16 41.57,-3.57 78.93,-13.62 142.29,-63.92 175.67,-130.36 v 0 c -44.15,-41.82 -103.56,-66.7 -166.89,-66.7" /><path
         id="path38"
         style="fill:#e7f3fb;fill-opacity:1;fill-rule:nonzero;stroke:none"
         d="m 5051.13,4146.15 c -4.17,0 -8.39,0.35 -12.64,1.08 -40.16,6.93 -67.12,45.12 -60.18,85.29 6.19,35.93 37.38,61.28 72.64,61.28 4.17,0 8.39,-0.36 12.64,-1.09 40.18,-6.93 67.12,-45.12 60.2,-85.28 -6.21,-35.93 -37.4,-61.28 -72.66,-61.28" /><path
         id="path40"
         style="fill:#f7fcfe;fill-opacity:1;fill-rule:nonzero;stroke:none"
         d="m 5422.7,3722.41 -449.35,77.51 v 25.58 c 0,7.62 -1.03,15 -2.96,22.01 l 460.2,-79.38 -7.89,-45.72 m -805.42,186.01 h -53.43 l 1.55,8.95 51.88,-8.95" /><path
         id="path42"
         style="fill:#f7fcfe;fill-opacity:1;fill-rule:nonzero;stroke:none"
         d="m 5408.44,3639.76 -435.09,75.05 v 47.08 l 442.98,-76.41 -7.89,-45.72" /><path
         id="path44"
         style="fill:#f7fcfe;fill-opacity:1;fill-rule:nonzero;stroke:none"
         d="m 5392.97,3550.08 -419.62,72.38 v 47.08 l 427.51,-73.74 -7.89,-45.72" /><path
         id="path46"
         style="fill:#e7f3fb;fill-opacity:1;fill-rule:nonzero;stroke:none"
         d="m 1644.55,2238.53 -213.26,1232.85 1009.38,174.61 v -56.59 h -6.2 l -64.44,0.1 v -0.1 h -125.02 c -41.07,0 -75.94,-26.36 -88.7,-63.08 l -642.5,-111.14 18.04,-104.33 619.26,107.12 v -80.87 l -607.29,-105.05 10.74,-62.09 596.55,103.2 v -42.36 l -589.43,-101.96 10.74,-62.09 578.69,100.11 v -42.35 l -571.58,-98.87 10.74,-62.09 560.84,97.02 v -47.33 l -97.85,-16.92 25.5,-147.41 c -38.89,-6.68 -73.51,-33.17 -42.81,-75.39 15.77,-21.69 29.12,-54.66 39.26,-85.44 -1.7,-4.91 -2.37,-10.25 -1.8,-15.75 1.09,-10.31 6.36,-19.17 13.96,-25.05 6.16,-22.8 9.5,-38.88 9.5,-38.88 0.25,0.37 0.51,0.76 0.76,1.14 2.34,-13.83 5.42,-27.38 9.31,-40.32 l -434.94,-75.23 7.63,-44.1 444.36,76.87 c 5.17,-9.83 11.02,-18.9 17.6,-27.04 l -456.91,-79.04 7.63,-44.1 458.8,79.37 v -30.08 l -453.75,-78.49 7.63,-44.1 337.41,58.37 c -24.49,-15.85 -47.94,-37.16 -66.57,-65.81 l -331.28,-57.31 m 334.36,744.92 -379.26,-65.61 65.6,-379.25 379.26,65.6 -65.6,379.26" /><path
         id="path48"
         style="fill:#e0edf7;fill-opacity:1;fill-rule:nonzero;stroke:none"
         d="m 1431.29,3471.38 -12.3,71.08 c -0.54,3.11 -0.8,6.2 -0.8,9.24 -0.02,25.86 18.56,48.76 44.94,53.33 l 977.54,169.1 V 3645.99 L 1431.29,3471.38 m 85.88,99.93 c -1.61,0 -3.24,-0.14 -4.88,-0.42 -15.49,-2.68 -25.88,-17.41 -23.2,-32.9 2.4,-13.84 14.42,-23.61 28.01,-23.61 1.61,0 3.25,0.14 4.89,0.42 15.49,2.68 25.87,17.41 23.19,32.9 -2.4,13.84 -14.42,23.61 -28.01,23.61 m 82.45,14.27 c -1.61,0 -3.24,-0.14 -4.88,-0.43 -15.49,-2.68 -25.88,-17.4 -23.2,-32.89 2.4,-13.85 14.42,-23.62 28.01,-23.62 1.61,0 3.25,0.14 4.89,0.42 15.49,2.68 25.87,17.41 23.19,32.9 -2.39,13.85 -14.42,23.62 -28.01,23.62 m 82.46,14.26 c -1.62,0 -3.25,-0.14 -4.89,-0.42 -15.49,-2.68 -25.87,-17.41 -23.19,-32.9 2.39,-13.85 14.42,-23.61 28,-23.61 1.61,0 3.25,0.13 4.89,0.42 15.49,2.68 25.87,17.4 23.2,32.89 -2.4,13.85 -14.42,23.62 -28.01,23.62" /><path
         id="path50"
         style="fill:#f7fcfe;fill-opacity:1;fill-rule:nonzero;stroke:none"
         d="m 1517.1,3514.38 c -13.59,0 -25.61,9.77 -28.01,23.61 -2.68,15.49 7.71,30.22 23.2,32.9 1.64,0.28 3.27,0.42 4.88,0.42 13.59,0 25.61,-9.77 28.01,-23.61 2.68,-15.49 -7.7,-30.22 -23.19,-32.9 -1.64,-0.28 -3.28,-0.42 -4.89,-0.42" /><path
         id="path52"
         style="fill:#f7fcfe;fill-opacity:1;fill-rule:nonzero;stroke:none"
         d="m 1599.55,3528.64 c -13.59,0 -25.61,9.77 -28.01,23.62 -2.68,15.49 7.71,30.21 23.2,32.89 1.64,0.29 3.27,0.43 4.88,0.43 13.59,0 25.62,-9.77 28.01,-23.62 2.68,-15.49 -7.7,-30.22 -23.19,-32.9 -1.64,-0.28 -3.28,-0.42 -4.89,-0.42" /><path
         id="path54"
         style="fill:#f7fcfe;fill-opacity:1;fill-rule:nonzero;stroke:none"
         d="m 1682,3542.91 c -13.58,0 -25.61,9.76 -28,23.61 -2.68,15.49 7.7,30.22 23.19,32.9 1.64,0.28 3.27,0.42 4.89,0.42 13.59,0 25.61,-9.77 28.01,-23.62 2.67,-15.49 -7.71,-30.21 -23.2,-32.89 -1.64,-0.29 -3.28,-0.42 -4.89,-0.42" /><path
         id="path56"
         style="fill:#f7fcfe;fill-opacity:1;fill-rule:nonzero;stroke:none"
         d="m 1531.85,3310.85 -18.04,104.33 642.5,111.14 c -3.37,-9.68 -5.2,-20.09 -5.2,-30.92 v -77.43 l -619.26,-107.12" /><path
         id="path58"
         style="fill:#f7fcfe;fill-opacity:1;fill-rule:nonzero;stroke:none"
         d="m 1554.56,3169.96 -10.74,62.09 607.29,105.05 v -63.94 l -596.55,-103.2" /><path
         id="path60"
         style="fill:#f7fcfe;fill-opacity:1;fill-rule:nonzero;stroke:none"
         d="m 1572.42,3066.75 -10.74,62.09 589.43,101.96 v -63.94 l -578.69,-100.11" /><path
         id="path62"
         style="fill:#f7fcfe;fill-opacity:1;fill-rule:nonzero;stroke:none"
         d="m 1590.27,2963.55 -10.74,62.09 571.58,98.87 v -63.94 l -560.84,-97.02" /><path
         id="path64"
         style="fill:#f7fcfe;fill-opacity:1;fill-rule:nonzero;stroke:none"
         d="m 1679.63,2449.89 -7.63,44.1 434.94,75.23 c 4.55,-15.13 10.2,-29.44 17.05,-42.46 l -444.36,-76.87" /><path
         id="path66"
         style="fill:#f7fcfe;fill-opacity:1;fill-rule:nonzero;stroke:none"
         d="m 1692.31,2376.58 -7.63,44.1 456.91,79.04 c 3.02,-3.74 6.19,-7.27 9.52,-10.59 v -33.18 l -458.8,-79.37" /><path
         id="path68"
         style="fill:#f7fcfe;fill-opacity:1;fill-rule:nonzero;stroke:none"
         d="m 1704.99,2303.28 -7.63,44.1 453.75,78.49 v -22.67 c -29,-5.21 -70.15,-16.61 -108.71,-41.55 l -337.41,-58.37" /><path
         id="path70"
         style="fill:#f7fcfe;fill-opacity:1;fill-rule:nonzero;stroke:none"
         d="m 1665.25,2538.59 -65.6,379.25 379.26,65.61 65.6,-379.26 -379.26,-65.6" /><path
         id="path72"
         style="fill:#f7fcfe;fill-opacity:1;fill-rule:nonzero;stroke:none"
         d="m 2078.76,2848.91 -25.5,147.41 97.85,16.92 v -105.56 c -32.12,-26.52 -47.62,-57.24 -47.62,-57.24 -1.77,0.09 -3.56,0.13 -5.36,0.13 -6.39,0 -12.94,-0.56 -19.37,-1.66" /><path
         id="path74"
         style="fill:#d6e3f3;fill-opacity:1;fill-rule:nonzero;stroke:none"
         d="m 431.66,1444.63 -0.051,0.04 c -0.32,0.27 -1.699,1.55 -4.039,3.73 -47.297,44 -486.8356,460.1 -290.472,538.17 C 344.453,2069.04 434,1458.76 431.66,1444.63" /><path
         id="path76"
         style="fill:#ffffff;fill-opacity:1;fill-rule:nonzero;stroke:none"
         d="m 431.609,1444.67 c -0.32,0.27 -1.699,1.55 -4.039,3.73 -28.273,80.83 -86.886,189.4 -137.05,275.7 -70.95,122.07 -140.883,227.08 -141.575,228.13 l 2.235,1.5 c 0.691,-1.07 70.625,-106.18 141.625,-228.25 51.172,-88 111.062,-199.23 138.804,-280.81" /><path
         id="path78"
         style="fill:#d6e3f3;fill-opacity:1;fill-rule:nonzero;stroke:none"
         d="m 434.707,1493.33 0.055,0.04 c 0.316,0.16 1.715,0.97 4.086,2.36 47.949,28.03 494.89,294.51 344.82,396.9 -158.461,108.17 -348.266,-387 -348.961,-399.3" /><path
         id="path80"
         style="fill:#ffffff;fill-opacity:1;fill-rule:nonzero;stroke:none"
         d="m 434.762,1493.37 c 0.316,0.16 1.715,0.97 4.086,2.36 38.906,62.5 108.488,142.57 166.789,205.54 82.457,89.08 160.863,164.03 161.64,164.79 l -1.593,1.67 c -0.782,-0.76 -79.204,-75.81 -161.704,-164.87 -59.472,-64.21 -130.613,-146.27 -169.218,-209.49" /><path
         id="path82"
         style="fill:#e2eefa;fill-opacity:1;fill-rule:nonzero;stroke:none"
         d="m 415.746,1469.17 0.035,0.07 c 0.227,0.32 1.164,1.86 2.746,4.48 31.993,52.96 327.442,551.74 126.071,572.02 -212.664,21.45 -134.719,-564.16 -128.852,-576.57" /><path
         id="path84"
         style="fill:#ffffff;fill-opacity:1;fill-rule:nonzero;stroke:none"
         d="m 415.781,1469.24 c 0.227,0.32 1.164,1.86 2.746,4.48 4.789,81.88 30.239,197.28 53.758,289.95 33.254,131.08 70.067,246.18 70.422,247.33 l -2.445,0.79 c -0.36,-1.16 -37.141,-116.35 -70.446,-247.45 -24,-94.5 -49.925,-212.68 -54.035,-295.1" /><path
         id="path86"
         style="fill:#e2eefa;fill-opacity:1;fill-rule:nonzero;stroke:none"
         d="m 627.285,1537.69 -0.047,-0.58 -2.5,-37.73 -21.047,-314.55 -2.972,-44.75 H 293.184 l -2.977,44.75 -21.047,314.55 -2.496,37.73 -0.051,0.58 h 360.672" /><path
         id="path88"
         style="fill:#d6e3f3;fill-opacity:1;fill-rule:nonzero;stroke:none"
         d="m 603.691,1184.83 -2.972,-44.75 H 293.184 l -2.977,44.75 h 313.484" /><path
         id="path90"
         style="fill:#f1f8fd;fill-opacity:1;fill-rule:nonzero;stroke:none"
         d="m 627.238,1537.11 -2.5,-37.73 H 269.16 l -2.496,37.73 h 360.574" /><path
         id="path92"
         style="fill:#d6e3f3;fill-opacity:1;fill-rule:nonzero;stroke:none"
         d="m 7075.84,1471.23 -0.06,0.05 c -0.31,0.27 -1.7,1.54 -4.04,3.72 -47.3,44 -486.83,460.1 -290.47,538.17 207.36,82.48 296.9,-527.81 294.57,-541.94" /><path
         id="path94"
         style="fill:#ffffff;fill-opacity:1;fill-rule:nonzero;stroke:none"
         d="m 7075.78,1471.28 c -0.31,0.27 -1.7,1.54 -4.04,3.72 -28.27,80.83 -86.89,189.4 -137.06,275.7 -70.93,122.07 -140.88,227.08 -141.57,228.14 l 2.24,1.49 c 0.69,-1.07 70.62,-106.18 141.62,-228.24 51.18,-88.01 111.07,-199.24 138.81,-280.81" /><path
         id="path96"
         style="fill:#d6e3f3;fill-opacity:1;fill-rule:nonzero;stroke:none"
         d="m 7078.87,1519.94 0.06,0.03 c 0.31,0.16 1.72,0.97 4.09,2.36 47.94,28.03 494.89,294.51 344.82,396.91 -158.47,108.16 -348.26,-387.01 -348.97,-399.3" /><path
         id="path98"
         style="fill:#ffffff;fill-opacity:1;fill-rule:nonzero;stroke:none"
         d="m 7078.93,1519.97 c 0.31,0.16 1.72,0.97 4.09,2.36 38.91,62.5 108.48,142.57 166.79,205.54 82.45,89.08 160.86,164.03 161.64,164.79 l -1.6,1.67 c -0.77,-0.76 -79.2,-75.81 -161.7,-164.87 -59.47,-64.21 -130.61,-146.27 -169.22,-209.49" /><path
         id="path100"
         style="fill:#e2eefa;fill-opacity:1;fill-rule:nonzero;stroke:none"
         d="m 7059.92,1495.78 0.04,0.06 c 0.22,0.33 1.16,1.86 2.73,4.49 32,52.96 327.44,551.73 126.08,572.01 -212.67,21.46 -134.72,-564.16 -128.85,-576.56" /><path
         id="path102"
         style="fill:#ffffff;fill-opacity:1;fill-rule:nonzero;stroke:none"
         d="m 7059.96,1495.84 c 0.22,0.33 1.16,1.86 2.73,4.49 4.8,81.87 30.25,197.27 53.76,289.95 33.26,131.07 70.07,246.17 70.42,247.33 l -2.44,0.79 c -0.36,-1.17 -37.14,-116.36 -70.44,-247.46 -24,-94.5 -49.93,-212.68 -54.03,-295.1" /><path
         id="path104"
         style="fill:#e2eefa;fill-opacity:1;fill-rule:nonzero;stroke:none"
         d="m 7271.46,1564.29 -0.06,-0.58 -2.49,-37.73 -21.04,-314.55 -2.98,-44.74 h -307.54 l -2.97,44.74 -21.04,314.55 -2.5,37.73 -0.05,0.58 h 360.67" /><path
         id="path106"
         style="fill:#d6e3f3;fill-opacity:1;fill-rule:nonzero;stroke:none"
         d="m 7247.87,1211.43 -2.98,-44.74 h -307.54 l -2.97,44.74 h 313.49" /><path
         id="path108"
         style="fill:#f1f8fd;fill-opacity:1;fill-rule:nonzero;stroke:none"
         d="m 7271.4,1563.71 -2.49,-37.73 h -355.57 l -2.5,37.73 h 360.56" /><path
         id="path110"
         style="fill:#ffffff;fill-opacity:1;fill-rule:nonzero;stroke:none"
         d="m 4945.67,3266.89 c 0,-48.81 -39.56,-88.38 -88.37,-88.38 -48.81,0 -88.38,39.57 -88.38,88.38 0,48.81 39.57,88.38 88.38,88.38 48.81,0 88.37,-39.57 88.37,-88.38" /><path
         id="path112"
         style="fill:#769bd7;fill-opacity:1;fill-rule:nonzero;stroke:none"
         d="m 4191.36,1150.89 h -983.75 c 232.52,87.22 265.1,429.11 265.1,429.11 0,-17.46 481.41,3.46 481.41,3.46 0.05,-4.24 0.15,-8.44 0.31,-12.63 3.2,-80.73 26.54,-151.33 57.43,-210.45 70.19,-134.44 179.5,-209.49 179.5,-209.49" /><g
         id="g114"><g
           clip-path="url(#clipPath120)"
           id="g116"><path
             id="path122"
             style="fill:#5070c0;fill-opacity:1;fill-rule:nonzero;stroke:none"
             d="m 3485.31,1445.26 h 319.98 v 75.3398 h -319.98 z" /></g></g><path
         id="path124"
         style="fill:#769bd7;fill-opacity:1;fill-rule:nonzero;stroke:none"
         d="M 5247.91,3495.4 V 1614.61 c 0,-51.91 -42.1,-94.01 -94,-94.01 h -2908.9 c -51.9,0 -93.9,42.1 -93.9,94.01 V 3495.4 c 0,51.9 42,94 93.9,94 h 2908.9 c 51.9,0 94,-42.1 94,-94" /><path
         id="path126"
         style="fill:#d0e4f6;fill-opacity:1;fill-rule:nonzero;stroke:none"
         d="m 2270.93,1798.36 h 2857.1 v 1642.77 h -2857.1 z" /><path
         id="path128"
         style="fill:#5070c0;fill-opacity:1;fill-rule:nonzero;stroke:none"
         d="m 3699.48,1575.35 c -48.8,0 -88.37,39.57 -88.37,88.38 0,48.81 39.57,88.37 88.37,88.37 48.81,0 88.38,-39.56 88.38,-88.37 0,-48.81 -39.57,-88.38 -88.38,-88.38" /><path
         id="path130"
         style="fill:#d7eaf9;fill-opacity:1;fill-rule:nonzero;stroke:none"
         d="m 2434.47,3589.4 h -64.44 v 0.1 l 64.44,-0.1" /><path
         id="path132"
         style="fill:#5070c0;fill-opacity:1;fill-rule:nonzero;stroke:none"
         d="m 2440.67,3441.13 h -64.78 l -5.86,148.27 h 64.44 l 6.2,-0.01 v -148.26" /><path
         id="path134"
         style="fill:#b8d1ef;fill-opacity:1;fill-rule:nonzero;stroke:none"
         d="m 2440.67,2067.63 c -1.34,0.22 -2.69,0.33 -4.04,0.35 l -3.24,153.55 c 0,0 13.28,51.27 -13.28,100.02 l -15.45,391.2 c 67.96,130.72 -5.2,148.44 -5.2,148.44 -0.25,4.72 -0.61,9.25 -1.2,13.59 l -22.37,566.35 h 64.78 v -1373.5" /><path
         id="path136"
         style="fill:#d7eaf9;fill-opacity:1;fill-rule:nonzero;stroke:none"
         d="m 5043.55,3589.4 h -64.44 l 64.44,0.1 v -0.1" /><path
         id="path138"
         style="fill:#5070c0;fill-opacity:1;fill-rule:nonzero;stroke:none"
         d="m 5037.69,3441.13 h -64.34 v 148.26 l 5.76,0.01 h 64.44 l -5.86,-148.27" /><path
         id="path140"
         style="fill:#b8d1ef;fill-opacity:1;fill-rule:nonzero;stroke:none"
         d="m 4973.35,1812.12 v 380.59 l 14.87,-4.14 -14.87,-376.45 m 14.25,1093.62 -14.25,3.96 v 531.43 h 64.34 l -20.7,-524.01 c -10.06,-4.06 -19.88,-7.87 -29.39,-11.38" /><path
         id="path142"
         style="fill:#c3d2ef;fill-opacity:1;fill-rule:nonzero;stroke:none"
         d="M 4973.35,3825.5 V 1798.04 H 2440.67 V 3825.5 c 0,45.79 37.13,82.92 82.98,82.92 h 2366.77 c 45.79,0 82.93,-37.13 82.93,-82.92" /><path
         id="path144"
         style="fill:#9eb3e2;fill-opacity:1;fill-rule:nonzero;stroke:none"
         d="M 4973.35,3825.5 V 3714.98 H 2440.67 v 110.52 c 0,45.79 37.13,82.92 82.98,82.92 h 2366.77 c 45.79,0 82.93,-37.13 82.93,-82.92" /><path
         id="path146"
         style="fill:#ffffff;fill-opacity:1;fill-rule:nonzero;stroke:none"
         d="m 2632.55,3800.45 c 0,-24.09 -19.52,-43.61 -43.6,-43.61 -24.09,0 -43.61,19.52 -43.61,43.61 0,24.08 19.52,43.6 43.61,43.6 24.08,0 43.6,-19.52 43.6,-43.6" /><path
         id="path148"
         style="fill:#ffffff;fill-opacity:1;fill-rule:nonzero;stroke:none"
         d="m 2760.75,3800.45 c 0,-24.09 -19.52,-43.61 -43.6,-43.61 -24.08,0 -43.61,19.52 -43.61,43.61 0,24.08 19.53,43.6 43.61,43.6 24.08,0 43.6,-19.52 43.6,-43.6" /><path
         id="path150"
         style="fill:#ffffff;fill-opacity:1;fill-rule:nonzero;stroke:none"
         d="m 2888.96,3800.45 c 0,-24.09 -19.53,-43.61 -43.61,-43.61 -24.08,0 -43.61,19.52 -43.61,43.61 0,24.08 19.53,43.6 43.61,43.6 24.08,0 43.61,-19.52 43.61,-43.6" /><path
         id="path152"
         style="fill:#ffffff;fill-opacity:1;fill-rule:nonzero;stroke:none"
         d="M 4643.69,3446.36 H 2550.57 v 162.22 h 2093.12 v -162.22" /><path
         id="path154"
         style="fill:#28346f;fill-opacity:1;fill-rule:nonzero;stroke:none"
         d="m 4775.05,3558.55 c -6.75,0 -13.51,-2.64 -18.55,-7.9 -4.76,-4.95 -7.29,-11.46 -7.15,-18.33 0.15,-6.86 2.95,-13.26 7.91,-18.02 4.96,-4.75 11.46,-7.23 18.33,-7.14 6.87,0.14 13.26,2.95 18.02,7.91 4.75,4.95 7.28,11.47 7.14,18.33 -0.14,6.86 -2.95,13.26 -7.9,18.01 -4.98,4.77 -11.39,7.14 -17.8,7.14 z m -0.01,-61.89 c -9.39,0 -18.25,3.56 -25.03,10.08 -6.99,6.68 -10.94,15.69 -11.15,25.36 -0.2,9.67 3.38,18.83 10.07,25.81 6.69,6.98 15.7,10.93 25.36,11.13 9.67,0.19 18.84,-3.36 25.81,-10.06 6.99,-6.69 10.94,-15.7 11.14,-25.36 0.2,-9.67 -3.37,-18.83 -10.06,-25.82 -6.69,-6.97 -15.7,-10.93 -25.36,-11.13 l -0.78,-0.01" /><path
         id="path156"
         style="fill:#28346f;fill-opacity:1;fill-rule:nonzero;stroke:none"
         d="m 4841.13,3466.33 c -1.31,0 -2.62,0.48 -3.63,1.46 l -41.61,39.91 c -2.1,2 -2.17,5.32 -0.16,7.41 2,2.09 5.32,2.16 7.41,0.16 l 41.61,-39.91 c 2.1,-2.01 2.17,-5.32 0.16,-7.42 -1.03,-1.07 -2.4,-1.61 -3.78,-1.61" /><path
         id="path158"
         style="fill:#2553a7;fill-opacity:1;fill-rule:nonzero;stroke:none"
         d="M 3680.61,2243.19 H 2550.57 V 3336.47 H 3680.61 V 2243.19" /><path
         id="path160"
         style="fill:#ffffff;fill-opacity:1;fill-rule:nonzero;stroke:none"
         d="M 3630.73,3189.95 H 2602.9 v 78.5 h 1027.83 v -78.5" /><path
         id="path162"
         style="fill:#ffffff;fill-opacity:1;fill-rule:nonzero;stroke:none"
         d="M 3630.73,3059.72 H 2602.9 v 78.49 h 1027.83 v -78.49" /><path
         id="path164"
         style="fill:#ffffff;fill-opacity:1;fill-rule:nonzero;stroke:none"
         d="M 3630.73,2927.15 H 2602.9 v 78.5 h 1027.83 v -78.5" /><path
         id="path166"
         style="fill:#ffffff;fill-opacity:1;fill-rule:nonzero;stroke:none"
         d="m 3630.73,2772.17 h -442.34 v 49.75 h 442.34 v -49.75" /><path
         id="path168"
         style="fill:#ffffff;fill-opacity:1;fill-rule:nonzero;stroke:none"
         d="m 3630.73,2687.7 h -442.34 v 49.74 h 442.34 v -49.74" /><path
         id="path170"
         style="fill:#ffffff;fill-opacity:1;fill-rule:nonzero;stroke:none"
         d="m 3630.73,2603.22 h -442.34 v 49.75 h 442.34 v -49.75" /><path
         id="path172"
         style="fill:#ffffff;fill-opacity:1;fill-rule:nonzero;stroke:none"
         d="m 3630.73,2518.75 h -442.34 v 49.74 h 442.34 v -49.74" /><path
         id="path174"
         style="fill:#ffffff;fill-opacity:1;fill-rule:nonzero;stroke:none"
         d="m 3630.73,2434.27 h -442.34 v 49.75 h 442.34 v -49.75" /><path
         id="path176"
         style="fill:#ffffff;fill-opacity:1;fill-rule:nonzero;stroke:none"
         d="m 3630.73,2349.8 h -442.34 v 49.75 h 442.34 v -49.75" /><path
         id="path178"
         style="fill:#ffffff;fill-opacity:1;fill-rule:nonzero;stroke:none"
         d="M 3157.22,2330.34 H 2602.9 v 542.74 h 554.32 v -542.74" /><path
         id="path180"
         style="fill:#ffffff;fill-opacity:1;fill-rule:nonzero;stroke:none"
         d="M 4882.65,3227.73 H 3738.41 v 96.53 h 1144.24 v -96.53" /><path
         id="path182"
         style="fill:#ffffff;fill-opacity:1;fill-rule:nonzero;stroke:none"
         d="M 4882.65,3067.26 H 3738.41 v 96.53 h 1144.24 v -96.53" /><path
         id="path184"
         style="fill:#ffffff;fill-opacity:1;fill-rule:nonzero;stroke:none"
         d="m 3738.41,2906.78 h 1144.24 v 96.5391 H 3738.41 Z" /><path
         id="path186"
         style="fill:#ffffff;fill-opacity:1;fill-rule:nonzero;stroke:none"
         d="M 4872.18,2107.98 H 2548.83 v 68.56 h 2323.35 v -68.56" /><path
         id="path188"
         style="fill:#ffffff;fill-opacity:1;fill-rule:nonzero;stroke:none"
         d="M 4872.18,1993.99 H 2548.83 v 68.57 h 2323.35 v -68.57" /><path
         id="path190"
         style="fill:#ffffff;fill-opacity:1;fill-rule:nonzero;stroke:none"
         d="M 4872.18,1880.02 H 2548.83 v 68.56 h 2323.35 v -68.56" /><path
         id="path192"
         style="fill:#ffffff;fill-opacity:1;fill-rule:nonzero;stroke:none"
         d="m 4341.93,2716.35 h -613.05 v 49.75 h 613.05 v -49.75" /><path
         id="path194"
         style="fill:#ffffff;fill-opacity:1;fill-rule:nonzero;stroke:none"
         d="m 4341.93,2631.88 h -613.05 v 49.74 h 613.05 v -49.74" /><path
         id="path196"
         style="fill:#ffffff;fill-opacity:1;fill-rule:nonzero;stroke:none"
         d="m 4341.93,2547.41 h -613.05 v 49.74 h 613.05 v -49.74" /><path
         id="path198"
         style="fill:#ffffff;fill-opacity:1;fill-rule:nonzero;stroke:none"
         d="m 4341.93,2462.94 h -613.05 v 49.74 h 613.05 v -49.74" /><path
         id="path200"
         style="fill:#ffffff;fill-opacity:1;fill-rule:nonzero;stroke:none"
         d="m 4341.93,2378.45 h -613.05 v 49.75 h 613.05 v -49.75" /><path
         id="path202"
         style="fill:#ffffff;fill-opacity:1;fill-rule:nonzero;stroke:none"
         d="m 4341.93,2293.98 h -613.05 v 49.75 h 613.05 v -49.75" /><path
         id="path204"
         style="fill:#dff1f9;fill-opacity:1;fill-rule:nonzero;stroke:none"
         d="m 5282.94,2168.49 c -1.54,6.37 1.8,12.53 5.17,16.82 -1.76,-5.59 -3.48,-11.19 -5.17,-16.82 m -4.71,14.8 c -3.87,0 -8.3,1.35 -13.12,5.18 -11.99,9.51 1.31,20.4 9.21,25.5 -3.29,-1.6 -7.85,-3.24 -12.75,-3.24 -4.51,0 -9.31,1.4 -13.66,5.52 v 24.48 c 2.53,2.52 6.16,4.93 11.31,7.04 -0.73,-0.2 -3.92,-1.15 -7.9,-1.15 -1.09,0 -2.24,0.07 -3.41,0.25 v 31.4 c 4.83,2.93 11.34,5.5 20.1,7.1 0,0 -9.63,0.05 -20.1,1.73 v 32.97 5.26 c 9.36,2.71 17.6,3.24 17.6,3.24 0,0 11.03,9.57 33.81,9.57 11.15,0 25.11,-2.29 41.98,-9.12 -18.85,-44.76 -37.04,-92.59 -52.8,-142.47 -2.63,-1.71 -6.13,-3.26 -10.27,-3.26" /><path
         id="path206"
         style="fill:#5677c4;fill-opacity:1;fill-rule:nonzero;stroke:none"
         d="m 5247.91,2216.25 c -0.96,0.91 -1.89,1.94 -2.8,3.12 0,0 -7.18,11.45 2.8,21.36 v -24.48 m 0,30.62 c -5.18,0.78 -10.83,3.62 -13.99,11.51 0,0 0.06,11.45 13.99,19.89 v -31.4 m 0,40.23 c -2.89,0.47 -5.84,1.06 -8.67,1.8 l 8.67,31.17 v -32.97" /><path
         id="path208"
         style="fill:#1e2a52;fill-opacity:1;fill-rule:nonzero;stroke:none"
         d="m 5373.54,1084.85 -329.74,16.9 0.89,17.6 329.76,-16.9 -0.91,-17.6" /><path
         id="path210"
         style="fill:#f2ab8c;fill-opacity:1;fill-rule:nonzero;stroke:none"
         d="m 5232.75,1459.74 -8.04,-202.55 c 0,0 155.18,-25.59 157.3,-18.65 2.12,6.95 30.55,217.28 30.55,217.28 l -179.81,3.92" /><path
         id="path212"
         style="fill:#274496;fill-opacity:1;fill-rule:nonzero;stroke:none"
         d="m 5214.59,1258.5 -6.09,-65.18 c 0,0 -160.77,8.24 -163.81,-73.97 l 329.76,-16.9 16.08,145.47 -175.94,10.58" /><path
         id="path214"
         style="fill:#ffffff;fill-opacity:1;fill-rule:nonzero;stroke:none"
         d="m 5163.28,1190.8 c 13.01,-7.68 22.25,-21.92 23.96,-36.93 0.31,-2.75 2.79,-4.71 5.54,-4.4 2.74,0.32 4.71,2.8 4.39,5.54 -2.14,18.25 -13,34.99 -28.78,44.39 -2.38,1.41 -5.44,0.63 -6.85,-1.74 -1.41,-2.38 -0.63,-5.45 1.74,-6.86" /><path
         id="path216"
         style="fill:#ffffff;fill-opacity:1;fill-rule:nonzero;stroke:none"
         d="m 5133.01,1189.22 c 13.01,-7.69 22.23,-21.92 23.94,-36.94 0.32,-2.74 2.8,-4.71 5.54,-4.39 2.75,0.32 4.71,2.8 4.4,5.54 -2.14,18.25 -12.99,34.99 -28.77,44.39 -2.38,1.41 -5.45,0.63 -6.86,-1.75 -1.41,-2.37 -0.62,-5.44 1.75,-6.85" /><path
         id="path218"
         style="fill:#ffffff;fill-opacity:1;fill-rule:nonzero;stroke:none"
         d="m 5104.05,1182.87 c 13,-7.69 22.24,-21.94 23.95,-36.94 0.32,-2.75 2.8,-4.71 5.54,-4.4 2.74,0.32 4.71,2.8 4.39,5.55 -2.14,18.23 -13,34.98 -28.77,44.38 -2.37,1.41 -5.44,0.63 -6.85,-1.74 -1.41,-2.38 -0.63,-5.44 1.74,-6.85" /><path
         id="path220"
         style="fill:#274391;fill-opacity:1;fill-rule:nonzero;stroke:none"
         d="m 5852.61,2582.46 c 0,0 -136.2,-276 -231.9,-610.4 -1,-3.29 -1.9,-6.7 -2.9,-10.1 -6.91,-24.5 -14.1,-48.1 -21.51,-71.2 -62.69,-196.09 -139.69,-347.6 -182.39,-558.4 l -212.8,15.5 c 0,0 -5.9,354.5 48.7,680.6 38.3,228.4 156.3,438.8 209.8,547.2 l 393,6.8" /><path
         id="path222"
         style="fill:#243068;fill-opacity:1;fill-rule:nonzero;stroke:none"
         d="m 5596.3,1890.76 c -18.99,147.7 -35.89,320.9 -35.89,320.9 l 60.3,-239.6 c -1,-3.29 -1.9,-6.7 -2.9,-10.1 -6.91,-24.5 -14.1,-48.1 -21.51,-71.2 v 0" /><path
         id="path224"
         style="fill:#1e2a52;fill-opacity:1;fill-rule:nonzero;stroke:none"
         d="m 6021.54,1074.95 -325.42,-55.9 -2.98,17.37 325.41,55.89 2.99,-17.36" /><path
         id="path226"
         style="fill:#f2ab8c;fill-opacity:1;fill-rule:nonzero;stroke:none"
         d="m 5801.88,1409.79 36.63,-199.37 c 0,0 157,9.09 157.55,16.33 0.55,7.25 -17.89,218.69 -17.89,218.69 l -176.29,-35.65" /><path
         id="path228"
         style="fill:#274496;fill-opacity:1;fill-rule:nonzero;stroke:none"
         d="m 5828.34,1209.47 8.38,-64.93 c 0,0 -158.67,-27.25 -143.58,-108.12 l 325.41,55.89 -16.23,145.45 -173.98,-28.29" /><path
         id="path230"
         style="fill:#ffffff;fill-opacity:1;fill-rule:nonzero;stroke:none"
         d="m 5793.16,1132.17 c 14.36,-4.65 26.5,-16.52 31.46,-30.79 0.91,-2.6 3.77,-3.98 6.37,-3.07 2.61,0.92 3.98,3.77 3.07,6.37 -6.09,17.34 -20.36,31.29 -37.81,37 -2.63,0.85 -5.45,-0.59 -6.3,-3.21 -0.86,-2.63 0.58,-5.45 3.21,-6.3" /><path
         id="path232"
         style="fill:#ffffff;fill-opacity:1;fill-rule:nonzero;stroke:none"
         d="m 5763.96,1123.97 c 14.37,-4.64 26.51,-16.51 31.47,-30.78 0.91,-2.61 3.77,-3.98 6.37,-3.07 2.61,0.91 3.98,3.76 3.07,6.37 -6.09,17.33 -20.36,31.29 -37.82,36.99 -2.63,0.86 -5.45,-0.58 -6.3,-3.21 -0.85,-2.62 0.58,-5.44 3.21,-6.3" /><path
         id="path234"
         style="fill:#ffffff;fill-opacity:1;fill-rule:nonzero;stroke:none"
         d="m 5737.1,1111.41 c 14.38,-4.64 26.52,-16.51 31.48,-30.78 0.91,-2.61 3.76,-3.98 6.37,-3.07 2.6,0.91 3.98,3.77 3.07,6.37 -6.1,17.33 -20.37,31.29 -37.83,36.99 -2.62,0.86 -5.44,-0.58 -6.3,-3.21 -0.85,-2.62 0.59,-5.44 3.21,-6.3" /><path
         id="path236"
         style="fill:#2553a7;fill-opacity:1;fill-rule:nonzero;stroke:none"
         d="m 5955.14,2585.9 c 0,0 78.94,-747.54 65.64,-1274.62 l -224.48,-28.27 c 0,0 -224.46,739.91 -268.33,1289.22 l 427.17,13.67" /><path
         id="path238"
         style="fill:#f2ab8c;fill-opacity:1;fill-rule:nonzero;stroke:none"
         d="m 5435,3130.01 c 0,0 -320.48,-187.21 -487.01,-237.71 l 64.45,-133.61 c 0,0 380.73,160.15 531.21,290.06 L 5435,3130.01" /><path
         id="path240"
         style="fill:#f68537;fill-opacity:1;fill-rule:nonzero;stroke:none"
         d="m 5747.11,3141.3 c 0,0 -138.32,127.31 -342.15,-7.95 l 102.33,-138.96 239.82,146.91" /><path
         id="path242"
         style="fill:#f68537;fill-opacity:1;fill-rule:nonzero;stroke:none"
         d="m 5971.41,2953.26 c -20.51,-292.2 -15.4,-371.6 -15.4,-371.6 l -496.4,-6 0.7,30.8 2.7,127.5 6.9,326.9 c 0,0 -51.3,197.4 245.99,188 0,0 276.01,-3.4 255.51,-295.6" /><path
         id="path244"
         style="fill:#5677c4;fill-opacity:1;fill-rule:nonzero;stroke:none"
         d="m 5195.31,2130.96 -67.28,18.72 v 660.57 c 22.98,10.65 48.31,22.63 74.94,35.61 l 44.94,-12.5 v -508.03 c -10.47,-3.02 -22.32,-8.74 -25.59,-19.45 -2.79,-9.1 6.19,-14.16 16.92,-16.98 l -43.93,-157.94" /><path
         id="path246"
         style="fill:#bcd6f1;fill-opacity:1;fill-rule:nonzero;stroke:none"
         d="m 5128.03,2149.68 -139.81,38.89 22.64,573.38 1.58,-3.26 c 0,0 47.5,19.98 115.59,51.56 v -660.57" /><path
         id="path248"
         style="fill:#9ebce6;fill-opacity:1;fill-rule:nonzero;stroke:none"
         d="m 4988.22,2188.57 -14.87,4.14 v 647.03 l 37.51,-77.79 -22.64,-573.38 m -14.87,712.04 v 9.09 l 14.25,-3.96 c -4.83,-1.79 -9.59,-3.5 -14.25,-5.13" /><path
         id="path250"
         style="fill:#aabde6;fill-opacity:1;fill-rule:nonzero;stroke:none"
         d="m 4973.35,2192.71 -443.44,123.35 164.21,590.72 h 188.53 v 28.14 l 90.7,-25.22 v -9.09 c -8.78,-3.07 -17.26,-5.85 -25.36,-8.31 l 25.36,-52.56 v -647.03" /><path
         id="path252"
         style="fill:#ffffff;fill-opacity:1;fill-rule:nonzero;stroke:none"
         d="m 4882.65,2906.78 h -188.53 l 20.79,74.78 167.74,-46.64 v -28.14" /><path
         id="path254"
         style="fill:#3e59b1;fill-opacity:1;fill-rule:nonzero;stroke:none"
         d="m 5239.24,2288.9 c -10.73,2.82 -19.71,7.88 -16.92,16.98 3.27,10.71 15.12,16.43 25.59,19.45 v -5.26 l -8.67,-31.17" /><path
         id="path256"
         style="fill:#ea8d69;fill-opacity:1;fill-rule:nonzero;stroke:none"
         d="m 5012.44,2758.69 -1.58,3.26 -37.51,77.79 -25.36,52.56 c 8.1,2.46 16.58,5.24 25.36,8.31 4.66,1.63 9.42,3.34 14.25,5.13 l 215.37,-59.88 c -26.63,-12.98 -51.96,-24.96 -74.94,-35.61 -68.09,-31.58 -115.59,-51.56 -115.59,-51.56" /><path
         id="path258"
         style="fill:#2553a7;fill-opacity:1;fill-rule:nonzero;stroke:none"
         d="m 5356.01,2838.56 -48.9,-175.9 -42.3,-152.1 -93.91,-337.5 -665.39,185.1 185,665.5 665.5,-185.1" /><path
         id="path260"
         style="fill:#ffffff;fill-opacity:1;fill-rule:nonzero;stroke:none"
         d="m 5073.8,2550.18 -196.31,200.05 -75.09,-270.04 z" /><path
         id="path262"
         style="fill:#ffffff;fill-opacity:1;fill-rule:nonzero;stroke:none"
         d="m 5177.87,2529.64 -9.64,2.68 c -30.31,-109.08 -129.44,-180.53 -237.35,-180.53 -21.86,0 -44.08,2.93 -66.18,9.07 -109.08,30.32 -180.53,129.45 -180.53,237.36 0,21.86 2.93,44.08 9.07,66.18 30.32,109.08 129.44,180.53 237.36,180.53 21.85,0 44.07,-2.93 66.18,-9.07 109.07,-30.32 180.53,-129.44 180.53,-237.35 0,-21.86 -2.93,-44.08 -9.08,-66.19 l 9.64,-2.68 9.63,-2.68 c 6.64,23.87 9.81,47.9 9.81,71.55 0.01,116.72 -77.25,223.8 -195.17,256.61 -23.87,6.64 -47.9,9.81 -71.54,9.81 -116.73,0.01 -223.81,-77.25 -256.62,-195.17 -6.64,-23.86 -9.81,-47.9 -9.81,-71.54 -0.01,-116.72 77.25,-223.81 195.17,-256.63 23.86,-6.63 47.89,-9.8 71.54,-9.8 116.72,-0.01 223.81,77.25 256.62,195.17 l -9.63,2.68" /><path
         id="path264"
         style="fill:#f36429;fill-opacity:1;fill-rule:nonzero;stroke:none"
         d="m 5460.31,2606.46 2.7,127.5 c 114.3,60.1 228.8,132.7 272.5,161 l -13.81,19.1 213.21,183.4 c 0,0 78.89,-170.6 -112.1,-323.3 l -10,13.7 c -99.1,-67.6 -245.6,-135.7 -352.5,-181.4" /><path
         id="path266"
         style="fill:#f2ab8c;fill-opacity:1;fill-rule:nonzero;stroke:none"
         d="m 5324.82,2575.75 c 0,0 -24.29,-31.61 -65.47,-42.3 0,0 -22.92,-35.79 -36.75,-21.78 -13.82,14.02 6.19,30.34 6.19,30.34 0,0 -12.14,-15.81 -28.52,-2.76 -16.37,13.05 14.28,28.49 14.28,28.49 0,0 -20.58,-15.42 -34.3,2.44 0,0 -11.34,18.09 14.28,28.48 0,0 -18.55,-6.59 -25.48,10.49 0,0 0.15,20.88 34.09,27.04 0,0 -51.84,0.27 -45.63,20.54 6.19,20.26 43.14,22.63 43.14,22.63 0,0 28.09,24.54 87.26,-4.52 l 36.91,-99.09" /><path
         id="path268"
         style="fill:#f2ab8c;fill-opacity:1;fill-rule:nonzero;stroke:none"
         d="m 5755.77,2932.09 c 0,0 -309.16,-205.13 -476.14,-254.07 l 45.19,-102.27 c 0,0 387.16,145.56 538.84,274.07 l -107.89,82.27" /><path
         id="path270"
         style="fill:#f68537;fill-opacity:1;fill-rule:nonzero;stroke:none"
         d="m 5936.55,3122.43 c 0,0 78.95,-170.6 -112.12,-323.36 l -101.04,139.91 213.16,183.45" /><path
         id="path272"
         style="fill:#28346f;fill-opacity:1;fill-rule:nonzero;stroke:none"
         d="m 5523.02,3592.36 c -7.82,10.96 -15.73,22.09 -20.4,34.72 -4.67,12.62 -5.8,27.15 -0.04,39.32 5.76,12.17 19.49,20.99 32.69,18.34 -10.25,15.37 -8.43,37.68 4.15,51.2 12.59,13.52 34.72,16.92 50.77,7.81 0.99,18.45 15.18,35.43 33.17,39.68 17.98,4.24 38.27,-4.6 47.4,-20.67 10.27,16.47 31.63,25.15 50.48,20.51 18.84,-4.63 33.74,-22.23 35.19,-41.58 18.77,16.46 48.85,18.23 69.43,4.11 20.57,-14.13 29.72,-42.84 21.11,-66.26 28.78,10 64.07,-9.53 70.89,-39.22 6.8,-29.69 -16.45,-62.65 -46.7,-66.19 13.72,-5.69 19.01,-23.46 15.37,-37.86 -3.64,-14.4 -13.89,-26.08 -24.05,-36.92 -13.61,-14.52 -28.09,-28.94 -46.21,-37.18 -19.83,-9.02 -42.33,-9.87 -64.1,-9.12 -48.78,1.67 -97.3,10.69 -143.46,26.54 -30.13,10.34 -78.88,29.04 -94.68,58.85 -9.05,17.06 -7.81,41.96 8.99,53.92" /><path
         id="path274"
         style="fill:#f2ab8c;fill-opacity:1;fill-rule:nonzero;stroke:none"
         d="m 5708.15,3167.06 v 0 c -36.24,0 -65.61,29.37 -65.61,65.61 v 124.94 h 131.22 v -124.94 c 0,-36.24 -29.38,-65.61 -65.61,-65.61" /><path
         id="path276"
         style="fill:#ef7865;fill-opacity:1;fill-rule:nonzero;stroke:none"
         d="m 5773.76,3292.43 v 65.18 h -131.22 v -101.97 c 20.19,-2.73 96.55,-8 131.22,36.79" /><path
         id="path278"
         style="fill:#f2ab8c;fill-opacity:1;fill-rule:nonzero;stroke:none"
         d="m 5795.37,3660.28 c -73.19,81.37 -208.64,43.73 -231.82,-63.22 -10.4,-47.98 -16.77,-107.66 -6.04,-167.22 24.16,-134.24 110.63,-189 204.78,-142.22 94.15,46.78 98.4,238.39 64.97,321.41 -7.65,19.02 -18.49,36.36 -31.89,51.25" /><path
         id="path280"
         style="fill:#28346f;fill-opacity:1;fill-rule:nonzero;stroke:none"
         d="m 5799.46,3510.28 c -14.29,12.18 -23.91,28.85 -32.66,45.45 -7.21,13.69 -14.31,27.94 -25.99,38.08 -12.96,11.24 -30.09,16.14 -46.64,20.62 -21.77,5.88 -44.93,11.57 -66.55,5.18 -16.87,-4.99 -30.92,-16.84 -47.4,-22.98 -16.48,-6.15 -38.95,-3.97 -46.48,11.92 -5.62,11.83 -0.48,25.91 6.22,37.17 31.98,53.73 97.7,80.84 160.23,80.05 31.38,-0.4 63.28,-7.16 89.84,-23.87 32.79,-20.62 55.36,-55.53 64.65,-93.14 7.35,-29.75 6.76,-61.05 0.61,-90.96 -2.64,-12.85 -2.71,-22.37 -17.06,-23.17 -13.79,-0.76 -28.6,6.98 -38.77,15.65" /><path
         id="path282"
         style="fill:#f2ab8c;fill-opacity:1;fill-rule:nonzero;stroke:none"
         d="m 5863.88,3482.43 c -2.01,-19.14 -19.15,-33.02 -38.29,-31.02 -19.14,2.01 -33.03,19.16 -31.01,38.29 2,19.14 19.15,33.03 38.29,31.02 19.14,-2 33.02,-19.15 31.01,-38.29" /><path
         id="path284"
         style="fill:#e98862;fill-opacity:1;fill-rule:nonzero;stroke:none"
         d="m 5831.37,3469.3 c -9.25,0 -16.76,7.51 -16.76,16.77 0,9.26 7.51,16.76 16.76,16.76 9.26,0 16.76,-7.5 16.76,-16.76 0,-9.26 -7.5,-16.77 -16.76,-16.77" /><path
         id="path286"
         style="fill:#1e2a52;fill-opacity:1;fill-rule:nonzero;stroke:none"
         d="m 2597.34,229.699 304.1,119.762 -6.39,16.23 -304.11,-119.75 6.4,-16.242" /><path
         id="path288"
         style="fill:#f2ab8c;fill-opacity:1;fill-rule:nonzero;stroke:none"
         d="m 2611.34,625.859 71.35,-187.527 c 0,0 -137.54,-72.91 -141.72,-67.062 -4.18,5.851 -97.13,194.25 -97.13,194.25 l 167.5,60.339" /><path
         id="path290"
         style="fill:#274496;fill-opacity:1;fill-rule:nonzero;stroke:none"
         d="m 2691.79,442.738 26.24,-59.246 c 0,0 148.27,58.379 177.02,-17.801 l -304.11,-119.75 -60.92,131.43 161.77,65.367" /><path
         id="path292"
         style="fill:#ffffff;fill-opacity:1;fill-rule:nonzero;stroke:none"
         d="m 2753.71,401.871 c -9.25,-10.762 -14.25,-24.781 -14.26,-38.871 0,-3.98 0.4,-7.969 1.23,-11.891 0.57,-2.699 3.23,-4.429 5.93,-3.859 2.7,0.582 4.43,3.23 3.85,5.93 -0.68,3.222 -1.01,6.519 -1.01,9.82 -0.01,11.719 4.23,23.539 11.84,32.352 1.8,2.089 1.57,5.238 -0.52,7.046 -2.1,1.801 -5.25,1.571 -7.06,-0.527" /><path
         id="path294"
         style="fill:#ffffff;fill-opacity:1;fill-rule:nonzero;stroke:none"
         d="m 2782.62,409.922 c -9.25,-10.762 -14.25,-24.781 -14.26,-38.863 0,-3.977 0.41,-7.969 1.24,-11.887 0.57,-2.711 3.22,-4.43 5.93,-3.863 2.7,0.57 4.42,3.23 3.85,5.929 -0.68,3.223 -1.02,6.512 -1.02,9.821 -0.01,11.711 4.24,23.523 11.84,32.332 1.8,2.101 1.57,5.25 -0.52,7.05 -2.1,1.809 -5.25,1.571 -7.06,-0.519" /><path
         id="path296"
         style="fill:#ffffff;fill-opacity:1;fill-rule:nonzero;stroke:none"
         d="m 2811.8,413.07 c -9.25,-10.75 -14.25,-24.769 -14.26,-38.859 0,-3.981 0.4,-7.973 1.23,-11.891 0.57,-2.699 3.23,-4.429 5.93,-3.859 2.7,0.578 4.43,3.23 3.85,5.93 -0.68,3.218 -1.01,6.519 -1.01,9.82 -0.01,11.711 4.23,23.527 11.84,32.34 1.8,2.09 1.56,5.25 -0.53,7.051 -2.09,1.796 -5.25,1.57 -7.05,-0.532" /><path
         id="path298"
         style="fill:#274391;fill-opacity:1;fill-rule:nonzero;stroke:none"
         d="m 2054.53,1747.97 c 0,0 138.69,-876.111 402.54,-1282.021 l 213.1,67.653 c 0,0 -98.09,947.138 -226.63,1207.598 l -389.01,6.77" /><path
         id="path300"
         style="fill:#ffffff;fill-opacity:1;fill-rule:nonzero;stroke:none"
         d="m 2259.91,903.461 -5,14.34 c 0.03,0.129 0.05,0.23 0.08,0.359 1.62,-4.879 3.28,-9.84 4.92,-14.699" /><path
         id="path302"
         style="fill:#243068;fill-opacity:1;fill-rule:nonzero;stroke:none"
         d="m 2273.28,865.102 -13.37,38.359 c -1.64,4.859 -3.3,9.82 -4.92,14.699 29.54,125.36 58.89,266.06 81.32,408.77 l 1.88,-1 c -12.84,-124.29 -44.97,-419.18 -64.91,-460.828" /><path
         id="path304"
         style="fill:#1e2a52;fill-opacity:1;fill-rule:nonzero;stroke:none"
         d="m 1882.94,220.609 322.11,-55.328 2.96,17.199 -322.12,55.321 -2.95,-17.192" /><path
         id="path306"
         style="fill:#f2ab8c;fill-opacity:1;fill-rule:nonzero;stroke:none"
         d="m 2100.37,552.059 -36.26,-197.348 c 0,0 -155.41,8.988 -155.95,16.168 -0.54,7.16 17.71,216.461 17.71,216.461 l 174.5,-35.281" /><path
         id="path308"
         style="fill:#274496;fill-opacity:1;fill-rule:nonzero;stroke:none"
         d="m 2074.18,353.77 -8.29,-64.27 c 0,0 157.05,-26.969 142.12,-107.02 l -322.12,55.321 16.08,143.969 172.21,-28" /><path
         id="path310"
         style="fill:#ffffff;fill-opacity:1;fill-rule:nonzero;stroke:none"
         d="m 2105.93,286.711 c -17.29,-5.652 -31.42,-19.481 -37.46,-36.641 -0.92,-2.609 0.46,-5.461 3.06,-6.371 2.61,-0.918 5.46,0.461 6.37,3.063 4.91,14.109 16.91,25.847 31.12,30.449 2.63,0.848 4.07,3.668 3.21,6.301 -0.85,2.617 -3.67,4.058 -6.3,3.199" /><path
         id="path312"
         style="fill:#ffffff;fill-opacity:1;fill-rule:nonzero;stroke:none"
         d="m 2134.83,278.602 c -17.3,-5.661 -31.43,-19.473 -37.47,-36.641 -0.91,-2.602 0.46,-5.461 3.07,-6.371 2.61,-0.91 5.46,0.461 6.37,3.07 4.91,14.102 16.91,25.832 31.12,30.43 2.63,0.851 4.06,3.68 3.21,6.301 -0.86,2.629 -3.68,4.058 -6.3,3.211" /><path
         id="path314"
         style="fill:#ffffff;fill-opacity:1;fill-rule:nonzero;stroke:none"
         d="m 2161.41,266.172 c -17.29,-5.66 -31.43,-19.481 -37.47,-36.652 -0.91,-2.61 0.47,-5.461 3.07,-6.372 2.61,-0.906 5.46,0.461 6.37,3.071 4.91,14.113 16.91,25.84 31.12,30.441 2.63,0.852 4.06,3.672 3.21,6.301 -0.85,2.629 -3.68,4.059 -6.3,3.211" /><path
         id="path316"
         style="fill:#2553a7;fill-opacity:1;fill-rule:nonzero;stroke:none"
         d="m 1953.05,1751.34 c 0,0 -128.54,-750.93 -77.8,-1261.711 l 253.7,-33.82 c 0,0 236.78,734.021 246.93,1282.011 l -422.83,13.52" /><path
         id="path318"
         style="fill:#f2ab8c;fill-opacity:1;fill-rule:nonzero;stroke:none"
         d="m 2539.23,2240.55 c 0,0 195.43,-311.09 318.41,-431.7 l -117.76,-87.7 c 0,0 -260.7,314.95 -333.21,497.88 l 132.56,21.52" /><path
         id="path320"
         style="fill:#f68537;fill-opacity:1;fill-rule:nonzero;stroke:none"
         d="m 2270.54,2393.45 c 0,0 179.7,48.33 296.58,-163.74 l -153.46,-75.04 -143.12,238.78" /><path
         id="path322"
         style="fill:#f68537;fill-opacity:1;fill-rule:nonzero;stroke:none"
         d="m 2189.84,2407.58 c 0,0 -273.15,-3.38 -252.85,-292.6 20.29,-289.21 15.22,-367.86 15.22,-367.86 l 491.33,-5.92 -10.15,480.33 c 0,0 50.74,195.35 -243.55,186.05" /><path
         id="path324"
         style="fill:#c3d2ef;fill-opacity:1;fill-rule:nonzero;stroke:none"
         d="m 3156.88,1655.04 -318.87,-596.36 -744.96,398.32 318.86,596.36 c 7.2,13.46 23.96,18.55 37.45,11.34 l 696.16,-372.22 c 13.48,-7.21 18.56,-23.97 11.36,-37.44" /><path
         id="path326"
         style="fill:#9eb3e2;fill-opacity:1;fill-rule:nonzero;stroke:none"
         d="m 3156.88,1655.04 -17.39,-32.5 -744.96,398.31 17.38,32.51 c 7.2,13.46 23.96,18.55 37.45,11.34 l 696.16,-372.22 c 13.48,-7.21 18.56,-23.97 11.36,-37.44" /><path
         id="path328"
         style="fill:#ffffff;fill-opacity:1;fill-rule:nonzero;stroke:none"
         d="m 2464.41,2015.81 c -3.79,-7.08 -12.6,-9.76 -19.69,-5.97 -7.08,3.79 -9.75,12.6 -5.96,19.69 3.78,7.08 12.59,9.75 19.68,5.96 7.08,-3.78 9.75,-12.59 5.97,-19.68" /><path
         id="path330"
         style="fill:#ffffff;fill-opacity:1;fill-rule:nonzero;stroke:none"
         d="m 2502.12,1995.65 c -3.79,-7.09 -12.6,-9.75 -19.69,-5.97 -7.08,3.78 -9.75,12.6 -5.96,19.68 3.78,7.09 12.59,9.76 19.68,5.97 7.08,-3.78 9.75,-12.6 5.97,-19.68" /><path
         id="path332"
         style="fill:#ffffff;fill-opacity:1;fill-rule:nonzero;stroke:none"
         d="m 2539.83,1975.49 c -3.79,-7.08 -12.6,-9.76 -19.69,-5.97 -7.08,3.79 -9.75,12.6 -5.96,19.69 3.79,7.08 12.59,9.75 19.68,5.96 7.08,-3.79 9.75,-12.6 5.97,-19.68" /><path
         id="path334"
         style="fill:#ffffff;fill-opacity:1;fill-rule:nonzero;stroke:none"
         d="m 2757.88,1730.82 -366.54,195.97 15.49,28.99 366.55,-195.98 -15.5,-28.98" /><path
         id="path336"
         style="fill:#ffffff;fill-opacity:1;fill-rule:nonzero;stroke:none"
         d="m 2726.43,1672 -366.54,195.99 15.5,28.97 366.54,-195.98 -15.5,-28.98" /><path
         id="path338"
         style="fill:#ffffff;fill-opacity:1;fill-rule:nonzero;stroke:none"
         d="m 2689.97,1603.8 -366.54,195.98 15.49,28.99 366.55,-195.98 -15.5,-28.99" /><path
         id="path340"
         style="fill:#ffffff;fill-opacity:1;fill-rule:nonzero;stroke:none"
         d="m 2996.12,1439.74 -279.59,149.5 83.86,156.84 279.6,-149.49 -83.87,-156.85" /><path
         id="path342"
         style="fill:#e3edf9;fill-opacity:1;fill-rule:nonzero;stroke:none"
         d="m 2735.53,1578.99 127.49,79.9 6.12,-123.84 90.98,53.29 8.44,-133.86 -233.03,124.51" /><path
         id="path344"
         style="fill:#e3edf9;fill-opacity:1;fill-rule:nonzero;stroke:none"
         d="m 3042.69,1566.47 c -6.29,-11.77 -20.93,-16.2 -32.7,-9.91 -11.77,6.29 -16.21,20.94 -9.92,32.7 6.29,11.77 20.94,16.22 32.7,9.92 11.78,-6.29 16.22,-20.93 9.92,-32.71" /><path
         id="path346"
         style="fill:#ffffff;fill-opacity:1;fill-rule:nonzero;stroke:none"
         d="m 2473.74,1415.51 -276.68,147.93 10.6,19.83 276.68,-147.93 -10.6,-19.83" /><path
         id="path348"
         style="fill:#ffffff;fill-opacity:1;fill-rule:nonzero;stroke:none"
         d="m 2349.33,1432.7 -172.78,92.38 10.6,19.83 172.78,-92.38 -10.6,-19.83" /><path
         id="path350"
         style="fill:#ffffff;fill-opacity:1;fill-rule:nonzero;stroke:none"
         d="m 2328.82,1394.34 -172.78,92.39 10.6,19.82 172.78,-92.38 -10.6,-19.83" /><path
         id="path352"
         style="fill:#ffffff;fill-opacity:1;fill-rule:nonzero;stroke:none"
         d="m 2500.09,1455.05 -279.6,149.49 83.87,156.84 279.6,-149.49 -83.87,-156.84" /><path
         id="path354"
         style="fill:#e3edf9;fill-opacity:1;fill-rule:nonzero;stroke:none"
         d="m 2239.92,1594.06 127.49,79.9 6.13,-123.85 90.97,53.31 8.45,-133.86 -233.04,124.5" /><path
         id="path356"
         style="fill:#edf8fe;fill-opacity:1;fill-rule:nonzero;stroke:none"
         d="m 2547.09,1581.55 c -6.3,-11.77 -20.94,-16.21 -32.71,-9.91 -11.77,6.29 -16.2,20.92 -9.92,32.7 6.3,11.77 20.94,16.2 32.71,9.92 11.77,-6.29 16.21,-20.94 9.92,-32.71" /><path
         id="path358"
         style="fill:#ffffff;fill-opacity:1;fill-rule:nonzero;stroke:none"
         d="m 2865.85,1205.86 -276.67,147.93 10.6,19.82 276.67,-147.93 -10.6,-19.82" /><path
         id="path360"
         style="fill:#ffffff;fill-opacity:1;fill-rule:nonzero;stroke:none"
         d="m 2741.45,1223.05 -172.78,92.38 10.6,19.82 172.78,-92.37 -10.6,-19.83" /><path
         id="path362"
         style="fill:#ffffff;fill-opacity:1;fill-rule:nonzero;stroke:none"
         d="m 2720.94,1184.69 -172.78,92.38 10.6,19.83 172.78,-92.38 -10.6,-19.83" /><path
         id="path364"
         style="fill:#ffffff;fill-opacity:1;fill-rule:nonzero;stroke:none"
         d="m 2892.21,1245.4 -279.6,149.49 83.87,156.85 279.59,-149.5 -83.86,-156.84" /><path
         id="path366"
         style="fill:#e3edf9;fill-opacity:1;fill-rule:nonzero;stroke:none"
         d="m 2632.04,1384.41 127.49,79.9 6.12,-123.84 90.98,53.29 8.44,-133.86 -233.03,124.51" /><path
         id="path368"
         style="fill:#e3edf9;fill-opacity:1;fill-rule:nonzero;stroke:none"
         d="m 2939.21,1371.89 c -6.3,-11.77 -20.94,-16.2 -32.71,-9.91 -11.77,6.29 -16.21,20.94 -9.92,32.7 6.29,11.77 20.94,16.22 32.71,9.92 11.77,-6.29 16.2,-20.93 9.92,-32.71" /><path
         id="path370"
         style="fill:#aabde6;fill-opacity:1;fill-rule:nonzero;stroke:none"
         d="m 2522.18,1496.36 11.57,21.63 c 3.94,-7.74 5.52,-16.77 -5.49,-20.34 -2.19,-0.7 -4.21,-1.11 -6.08,-1.29 m 25.05,20.49 c -4.62,0 -8.7,1.63 -12.07,3.78 l 35.53,66.45 c 19.85,-16.5 13.97,-32.44 13.97,-32.44 -4.55,-4.94 -9.43,-6.55 -13.85,-6.55 -8.29,0 -14.99,5.67 -14.99,5.67 21.27,-19.64 3.47,-33.19 3.47,-33.19 -4.31,-2.67 -8.36,-3.72 -12.06,-3.72" /><path
         id="path372"
         style="fill:#243068;fill-opacity:1;fill-rule:nonzero;stroke:none"
         d="m 2245.43,1741.99 -19.27,0.62 c -0.45,0.41 -0.9,0.81 -1.35,1.22 l 21.46,-0.26 -0.84,-1.58" /><path
         id="path374"
         style="fill:#263d80;fill-opacity:1;fill-rule:nonzero;stroke:none"
         d="m 2239.39,1730.69 c -4.39,3.93 -8.8,7.91 -13.23,11.92 l 19.27,-0.62 -6.04,-11.3" /><path
         id="path376"
         style="fill:#f36429;fill-opacity:1;fill-rule:nonzero;stroke:none"
         d="m 2246.27,1743.57 -21.46,0.26 c -70.36,63.76 -145.46,136.89 -198.73,202.3 l -12.97,-10.19 c -140.11,197.5 -18.42,338.28 -18.42,338.28 l 152.74,-232.74 -18.77,-14.75 c 27.61,-33.48 93.38,-111.76 167.62,-189.62 l -50.01,-93.54" /><path
         id="path378"
         style="fill:#aabde6;fill-opacity:1;fill-rule:nonzero;stroke:none"
         d="m 2596.76,1586.22 c -7.98,0 -17.31,2.04 -24.4,3.99 l 11.6,21.68 -279.6,149.49 -32.03,-59.89 c -10.73,9.41 -21.76,19.18 -32.94,29.2 l 6.04,11.3 0.84,1.58 50.01,93.54 c 9.99,-10.47 20.15,-20.96 30.37,-31.31 l -3.22,-6.02 19.79,-10.58 c 51.74,-51.25 104.55,-98.03 149.21,-126.31 6.05,0.58 11.69,0.85 16.99,0.85 54.83,0 70.2,-28.64 70.2,-28.64 0,0 35.33,-15.96 33.93,-38.11 -0.53,-8.19 -7.81,-10.77 -16.79,-10.77" /><path
         id="path380"
         style="fill:#ffffff;fill-opacity:1;fill-rule:nonzero;stroke:none"
         d="m 2343.22,1789.2 -19.79,10.58 3.22,6.02 c 5.51,-5.58 11.03,-11.11 16.57,-16.6" /><path
         id="path382"
         style="fill:#ffffff;fill-opacity:1;fill-rule:nonzero;stroke:none"
         d="m 2491.35,1477.73 c -10.34,0 -17.19,16.07 -20.6,26.75 l -6.24,98.94 -44.21,-25.91 c -0.09,0.28 -0.18,0.52 -0.25,0.73 l -0.26,-0.3 c 0,0 -19.12,15.09 -49.62,40.3 l -2.76,55.72 -36.52,-22.88 c -17.92,15.15 -37.7,32.13 -58.56,50.41 l 32.03,59.89 279.6,-149.49 -11.6,-21.68 c -6.5,1.79 -11.12,3.51 -11.12,3.51 3.66,-2.2 6.79,-4.42 9.45,-6.64 l -35.53,-66.45 c -2.62,1.67 -4.82,3.65 -6.5,5.42 1.65,-2.22 3.55,-5.05 5.09,-8.06 l -11.57,-21.63 c -0.71,-0.07 -1.4,-0.1 -2.07,-0.1 -8.99,0 -14.09,5.75 -16.64,10.04 2.9,-7.24 6.27,-21.19 -7.29,-27.43 -1.69,-0.78 -3.3,-1.14 -4.83,-1.14 m 34.45,139.38 c -8.63,0 -16.98,-4.63 -21.34,-12.77 -6.28,-11.78 -1.85,-26.41 9.92,-32.7 3.63,-1.94 7.53,-2.86 11.38,-2.86 8.63,0 16.97,4.63 21.33,12.77 6.29,11.77 1.85,26.42 -9.92,32.71 -3.63,1.93 -7.53,2.85 -11.37,2.85" /><path
         id="path384"
         style="fill:#d5e2f5;fill-opacity:1;fill-rule:nonzero;stroke:none"
         d="m 2470.75,1504.48 c -1.69,5.32 -2.54,9.3 -2.54,9.3 -31.83,22.45 -45.07,55.7 -47.91,63.73 l 44.21,25.91 6.24,-98.94 m -100.58,113.76 c -11.59,9.57 -24.83,20.62 -39.28,32.84 l 36.52,22.88 2.76,-55.72" /><path
         id="path386"
         style="fill:#e1f4fc;fill-opacity:1;fill-rule:nonzero;stroke:none"
         d="m 2525.76,1568.78 c -3.85,0 -7.75,0.92 -11.38,2.86 -11.77,6.29 -16.2,20.92 -9.92,32.7 4.36,8.14 12.71,12.77 21.34,12.77 3.84,0 7.74,-0.92 11.37,-2.85 11.77,-6.29 16.21,-20.94 9.92,-32.71 -4.36,-8.14 -12.7,-12.77 -21.33,-12.77" /><path
         id="path388"
         style="fill:#f2ab8c;fill-opacity:1;fill-rule:nonzero;stroke:none"
         d="m 2112.58,2085.6 c 0,0 232.16,-288.72 377.69,-380.87 l -72.64,-84.95 c 0,0 -320.91,253.32 -430.15,417 l 125.1,48.82" /><path
         id="path390"
         style="fill:#f68537;fill-opacity:1;fill-rule:nonzero;stroke:none"
         d="m 1992.53,2316.06 c 0,0 -121.69,-140.77 18.42,-338.27 l 134.32,105.54 -152.74,232.73" /><path
         id="path392"
         style="fill:#f2ab8c;fill-opacity:1;fill-rule:nonzero;stroke:none"
         d="m 2417.51,1621.26 c 0,0 12.13,-39.95 48.54,-65.64 0,0 9.25,-43.54 27.97,-34.91 18.73,8.63 5.15,32.02 5.15,32.02 0,0 6.07,-19.98 26.92,-13.23 20.87,6.75 -3.47,33.18 -3.47,33.18 0,0 14.47,-22.7 34.51,-10.26 0,0 17.8,13.54 -3.48,33.18 0,0 15.76,-13.31 28.85,0.87 0,0 7.57,20.52 -23.42,39.09 0,0 50.9,-18.87 52.3,3.27 1.41,22.15 -33.92,38.12 -33.92,38.12 0,0 -18.47,34.42 -87.19,27.78 l -72.76,-83.47" /><path
         id="path394"
         style="fill:#f2ab8c;fill-opacity:1;fill-rule:nonzero;stroke:none"
         d="m 2236.51,2342.04 v 0 c 37.95,0 68.72,30.76 68.72,68.72 V 2541.6 H 2167.8 v -130.84 c 0,-37.96 30.77,-68.72 68.71,-68.72" /><path
         id="path396"
         style="fill:#ef7865;fill-opacity:1;fill-rule:nonzero;stroke:none"
         d="m 2167.8,2473.35 v 68.25 h 137.43 v -106.78 c -21.16,-2.87 -101.12,-8.39 -137.43,38.53" /><path
         id="path398"
         style="fill:#f2ab8c;fill-opacity:1;fill-rule:nonzero;stroke:none"
         d="m 2145.17,2858.59 c 76.64,85.21 218.49,45.8 242.78,-66.21 10.89,-50.24 17.56,-112.75 6.33,-175.13 -25.31,-140.58 -115.87,-197.94 -214.47,-148.94 -98.61,48.99 -103.06,249.65 -68.05,336.6 8.03,19.92 19.37,38.08 33.41,53.68" /><path
         id="path400"
         style="fill:#28346f;fill-opacity:1;fill-rule:nonzero;stroke:none"
         d="m 2096.87,2608.4 c 0,0 -23.71,113.95 -60.92,165.12 -37.21,51.17 21.54,79.24 67.54,76.92 0,0 53.41,105.85 167.38,94.21 113.97,-11.63 126.26,-39.26 128.59,-83.46 0,0 76.75,-18.6 0,-158.16 0,0 2.32,72.1 -32.56,95.36 -15.29,10.19 -55.69,1.47 -99.98,-7.24 -56.85,-11.18 -120.11,-22.37 -144.95,6.39 0,0 32.41,-102.91 -25.1,-189.14" /><path
         id="path402"
         style="fill:#f68537;fill-opacity:1;fill-rule:nonzero;stroke:none"
         d="m 2225.77,2738.95 c -25.65,6.06 -51.45,-9.88 -57.51,-35.53 -6.06,-25.64 9.88,-51.45 35.53,-57.51 25.65,-6.05 51.45,9.88 57.51,35.53 6.05,25.65 -9.88,51.45 -35.53,57.51 z m -23.86,-100.99 c -30.04,7.1 -48.7,37.31 -41.6,67.34 7.1,30.03 37.3,48.7 67.34,41.6 30.04,-7.09 48.69,-37.3 41.6,-67.34 -7.1,-30.03 -37.31,-48.69 -67.34,-41.6" /><path
         id="path404"
         style="fill:#f68537;fill-opacity:1;fill-rule:nonzero;stroke:none"
         d="m 2163.03,2698.12 -1.51,0.17 c -31.86,9.74 -58.63,-4.51 -58.9,-4.66 -1.98,-1.08 -4.46,-0.35 -5.54,1.63 -1.08,1.99 -0.34,4.47 1.64,5.55 1.21,0.66 30.08,16.03 65.18,5.29 2.16,-0.66 3.38,-2.94 2.72,-5.1 -0.51,-1.65 -1.96,-2.75 -3.59,-2.88" /><path
         id="path406"
         style="fill:#f68537;fill-opacity:1;fill-rule:nonzero;stroke:none"
         d="m 2350.36,2741.48 c -25.65,6.06 -51.45,-9.88 -57.51,-35.53 -6.06,-25.65 9.88,-51.45 35.53,-57.51 25.65,-6.06 51.45,9.88 57.51,35.53 6.06,25.65 -9.88,51.44 -35.53,57.51 z m -23.86,-100.99 c -30.03,7.09 -48.7,37.3 -41.6,67.34 7.1,30.03 37.31,48.7 67.34,41.6 30.04,-7.1 48.7,-37.31 41.6,-67.34 -7.1,-30.04 -37.3,-48.69 -67.34,-41.6" /><path
         id="path408"
         style="fill:#f68537;fill-opacity:1;fill-rule:nonzero;stroke:none"
         d="m 2263.49,2702.72 -1.73,1.22 c -1.44,1.74 -1.2,4.31 0.53,5.75 0.52,0.43 12.92,10.47 28.38,1.59 1.95,-1.13 2.63,-3.63 1.5,-5.58 -1.12,-1.96 -3.61,-2.64 -5.57,-1.51 -10.6,6.1 -19,-0.71 -19.08,-0.78 -1.17,-0.97 -2.7,-1.18 -4.03,-0.69" /><path
         id="path410"
         style="fill:#f2ab8c;fill-opacity:1;fill-rule:nonzero;stroke:none"
         d="m 2073.41,2672.33 c 2.11,-20.04 20.06,-34.59 40.11,-32.48 20.04,2.1 34.59,20.05 32.48,40.1 -2.1,20.04 -20.06,34.58 -40.1,32.48 -20.04,-2.1 -34.59,-20.05 -32.49,-40.1" /><path
         id="path412"
         style="fill:#e98862;fill-opacity:1;fill-rule:nonzero;stroke:none"
         d="m 2107.46,2658.58 c -9.69,0 -17.55,7.86 -17.55,17.56 0,9.7 7.86,17.55 17.55,17.55 9.7,0 17.56,-7.85 17.56,-17.55 0,-9.7 -7.86,-17.56 -17.56,-17.56" /><path
         id="path414"
         style="fill:#f57630;fill-opacity:1;fill-rule:nonzero;stroke:none"
         d="m 3805.29,1133.58 v 796.08 c 0,25.51 20.67,46.2 46.18,46.2 h 364.43 c 10.56,0 20.79,-3.67 28.94,-10.38 l 115.96,-95.34 c 6.88,-5.66 15.53,-8.76 24.43,-8.76 h 441.22 c 25.51,0 46.18,-20.67 46.18,-46.18 v -683.94 l -1067.34,2.32" /><path
         id="path416"
         style="fill:#f36023;fill-opacity:1;fill-rule:nonzero;stroke:none"
         d="m 4809.36,1542.72 h -940.79 v 217.36 c 0,32.14 26.05,58.2 58.2,58.2 h 824.38 c 32.15,0 58.21,-26.06 58.21,-58.2 v -217.36" /><path
         id="path418"
         style="fill:#ffffff;fill-opacity:1;fill-rule:nonzero;stroke:none"
         d="m 4792.5,1542.72 h -907.07 v 198.85 c 0,30.29 24.55,54.84 54.84,54.84 h 797.39 c 30.29,0 54.84,-24.55 54.84,-54.84 v -198.85" /><path
         id="path420"
         style="fill:#f68537;fill-opacity:1;fill-rule:nonzero;stroke:none"
         d="m 4817.87,1080.21 h -957.82 c -31,0 -56.13,25.13 -56.13,56.13 v 499.37 c 0,31 25.13,56.13 56.13,56.13 h 957.82 c 31,0 56.14,-25.13 56.14,-56.13 v -499.37 c 0,-31 -25.14,-56.13 -56.14,-56.13" /><path
         id="path422"
         style="fill:#1e2a52;fill-opacity:1;fill-rule:nonzero;stroke:none"
         d="m 1270.82,849.809 271.64,65.41 -3.49,14.5 -271.64,-65.41 3.49,-14.5" /><path
         id="path424"
         style="fill:#f2ab8c;fill-opacity:1;fill-rule:nonzero;stroke:none"
         d="m 1329.55,1183.56 38.22,-167.22 c 0,0 -125.08,-45.461 -127.92,-40.008 -2.85,5.449 -59.25,175.958 -59.25,175.958 l 148.95,31.27" /><path
         id="path426"
         style="fill:#274496;fill-opacity:1;fill-rule:nonzero;stroke:none"
         d="m 1375.99,1019 15.22,-53.27 c 0,0 132.43,31.891 147.76,-36.011 l -271.64,-65.41 -36.03,118.492 144.69,36.199" /><path
         id="path428"
         style="fill:#ffffff;fill-opacity:1;fill-rule:nonzero;stroke:none"
         d="m 1423.11,977.621 c -11,-9.691 -17.38,-24.019 -17.4,-38.633 0,-1.129 0.04,-2.269 0.12,-3.398 0.19,-2.762 2.58,-4.84 5.34,-4.641 2.75,0.192 4.83,2.582 4.63,5.332 -0.06,0.899 -0.09,1.809 -0.09,2.707 -0.02,11.66 5.25,23.461 14,31.121 2.08,1.821 2.28,4.981 0.46,7.051 -1.82,2.082 -4.98,2.281 -7.06,0.461" /><path
         id="path430"
         style="fill:#ffffff;fill-opacity:1;fill-rule:nonzero;stroke:none"
         d="m 1448.54,981.02 c -10.99,-9.688 -17.37,-24.02 -17.4,-38.622 0,-1.136 0.04,-2.277 0.12,-3.418 0.2,-2.75 2.59,-4.832 5.34,-4.628 2.76,0.187 4.83,2.578 4.64,5.328 -0.06,0.91 -0.1,1.808 -0.1,2.718 -0.02,11.653 5.26,23.454 14,31.114 2.08,1.816 2.28,4.976 0.46,7.047 -1.82,2.082 -4.98,2.281 -7.06,0.461" /><path
         id="path432"
         style="fill:#ffffff;fill-opacity:1;fill-rule:nonzero;stroke:none"
         d="m 1473.62,980.238 c -11,-9.687 -17.38,-24.027 -17.4,-38.629 0,-1.129 0.04,-2.269 0.12,-3.41 0.19,-2.75 2.58,-4.828 5.33,-4.64 2.76,0.203 4.84,2.589 4.64,5.339 -0.06,0.903 -0.09,1.813 -0.09,2.711 -0.02,11.661 5.25,23.461 14,31.11 2.07,1.832 2.28,4.98 0.46,7.062 -1.82,2.078 -4.98,2.278 -7.06,0.457" /><path
         id="path434"
         style="fill:#274391;fill-opacity:1;fill-rule:nonzero;stroke:none"
         d="m 1371.99,1097.09 -193.1,-37.4 c 0,0 -171.04,555.79 -187.144,610.55 -0.488,1.76 -1.367,4.1 -2.441,6.83 -11.032,26.66 -49.891,97.62 -97.532,181.68 -100.55,177.28 -240.152,412.75 -240.152,412.75 l 467.429,-8 c 0,0 141.26,-462.74 176.69,-575.59 35.44,-112.86 76.25,-590.82 76.25,-590.82" /><path
         id="path436"
         style="fill:#243068;fill-opacity:1;fill-rule:nonzero;stroke:none"
         d="m 989.305,1677.07 v 0 c -11.032,26.66 -49.891,97.62 -97.532,181.68 l 141.297,194.02 c 6.37,-11.12 16.43,-19.26 28,-23.39 -12.47,-83.71 -36.22,-223.45 -71.765,-352.31" /><path
         id="path438"
         style="fill:#1e2a52;fill-opacity:1;fill-rule:nonzero;stroke:none"
         d="M 448.176,889.25 700.574,769.41 706.969,782.891 454.57,902.73 448.176,889.25" /><path
         id="path440"
         style="fill:#f2ab8c;fill-opacity:1;fill-rule:nonzero;stroke:none"
         d="M 703.609,1111.94 628.242,957.859 c 0,0 -125.859,43.251 -124.64,49.281 1.211,6.02 64.503,174.1 64.503,174.1 l 135.504,-69.3" /><path
         id="path442"
         style="fill:#274496;fill-opacity:1;fill-rule:nonzero;stroke:none"
         d="m 636.316,954.75 -21.648,-50.98 c 0,0 123.055,-58.438 92.301,-120.879 L 454.57,902.73 l 46.442,114.81 135.304,-62.79" /><path
         id="path444"
         style="fill:#ffffff;fill-opacity:1;fill-rule:nonzero;stroke:none"
         d="m 646.953,892.961 c -15.777,-0.68 -30.785,-8.91 -39.859,-21.84 -1.582,-2.262 -1.028,-5.379 1.234,-6.961 2.266,-1.578 5.383,-1.031 6.965,1.231 7.156,10.3 19.551,17.089 32.074,17.578 2.758,0.113 4.903,2.441 4.789,5.203 -0.113,2.758 -2.445,4.91 -5.203,4.789" /><path
         id="path446"
         style="fill:#ffffff;fill-opacity:1;fill-rule:nonzero;stroke:none"
         d="m 668.875,879.609 c -15.785,-0.668 -30.797,-8.898 -39.863,-21.828 -1.582,-2.261 -1.028,-5.383 1.238,-6.961 2.262,-1.578 5.379,-1.031 6.961,1.239 7.152,10.293 19.547,17.082 32.07,17.562 2.762,0.109 4.907,2.438 4.793,5.199 -0.113,2.762 -2.441,4.899 -5.199,4.789" /><path
         id="path448"
         style="fill:#ffffff;fill-opacity:1;fill-rule:nonzero;stroke:none"
         d="m 687.887,863.25 c -15.785,-0.68 -30.793,-8.898 -39.86,-21.84 -1.582,-2.262 -1.031,-5.379 1.235,-6.961 2.265,-1.578 5.383,-1.027 6.965,1.242 7.152,10.289 19.543,17.079 32.074,17.571 2.758,0.117 4.902,2.449 4.789,5.207 -0.117,2.75 -2.445,4.902 -5.203,4.781" /><path
         id="path450"
         style="fill:#2553a7;fill-opacity:1;fill-rule:nonzero;stroke:none"
         d="m 651.633,2271.52 -141.52,-1167.97 178.551,-79.53 c 0,0 390.116,867.09 414.296,1242.67 1.45,22.44 -451.327,4.83 -451.327,4.83" /><path
         id="path452"
         style="fill:#b0c3e9;fill-opacity:1;fill-rule:nonzero;stroke:none"
         d="m 650.844,2269.06 c 0,0 2.73,43.06 -4.297,183.92 -2.348,45.01 -5.57,99.98 -10.25,166.75 -4.301,61.6 5.363,109.53 22.84,146.92 61.113,129.94 218.187,131.89 218.187,131.89 280.476,8.89 232.056,-177.28 232.056,-177.28 l 9.67,-457.76 -468.206,5.56" /><path
         id="path454"
         style="fill:#f2ab8c;fill-opacity:1;fill-rule:nonzero;stroke:none"
         d="m 1187.05,2636.34 c 0,0 2.95,-349.51 57.76,-504.25 l -79.31,-15.83 c 0,0 -115.46,370.18 -100.96,557.15 l 122.51,-37.07" /><path
         id="path456"
         style="fill:#b0c3e9;fill-opacity:1;fill-rule:nonzero;stroke:none"
         d="m 1021.02,2879.74 c 0,0 174.08,-33.85 185.37,-264.35 h -162.8 l -22.57,264.35" /><path
         id="path458"
         style="fill:#f2ab8c;fill-opacity:1;fill-rule:nonzero;stroke:none"
         d="m 1165.5,2116.26 c 0,0 -8.12,-27.18 2.87,-55.4 0,0 -11.1,-28.14 2.74,-30.28 13.85,-2.14 14.93,16.21 14.93,16.21 0,0 -4.06,-13.59 10.29,-17.6 14.35,-4.01 10.49,20.1 10.49,20.1 0,0 -0.32,-18.3 15.7,-18.77 0,0 15.16,1 10.48,20.11 0,0 3.93,-13.46 16.67,-10.33 0,0 11.99,8.78 1.4,30.93 0,0 21.75,-29.8 30.86,-17.78 9.12,12.03 -4.91,34.33 -4.91,34.33 0,0 2.45,26.43 -38.97,48.47 l -72.55,-19.99" /><path
         id="path460"
         style="fill:#f68537;fill-opacity:1;fill-rule:nonzero;stroke:none"
         d="m 1334.77,2659.66 157.38,-428.98 c 10.03,-27.33 -3.97,-57.63 -31.3,-67.66 l -363.89,-133.49 c -27.33,-10.03 -57.64,4.01 -67.67,31.35 l -181.403,494.47 c -10.028,27.33 4.027,57.6 31.359,67.63 l 301.034,110.43 0.48,-0.5 154.01,-73.25" /><path
         id="path462"
         style="fill:#f4732b;fill-opacity:1;fill-rule:nonzero;stroke:none"
         d="m 1180.3,2733.42 41.16,-115.3 113.31,41.56 -154.47,73.74" /><path
         id="path464"
         style="fill:#e7f6fc;fill-opacity:1;fill-rule:nonzero;stroke:none"
         d="m 1340.04,2645.29 -5.27,14.37 -0.02,0.01 0.02,0.01 5.28,-14.39 h -0.01" /><path
         id="path466"
         style="fill:#f57730;fill-opacity:1;fill-rule:nonzero;stroke:none"
         d="m 1221.46,2618.12 113.29,41.55 0.02,-0.01 5.27,-14.37 -118.58,-27.17" /><path
         id="path468"
         style="fill:#f4732b;fill-opacity:1;fill-rule:nonzero;stroke:none"
         d="m 1462.82,2310.64 29.33,-79.96 c 10.03,-27.33 -3.97,-57.63 -31.3,-67.66 l -363.89,-133.49 c -27.32,-10.03 -57.64,4.01 -67.67,31.35 l -29.329,79.95 462.859,169.81" /><path
         id="path470"
         style="fill:#ffffff;fill-opacity:1;fill-rule:nonzero;stroke:none"
         d="m 1229.28,2110.68 c -2.47,-2.54 -8.93,-6.92 -17.93,-10.23 -25.9,-9.51 -45.2,1.82 -53.02,23.17 -9.39,25.57 3.66,46.38 26.34,54.7 8.78,3.22 16.06,4 19.68,3.42 l 1.33,-14.63 c -3.86,0.21 -9.13,-0.2 -15.24,-2.45 -13.34,-4.89 -20.81,-16.83 -14.7,-33.51 5.51,-15.02 17.87,-21.21 32.88,-15.7 5.22,1.91 10.41,4.97 13.33,7.67 l 7.33,-12.44" /><path
         id="path472"
         style="fill:#ffffff;fill-opacity:1;fill-rule:nonzero;stroke:none"
         d="m 1235.44,2130.48 c 5.3,-0.71 13.28,-0.44 20.5,2.21 7.79,2.85 10.71,7.6 8.91,12.48 -1.71,4.67 -6.25,6.04 -16.39,5.84 -14.08,-0.11 -24.83,3.76 -28.83,14.65 -4.69,12.78 2.54,26.42 20.1,32.86 8.56,3.14 15.29,3.71 20.51,3.22 l 1.19,-14.94 c -3.42,0.38 -9.63,0.5 -16.86,-2.15 -7.34,-2.69 -9.62,-7.45 -8.24,-11.23 1.75,-4.78 6.64,-5.38 17.77,-5.45 15.03,-0.05 23.67,-4.69 27.54,-15.25 4.61,-12.56 -1.04,-26.74 -21.6,-34.29 -8.57,-3.14 -17.87,-3.91 -22.95,-3.12 l -1.65,15.17" /><path
         id="path474"
         style="fill:#ffffff;fill-opacity:1;fill-rule:nonzero;stroke:none"
         d="m 1295.5,2152.51 c 5.31,-0.7 13.28,-0.43 20.5,2.21 7.79,2.86 10.72,7.6 8.92,12.49 -1.71,4.67 -6.25,6.03 -16.39,5.83 -14.08,-0.11 -24.84,3.76 -28.84,14.65 -4.69,12.79 2.54,26.42 20.11,32.86 8.56,3.15 15.28,3.72 20.51,3.24 l 1.19,-14.95 c -3.42,0.39 -9.64,0.49 -16.86,-2.15 -7.34,-2.7 -9.63,-7.45 -8.25,-11.22 1.76,-4.79 6.64,-5.39 17.77,-5.46 15.03,-0.05 23.66,-4.7 27.54,-15.26 4.61,-12.56 -1.03,-26.74 -21.6,-34.27 -8.56,-3.15 -17.87,-3.92 -22.95,-3.13 l -1.65,15.16" /><path
         id="path476"
         style="fill:#ffffff;fill-opacity:1;fill-rule:nonzero;stroke:none"
         d="m 1026.63,2398.69 c 15.7,6.57 14.25,15.62 11.9,22.75 -2.07,5.65 -5.1,11.71 -7.89,17.89 -3.04,6.08 -6.06,12.16 -8.22,18.03 -8.09,22.07 2.23,36.77 24.06,44.78 l 8.22,3.02 7.33,-19.96 -4.23,-1.55 c -10.49,-4.1 -12,-11.59 -8.21,-21.92 1.55,-4.23 3.57,-8.28 6.08,-12.95 2.19,-4.53 4.88,-9.66 7.12,-15.78 6.7,-17.52 1.91,-26.99 -10.2,-34.64 l 0.17,-0.46 c 14.1,2.24 23.88,-1.91 30.19,-19.84 2.24,-6.09 3.51,-11.75 4.85,-16.86 1.02,-4.95 2.19,-9.59 3.65,-13.58 3.79,-10.33 9.64,-15.38 20.53,-11.65 l 4.23,1.56 7.23,-19.73 -8.45,-3.1 c -20.9,-7.67 -38.56,-4.55 -47.17,18.93 -2.15,5.87 -3.78,12.46 -5.4,19.06 -1.85,6.51 -3.39,12.87 -5.54,18.73 -2.42,6.58 -7.24,14.67 -23.7,9.44 l -6.55,17.83" /><path
         id="path478"
         style="fill:#ffffff;fill-opacity:1;fill-rule:nonzero;stroke:none"
         d="m 1261.35,2464.57 c -15.7,-6.57 -14.16,-15.86 -11.98,-22.52 2.15,-5.87 5.09,-11.72 8.13,-17.8 2.79,-6.16 5.82,-12.24 7.97,-18.11 8.61,-23.48 -2.84,-37.28 -23.74,-44.94 l -8.45,-3.1 -7.24,19.73 4.23,1.54 c 10.71,4.2 11.91,11.84 8.12,22.17 -1.46,3.98 -3.57,8.27 -6,12.7 -2.27,4.77 -4.96,9.91 -7.2,16.01 -6.78,17.75 -2,27.25 10.21,34.65 l -0.18,0.46 c -14.18,-1.99 -23.96,2.14 -30.18,19.83 -2.25,6.1 -3.52,11.76 -4.78,16.63 -1.1,5.19 -2.18,9.58 -3.73,13.82 -3.79,10.33 -9.79,15.06 -20.44,11.4 l -4.23,-1.54 -7.32,19.96 8.23,3.01 c 21.83,8.02 39.21,3.47 47.3,-18.6 2.16,-5.87 3.78,-12.47 5.64,-18.98 1.62,-6.6 3.24,-13.19 5.31,-18.84 2.58,-7.03 7.33,-14.88 23.79,-9.65 l 6.54,-17.83" /><path
         id="path480"
         style="fill:#94aade;fill-opacity:1;fill-rule:nonzero;stroke:none"
         d="m 784.969,2376.88 c -22.024,0 -44.766,4.72 -67.746,15.87 -32.899,16.02 -55.45,37.1 -70.676,60.23 v 0 c -2.348,45.01 -5.57,99.98 -10.25,166.75 -0.692,9.86 -1.02,19.38 -1.016,28.56 0.012,48.12 9.18,86.96 23.856,118.36 52.23,67.66 121.25,76.35 121.25,76.35 l -15.133,-251.39 h -9.078 c 18.023,-56.08 49.125,-73.82 81.258,-73.82 7.73,0 15.523,1.02 23.207,2.79 l 38.441,-104.78 c -33.289,-22.02 -72.418,-38.92 -114.113,-38.92" /><path
         id="path482"
         style="fill:#f36429;fill-opacity:1;fill-rule:nonzero;stroke:none"
         d="m 899.082,2415.8 -38.441,104.78 c 40.988,9.42 78.914,39.91 88.343,47.9 -2.246,46.76 21.672,58.28 21.672,58.28 0,0 11.11,21.85 25.41,21.85 0.508,0 1.02,-0.03 1.536,-0.08 14.448,-1.57 1.753,-32.9 0.679,-35.44 8.659,12.96 17.319,15.3 22.449,15.3 2.92,0 4.69,-0.75 4.69,-0.75 8.5,-8.59 1.17,-17.87 -0.1,-19.43 4.88,4.74 9.11,6.28 12.54,6.28 6.31,0 9.92,-5.21 9.92,-5.21 5.37,-9.66 -0.49,-16.98 -4.69,-20.6 3.19,2.13 8.1,4.89 12.24,4.89 3.11,0 5.78,-1.55 7,-6.06 2.73,-10.05 -3.13,-14.74 -6.94,-16.69 2.07,0.73 4.97,1.52 7.93,1.52 4.19,0 8.49,-1.58 10.72,-7.18 5.27,-12.99 -24.5,-17.87 -24.5,-17.87 -18.65,-23.91 -46.18,-30.95 -46.18,-30.95 0,0 -41.899,-59.28 -104.278,-100.54" /><path
         id="path484"
         style="fill:#f2ab8c;fill-opacity:1;fill-rule:nonzero;stroke:none"
         d="m 625.453,2664.39 c 0,0 -60.601,-175.9 87.43,-247.8 148.031,-71.91 286.191,123.6 286.191,123.6 l -52.066,54.11 c 0,0 -159.762,-143.99 -201.25,43.44 l -120.305,26.65" /><path
         id="path486"
         style="fill:#b0c3e9;fill-opacity:1;fill-rule:nonzero;stroke:none"
         d="m 783.535,2879.74 c 0,0 -174.082,-33.85 -185.363,-264.35 h 162.797 l 22.566,264.35" /><path
         id="path488"
         style="fill:#f2ab8c;fill-opacity:1;fill-rule:nonzero;stroke:none"
         d="m 999.074,2540.19 c 0,0 27.496,6.97 46.086,30.87 0,0 29.85,4.91 24.58,17.89 -5.26,12.99 -21.56,4.5 -21.56,4.5 0,0 13.75,3.49 9.82,17.87 -3.91,14.37 -22.63,-1.31 -22.63,-1.31 0,0 15.87,9.1 8.06,23.1 0,0 -8.63,12.51 -22.64,-1.31 0,0 9.53,10.27 0.32,19.6 0,0 -13.69,5.79 -27.27,-14.66 0,0 14.42,33.96 -0.567,35.62 -14.996,1.65 -26.949,-21.83 -26.949,-21.83 0,0 -23.949,-11.45 -21.621,-58.31 l 54.371,-52.03" /><path
         id="path490"
         style="fill:#28346f;fill-opacity:1;fill-rule:nonzero;stroke:none"
         d="m 812.91,3394.84 c -1.023,-6.73 -2.531,-13.51 -4.551,-20.16 -9.129,-32.24 -28.625,-62.63 -54.91,-82.86 -14.453,-11.07 -35.918,-15.64 -57.601,-16.1 -6.578,-0.14 -13.2,0.11 -19.668,0.67 -12.825,1.05 -24.922,3.37 -34.864,6.54 -27.546,8.54 -52.492,32.46 -52.589,61.38 -0.067,29.51 24.613,53.08 49.609,68.72 33.09,20.88 70.266,35.1 108.789,41.72 18.984,3.17 40.953,3.77 54.75,-9.74 12.691,-12.48 13.746,-32.62 11.035,-50.17" /><path
         id="path492"
         style="fill:#f68537;fill-opacity:1;fill-rule:nonzero;stroke:none"
         d="m 808.359,3374.68 c -9.129,-32.24 -28.625,-62.63 -54.91,-82.86 -14.453,-11.07 -35.918,-15.64 -57.601,-16.1 -6.578,-0.14 -13.2,0.11 -19.668,0.67 5.043,23.27 20.379,47.63 34.418,61.99 21.8,22.23 52.379,35.71 83.535,36.78 4.695,0.19 9.539,0.02 14.226,-0.48" /><path
         id="path494"
         style="fill:#28346f;fill-opacity:1;fill-rule:nonzero;stroke:none"
         d="m 774.262,3101.17 c -48.332,3.89 -87.207,49.62 -90.848,97.96 -3.648,48.35 23.324,95.79 62.266,124.67 38.941,28.89 88.25,41.04 136.699,42.88 53.16,2.01 113.012,-11.74 141.171,-56.87 36.33,-58.27 -2.19,-139.69 -61.948,-173.5 -59.766,-33.81 -132.25,-33.14 -200.891,-31.56 l 13.551,-3.58" /><path
         id="path496"
         style="fill:#f2ab8c;fill-opacity:1;fill-rule:nonzero;stroke:none"
         d="m 879.445,2828.49 v 0 c 32.539,0 58.914,26.38 58.914,58.91 v 112.18 H 820.535 V 2887.4 c 0,-32.53 26.375,-58.91 58.91,-58.91" /><path
         id="path498"
         style="fill:#ef7865;fill-opacity:1;fill-rule:nonzero;stroke:none"
         d="m 820.535,2941.06 v 58.52 h 117.824 v -91.55 c -18.136,-2.45 -86.699,-7.18 -117.824,33.03" /><path
         id="path500"
         style="fill:#f2ab8c;fill-opacity:1;fill-rule:nonzero;stroke:none"
         d="m 801.129,3271.36 c 65.715,73.05 187.324,39.26 208.141,-56.77 9.35,-43.08 15.06,-96.67 5.43,-150.15 -21.692,-120.53 -99.333,-169.7 -183.868,-127.69 -84.543,42 -88.355,214.04 -58.34,288.58 6.879,17.08 16.606,32.65 28.637,46.03" /><path
         id="path502"
         style="fill:#28346f;fill-opacity:1;fill-rule:nonzero;stroke:none"
         d="m 936.5,3263.96 c -27.832,-57.28 -77.59,-103.57 -136.73,-127.19 -16.317,-6.52 -34.313,-11.4 -51.344,-7.07 -22.391,5.71 -38.664,27.3 -41.809,50.19 -3.144,22.89 5.309,46.31 19.192,64.78 13.879,18.47 32.808,32.53 52.523,44.59 30.77,18.81 64.691,33.54 100.523,37.66 35.833,4.11 73.797,-3.17 102.7,-24.75 13.605,-10.17 24.785,-23.63 32.335,-38.84 5.46,-11.02 16.29,-36.01 8.04,-47.66 -16.06,-22.67 -74.02,36.04 -85.43,48.29" /><path
         id="path504"
         style="fill:#f2ab8c;fill-opacity:1;fill-rule:nonzero;stroke:none"
         d="m 739.609,3111.66 c 1.809,-17.19 17.2,-29.65 34.387,-27.85 17.184,1.81 29.652,17.2 27.852,34.38 -1.809,17.19 -17.2,29.66 -34.383,27.85 -17.188,-1.8 -29.656,-17.19 -27.856,-34.38" /><path
         id="path506"
         style="fill:#e98862;fill-opacity:1;fill-rule:nonzero;stroke:none"
         d="m 768.805,3099.88 c -8.309,0 -15.055,6.73 -15.055,15.05 0,8.31 6.746,15.05 15.055,15.05 8.316,0 15.054,-6.74 15.054,-15.05 0,-8.32 -6.738,-15.05 -15.054,-15.05" /><path
         id="path508"
         style="fill:#2553a7;fill-opacity:1;fill-rule:nonzero;stroke:none"
         d="M 3097.82,710.492 V 606.641 c 0,-9.559 6.3,-17.942 15.49,-20.571 37.99,-10.84 142.21,-36.699 272.22,-36.699 127.55,0 214.73,24.891 247.45,36.078 8.6,2.942 14.44,10.93 14.54,20.031 l 1.17,105.012 h -550.87" /><path
         id="path510"
         style="fill:#295fb1;fill-opacity:1;fill-rule:nonzero;stroke:none"
         d="m 3648.69,710.492 c 0,-22.242 -123.31,-40.281 -275.43,-40.281 -152.12,0 -275.44,18.039 -275.44,40.281 0,22.246 123.32,40.289 275.44,40.289 152.12,0 275.43,-18.043 275.43,-40.289" /><path
         id="path512"
         style="fill:#2553a7;fill-opacity:1;fill-rule:nonzero;stroke:none"
         d="m 3591.13,711.699 c 0,-17.359 -96.15,-31.418 -214.76,-31.418 -118.61,0 -214.77,14.059 -214.77,31.418 0,17.34 96.16,31.403 214.77,31.403 118.61,0 214.76,-14.063 214.76,-31.403" /><path
         id="path514"
         style="fill:#274391;fill-opacity:1;fill-rule:nonzero;stroke:none"
         d="M 3589.92,684.762 C 3447.08,662.41 3301.5,663 3153.91,685.422 v 100.789 h 435.64 l 0.37,-101.449" /><path
         id="path516"
         style="fill:#2553a7;fill-opacity:1;fill-rule:nonzero;stroke:none"
         d="m 3097.82,892.141 v -103.86 c 0,-9.562 6.3,-17.941 15.49,-20.57 37.99,-10.84 142.21,-36.699 272.22,-36.699 127.55,0 214.73,24.886 247.45,36.078 8.6,2.941 14.44,10.93 14.54,20.031 l 1.17,105.02 h -550.87" /><path
         id="path518"
         style="fill:#295fb1;fill-opacity:1;fill-rule:nonzero;stroke:none"
         d="m 3648.69,892.141 c 0,-22.25 -123.31,-40.289 -275.43,-40.289 -152.12,0 -275.44,18.039 -275.44,40.289 0,22.238 123.32,40.281 275.44,40.281 152.12,0 275.43,-18.043 275.43,-40.281" /><path
         id="path520"
         style="fill:#2553a7;fill-opacity:1;fill-rule:nonzero;stroke:none"
         d="m 3591.13,893.34 c 0,-17.36 -96.15,-31.418 -214.76,-31.418 -118.61,0 -214.77,14.058 -214.77,31.418 0,17.34 96.16,31.398 214.77,31.398 118.61,0 214.76,-14.058 214.76,-31.398" /><path
         id="path522"
         style="fill:#274391;fill-opacity:1;fill-rule:nonzero;stroke:none"
         d="m 3589.92,866.77 c -142.84,-22.348 -288.42,-21.75 -436.01,0.66 v 100.789 h 435.64 l 0.37,-101.449" /><path
         id="path524"
         style="fill:#2553a7;fill-opacity:1;fill-rule:nonzero;stroke:none"
         d="M 3097.82,1073.78 V 969.922 c 0,-9.563 6.3,-17.942 15.49,-20.57 37.99,-10.84 142.21,-36.704 272.22,-36.704 127.55,0 214.73,24.903 247.45,36.082 8.6,2.942 14.44,10.93 14.54,20.032 l 1.17,105.018 h -550.87" /><path
         id="path526"
         style="fill:#295fb1;fill-opacity:1;fill-rule:nonzero;stroke:none"
         d="m 3648.69,1073.78 c 0,-22.25 -123.31,-40.29 -275.43,-40.29 -152.12,0 -275.44,18.04 -275.44,40.29 0,22.24 123.32,40.28 275.44,40.28 152.12,0 275.43,-18.04 275.43,-40.28" /><path
         id="path528"
         style="fill:#2553a7;fill-opacity:1;fill-rule:nonzero;stroke:none"
         d="m 3591.13,1074.97 c 0,-17.35 -96.15,-31.41 -214.76,-31.41 -118.61,0 -214.77,14.06 -214.77,31.41 0,17.35 96.16,31.41 214.77,31.41 118.61,0 214.76,-14.06 214.76,-31.41" /><path
         id="path530"
         style="fill:#274391;fill-opacity:1;fill-rule:nonzero;stroke:none"
         d="m 3589.92,1048.79 c -142.84,-22.36 -288.42,-21.75 -436.01,0.65 v 100.79 h 435.64 l 0.37,-101.44" /><path
         id="path532"
         style="fill:#2553a7;fill-opacity:1;fill-rule:nonzero;stroke:none"
         d="m 3097.82,1240.87 v -103.86 c 0,-9.55 6.3,-17.94 15.49,-20.56 37.99,-10.85 142.21,-36.71 272.22,-36.71 127.55,0 214.73,24.9 247.45,36.08 8.6,2.94 14.44,10.93 14.54,20.03 l 1.17,105.02 h -550.87" /><path
         id="path534"
         style="fill:#295fb1;fill-opacity:1;fill-rule:nonzero;stroke:none"
         d="m 3648.69,1240.87 c 0,-22.25 -123.31,-40.29 -275.43,-40.29 -152.12,0 -275.44,18.04 -275.44,40.29 0,22.24 123.32,40.28 275.44,40.28 152.12,0 275.43,-18.04 275.43,-40.28" /><path
         id="path536"
         style="fill:#2553a7;fill-opacity:1;fill-rule:nonzero;stroke:none"
         d="m 3591.13,1242.07 c 0,-17.35 -96.15,-31.41 -214.76,-31.41 -118.61,0 -214.77,14.06 -214.77,31.41 0,17.34 96.16,31.4 214.77,31.4 118.61,0 214.76,-14.06 214.76,-31.4" /><path
         id="path538"
         style="fill:#1e2a52;fill-opacity:1;fill-rule:nonzero;stroke:none"
         d="m 7112.26,531.109 -202.32,-248.777 -13.28,10.797 202.32,248.781 13.28,-10.801" /><path
         id="path540"
         style="fill:#f2ab8c;fill-opacity:1;fill-rule:nonzero;stroke:none"
         d="m 6737.67,635.699 154.16,-122.418 c 0,0 109.05,106.938 104.81,112.59 -4.23,5.649 -152.79,148.527 -152.79,148.527 L 6737.67,635.699" /><path
         id="path542"
         style="fill:#274496;fill-opacity:1;fill-rule:nonzero;stroke:none"
         d="m 6885.01,506.082 47.59,-42.152 c 0,0 -98.63,-121.289 -35.94,-170.801 l 202.32,248.781 -104.79,96.012 -109.18,-131.84" /><path
         id="path544"
         style="fill:#ffffff;fill-opacity:1;fill-rule:nonzero;stroke:none"
         d="m 6908.71,426.922 c 5.87,2.508 12.3,3.769 18.74,3.769 8.32,0 16.65,-2.101 23.81,-6.171 2.4,-1.36 5.45,-0.52 6.82,1.89 1.36,2.399 0.52,5.449 -1.89,6.809 -8.76,4.972 -18.75,7.461 -28.74,7.472 -7.74,0 -15.49,-1.5 -22.67,-4.57 -2.54,-1.09 -3.72,-4.019 -2.63,-6.562 1.08,-2.539 4.02,-3.719 6.56,-2.637" /><path
         id="path546"
         style="fill:#ffffff;fill-opacity:1;fill-rule:nonzero;stroke:none"
         d="m 6892.58,402.281 c 5.87,2.508 12.3,3.758 18.75,3.758 8.32,0.012 16.65,-2.09 23.81,-6.16 2.41,-1.367 5.46,-0.52 6.82,1.883 1.36,2.398 0.52,5.449 -1.88,6.808 -8.77,4.981 -18.76,7.469 -28.75,7.469 -7.74,0 -15.49,-1.5 -22.67,-4.559 -2.54,-1.082 -3.72,-4.019 -2.64,-6.558 1.09,-2.543 4.02,-3.723 6.56,-2.641" /><path
         id="path548"
         style="fill:#ffffff;fill-opacity:1;fill-rule:nonzero;stroke:none"
         d="m 6880.98,375.941 c 5.86,2.5 12.29,3.758 18.73,3.758 8.32,0 16.65,-2.097 23.81,-6.16 2.41,-1.359 5.46,-0.519 6.82,1.883 1.36,2.398 0.52,5.449 -1.88,6.82 -8.77,4.969 -18.76,7.457 -28.75,7.457 -7.74,0 -15.49,-1.5 -22.67,-4.57 -2.54,-1.078 -3.71,-4.02 -2.63,-6.559 1.09,-2.539 4.03,-3.718 6.57,-2.629" /><path
         id="path550"
         style="fill:#274391;fill-opacity:1;fill-rule:nonzero;stroke:none"
         d="m 6773.12,1781.18 c 0,0 -134.37,-320.55 -155.75,-683.23 -6.87,-116.591 242.04,-255.97 346.58,-405.309 l -170.92,-146.02 c 0,0 -542.04,368.008 -511.08,667.059 23.64,228.37 56.49,453.42 109.52,560.86 l 381.65,6.64" /><path
         id="path552"
         style="fill:#1e2a52;fill-opacity:1;fill-rule:nonzero;stroke:none"
         d="m 6816.84,271.66 -320.62,-4.539 -0.25,17.109 320.63,4.54 0.24,-17.11" /><path
         id="path554"
         style="fill:#f2ab8c;fill-opacity:1;fill-rule:nonzero;stroke:none"
         d="m 6656.62,626.02 5.07,-196.79 c 0,0 152,-14.968 153.61,-8.089 1.61,6.859 15.82,212.488 15.82,212.488 l -174.5,-7.609" /><path
         id="path556"
         style="fill:#274496;fill-opacity:1;fill-rule:nonzero;stroke:none"
         d="m 6651.78,429.852 -1.75,-63.551 c 0,0 -156.32,-2.219 -154.06,-82.071 l 320.63,4.54 6.37,141.992 -171.19,-0.91" /><path
         id="path558"
         style="fill:#ffffff;fill-opacity:1;fill-rule:nonzero;stroke:none"
         d="m 6606.3,360.871 c 13.06,-6.609 22.88,-19.789 25.48,-34.172 0.49,-2.719 3.1,-4.519 5.81,-4.019 2.72,0.492 4.52,3.101 4.02,5.812 -3.24,17.59 -14.84,33.156 -30.77,41.297 -2.46,1.25 -5.47,0.27 -6.73,-2.187 -1.25,-2.473 -0.27,-5.481 2.19,-6.731" /><path
         id="path560"
         style="fill:#ffffff;fill-opacity:1;fill-rule:nonzero;stroke:none"
         d="m 6577.06,357.422 c 13.05,-6.613 22.87,-19.793 25.48,-34.18 0.5,-2.722 3.1,-4.523 5.82,-4.023 2.71,0.5 4.51,3.101 4.02,5.82 -3.26,17.582 -14.86,33.152 -30.79,41.293 -2.46,1.25 -5.47,0.27 -6.72,-2.191 -1.26,-2.461 -0.28,-5.469 2.19,-6.719" /><path
         id="path562"
         style="fill:#ffffff;fill-opacity:1;fill-rule:nonzero;stroke:none"
         d="m 6549.4,349.41 c 13.05,-6.601 22.87,-19.781 25.47,-34.18 0.5,-2.71 3.1,-4.511 5.82,-4.019 2.72,0.5 4.52,3.098 4.02,5.82 -3.24,17.59 -14.85,33.16 -30.78,41.289 -2.46,1.25 -5.47,0.27 -6.72,-2.191 -1.25,-2.457 -0.27,-5.469 2.19,-6.719" /><path
         id="path564"
         style="fill:#2553a7;fill-opacity:1;fill-rule:nonzero;stroke:none"
         d="m 6874.34,1784.5 c 0,0 -84.6,-321.66 -63.89,-686.14 10.97,-193.02 52.28,-390.778 62.23,-569.989 h -241.43 c 0,0 -101.98,233.961 -169.26,537.619 -49.48,223.33 1.74,477.4 -2.49,705.24 l 414.84,13.27" /><path
         id="path566"
         style="fill:#f2ab8c;fill-opacity:1;fill-rule:nonzero;stroke:none"
         d="m 6246.84,2305.15 c 0,0 -116.76,-339.4 -212.97,-478.34 l 91.27,-48.95 c 0,0 217.36,341.39 253.41,531.06 l -131.71,-3.77" /><path
         id="path568"
         style="fill:#b0c3e9;fill-opacity:1;fill-rule:nonzero;stroke:none"
         d="m 6477.47,2502.14 c 0,0 -182.07,13.36 -255.5,-212.58 l 161.74,-43.95 93.76,256.53" /><path
         id="path570"
         style="fill:#b0c3e9;fill-opacity:1;fill-rule:nonzero;stroke:none"
         d="m 6552.43,2514.62 c 0,0 356.26,35.34 343.48,-361.74 -9.12,-283.75 -21.57,-368.38 -21.57,-368.38 l -482.87,-9.96 -56.41,469.6 c 0,0 -79.66,265.5 217.37,270.48" /><path
         id="path572"
         style="fill:#f68537;fill-opacity:1;fill-rule:nonzero;stroke:none"
         d="m 6323.42,2095 237.72,-467.44 c 15.14,-29.79 3.32,-66.22 -26.47,-81.36 l -396.5,-201.64 c -29.79,-15.15 -66.24,-3.27 -81.38,26.51 l -274.01,538.8 c -15.15,29.78 -3.24,66.19 26.54,81.34 l 328.02,166.81 0.63,-0.51 185.45,-62.51" /><path
         id="path574"
         style="fill:#f4732b;fill-opacity:1;fill-rule:nonzero;stroke:none"
         d="m 6137.36,2158.02 62.6,-125.79 123.46,62.79 -186.06,63" /><path
         id="path576"
         style="fill:#e7f6fc;fill-opacity:1;fill-rule:nonzero;stroke:none"
         d="m 6331.39,2079.33 -7.97,15.67 h -0.02 l 0.02,0.02 7.97,-15.69" /><path
         id="path578"
         style="fill:#f57730;fill-opacity:1;fill-rule:nonzero;stroke:none"
         d="M 6199.96,2032.23 6323.4,2095 h 0.02 l 7.97,-15.67 -131.43,-47.1" /><path
         id="path580"
         style="fill:#f4732b;fill-opacity:1;fill-rule:nonzero;stroke:none"
         d="m 6516.83,1714.67 44.31,-87.11 c 15.14,-29.79 3.32,-66.22 -26.47,-81.36 l -396.5,-201.64 c -29.79,-15.15 -66.24,-3.27 -81.38,26.51 l -44.31,87.12 504.35,256.48" /><path
         id="path582"
         style="fill:#ffffff;fill-opacity:1;fill-rule:nonzero;stroke:none"
         d="m 6153.44,1494.33 15.96,-31.37 30.41,15.46 -15.96,31.38 18.43,9.37 41.53,-81.68 -18.41,-9.37 -17.39,34.18 -30.41,-15.47 17.39,-34.18 -18.43,-9.36 -41.53,81.68 18.41,9.36" /><path
         id="path584"
         style="fill:#ffffff;fill-opacity:1;fill-rule:nonzero;stroke:none"
         d="m 6242.17,1519.94 -22.06,-11.22 -7.89,15.51 62.78,31.92 7.89,-15.51 -22.3,-11.34 33.65,-66.17 -18.42,-9.36 -33.65,66.17" /><path
         id="path586"
         style="fill:#ffffff;fill-opacity:1;fill-rule:nonzero;stroke:none"
         d="m 6379.05,1545.62 c -5.35,9.64 -11.76,21.32 -17.79,33.2 l -0.25,-0.13 c 2.64,-11.78 5.16,-25.14 6.88,-36.3 l 6.27,-36.93 -14.43,-7.34 -24.74,27.08 c -7.6,8.34 -16.18,18.61 -23.67,28.22 l -0.24,-0.12 c 5.25,-11.21 11.17,-24.06 15.87,-34.48 l 14.2,-31.83 -17.09,-8.69 -36.32,84.32 24.59,12.51 21.88,-23.19 c 7.46,-8.1 15.05,-17.04 21.74,-25.69 l 0.49,0.25 c -2.63,10.56 -5.32,22.75 -7.16,33.27 l -5.19,31.52 24.24,12.32 45.89,-79.46 -17.93,-9.12 -17.24,30.59" /><path
         id="path588"
         style="fill:#ffffff;fill-opacity:1;fill-rule:nonzero;stroke:none"
         d="m 6387,1613.1 18.42,9.38 33.65,-66.16 32.47,16.51 7.89,-15.52 -50.9,-25.89 -41.53,81.68" /><path
         id="path590"
         style="fill:#ffffff;fill-opacity:1;fill-rule:nonzero;stroke:none"
         d="m 5967.86,1709.91 94.03,119.63 13.8,-27.12 -72.44,-88.03 0.25,-0.51 113.82,6.67 13.79,-27.12 -152.07,-5.52 -11.18,22" /><path
         id="path592"
         style="fill:#ffffff;fill-opacity:1;fill-rule:nonzero;stroke:none"
         d="m 6154.83,1692.95 -39.59,213.32 25.84,13.14 39.59,-213.32 -25.84,-13.14" /><path
         id="path594"
         style="fill:#ffffff;fill-opacity:1;fill-rule:nonzero;stroke:none"
         d="m 6339.34,1870.17 -94.44,-118.86 -13.79,27.11 74.48,89.09 -0.25,0.5 -115.86,-7.72 -13.79,27.12 151.68,6.3 11.97,-23.54" /><path
         id="path596"
         style="fill:#94aade;fill-opacity:1;fill-rule:nonzero;stroke:none"
         d="m 6483.04,1781.13 -50.89,100.07 c 102.23,100.54 212.97,241.36 250.19,289.68 l -18.76,12.94 135.41,237.19 c 0,0 127.73,-130.45 2.54,-332.36 l -13.58,9.36 c -80.86,-110.59 -221.83,-242.7 -304.91,-316.88" /><path
         id="path598"
         style="fill:#f36429;fill-opacity:1;fill-rule:nonzero;stroke:none"
         d="m 6341.41,1625.47 c -12.34,6.32 -9.12,19.6 -6.33,26.58 -2.5,-4.23 -7.52,-9.88 -16.37,-9.88 -2.38,0 -5.05,0.41 -8.01,1.36 -15.06,4.87 -6.2,20.14 -0.4,27.95 -3.79,-3.99 -10.19,-9.06 -18.26,-9.06 -3.65,0 -7.64,1.04 -11.88,3.67 0,0 -17.51,13.32 3.42,32.65 0,0 -6.6,-5.58 -14.76,-5.58 -4.35,0 -9.14,1.59 -13.62,6.44 0,0 -7.45,20.18 23.05,38.45 0,0 -19.89,-7.37 -34.95,-7.37 -8.83,0 -16,2.54 -16.52,10.6 -0.56,8.89 4.89,16.76 11.53,22.97 l 6.59,-12.94 36.07,45.4 c 10.7,5.55 26.25,10.25 48.27,10.25 5.2,0 10.77,-0.27 16.71,-0.84 26.59,19.24 56.02,45.41 86.2,75.08 l 50.89,-100.07 c -35.35,-31.56 -60.22,-52.64 -65.52,-57.11 l 0.02,-0.04 c 0,0 -11.94,-39.31 -47.76,-64.58 0,0 -2.88,-13.58 -8.69,-23.93 l -19.68,-10" /><path
         id="path600"
         style="fill:#f1521b;fill-opacity:1;fill-rule:nonzero;stroke:none"
         d="m 6347.01,1623.94 c -1.51,0 -3.1,0.35 -4.76,1.12 -0.29,0.13 -0.57,0.27 -0.84,0.41 l 19.68,10 c -3.58,-6.38 -8.27,-11.53 -14.08,-11.53" /><path
         id="path602"
         style="fill:#ffffff;fill-opacity:1;fill-rule:nonzero;stroke:none"
         d="m 6244.9,1751.31 -6.59,12.94 c 9.66,9.02 21.85,14.53 21.85,14.53 0,0 5.29,9.87 20.81,17.93 l -36.07,-45.4" /><path
         id="path604"
         style="fill:#f2ab8c;fill-opacity:1;fill-rule:nonzero;stroke:none"
         d="m 6690.97,2208.94 c 0,0 -212.6,-282.83 -349.5,-381.91 l 70.44,-83.06 c 0,0 307.53,257.85 404.54,424.78 l -125.48,40.19" /><path
         id="path606"
         style="fill:#b0c3e9;fill-opacity:1;fill-rule:nonzero;stroke:none"
         d="m 6794.51,2441.91 c 0,0 127.72,-130.45 2.55,-332.36 l -137.96,95.17 135.41,237.19" /><path
         id="path608"
         style="fill:#f2ab8c;fill-opacity:1;fill-rule:nonzero;stroke:none"
         d="m 6413.06,1744.88 c 0,0 -11.93,-39.3 -47.76,-64.57 0,0 -9.1,-42.84 -27.53,-34.36 -18.42,8.5 -5.06,31.51 -5.06,31.51 0,0 -5.97,-19.65 -26.49,-13.02 -20.53,6.64 3.42,32.66 3.42,32.66 0,0 -14.24,-22.35 -33.96,-10.11 0,0 -17.51,13.33 3.42,32.66 0,0 -15.49,-13.1 -28.38,0.85 0,0 -7.44,20.19 23.05,38.46 0,0 -50.08,-18.57 -51.47,3.22 -1.39,21.79 33.38,37.5 33.38,37.5 0,0 18.17,33.87 85.79,27.35 l 71.59,-82.15" /><path
         id="path610"
         style="fill:#f2ab8c;fill-opacity:1;fill-rule:nonzero;stroke:none"
         d="m 6553.28,2426.83 v 0 c -37.34,0 -67.61,30.28 -67.61,67.62 v 128.74 h 135.22 v -128.74 c 0,-37.34 -30.27,-67.62 -67.61,-67.62" /><path
         id="path612"
         style="fill:#ef7865;fill-opacity:1;fill-rule:nonzero;stroke:none"
         d="m 6620.89,2556.03 v 67.16 h -135.22 v -105.07 c 20.81,-2.82 99.49,-8.25 135.22,37.91" /><path
         id="path614"
         style="fill:#f2ab8c;fill-opacity:1;fill-rule:nonzero;stroke:none"
         d="m 6643.16,2935.09 c -75.41,83.84 -214.99,45.06 -238.88,-65.15 -10.72,-49.44 -17.28,-110.94 -6.23,-172.32 24.91,-138.33 114,-194.75 211.03,-146.55 97.02,48.2 101.39,245.65 66.94,331.2 -7.89,19.6 -19.05,37.47 -32.86,52.82" /><path
         id="path616"
         style="fill:#28346f;fill-opacity:1;fill-rule:nonzero;stroke:none"
         d="m 6690.68,2688.91 c 0,0 4.64,97.69 41.26,148.04 36.61,50.35 -5.51,88.89 -50.77,86.6 0,0 -104.87,183.65 -217,172.21 -1.13,-0.11 -2.24,-0.23 -3.34,-0.36 -100.42,-11.32 -160.43,-117.75 -119.55,-210.16 12.19,-27.58 28.88,-61.79 51.68,-103.22 0,0 -2.29,70.95 32.04,93.84 15.03,10.02 54.78,1.44 98.36,-7.13 55.93,-11.01 118.18,-22.01 142.62,6.29 0,0 -31.88,-101.26 24.7,-186.11" /><path
         id="path618"
         style="fill:#f2ab8c;fill-opacity:1;fill-rule:nonzero;stroke:none"
         d="m 6713.76,2751.82 c -2.06,-19.73 -19.73,-34.04 -39.46,-31.96 -19.72,2.07 -34.03,19.73 -31.96,39.45 2.07,19.72 19.74,34.03 39.45,31.97 19.73,-2.07 34.04,-19.74 31.97,-39.46" /><path
         id="path620"
         style="fill:#e98862;fill-opacity:1;fill-rule:nonzero;stroke:none"
         d="m 6680.26,2738.29 c -9.54,0 -17.27,7.73 -17.27,17.27 0,9.54 7.73,17.28 17.27,17.28 9.54,0 17.27,-7.74 17.27,-17.28 0,-9.54 -7.73,-17.27 -17.27,-17.27" /><path
         id="path622"
         style="fill:#d3e1f4;fill-opacity:1;fill-rule:nonzero;stroke:none"
         d="m 5544.37,1009.21 245.51,-446.421 -557.66,-306.68 -245.5,446.411 c -5.54,10.082 -1.86,22.761 8.23,28.312 l 521.12,286.588 c 10.09,5.55 22.75,1.86 28.3,-8.21" /><path
         id="path624"
         style="fill:#c8d5e5;fill-opacity:1;fill-rule:nonzero;stroke:none"
         d="m 5544.37,1009.21 13.39,-24.339 -557.66,-306.691 -13.38,24.34 c -5.54,10.082 -1.86,22.761 8.23,28.312 l 521.12,286.588 c 10.09,5.55 22.75,1.86 28.3,-8.21" /><path
         id="path626"
         style="fill:#ffffff;fill-opacity:1;fill-rule:nonzero;stroke:none"
         d="m 5032,720.238 c 2.92,-5.297 0.98,-11.957 -4.32,-14.879 -5.3,-2.918 -11.96,-0.988 -14.88,4.313 -2.92,5.308 -0.98,11.976 4.33,14.887 5.3,2.921 11.96,0.98 14.87,-4.321" /><path
         id="path628"
         style="fill:#ffffff;fill-opacity:1;fill-rule:nonzero;stroke:none"
         d="m 5060.23,735.762 c 2.92,-5.301 0.99,-11.961 -4.32,-14.871 -5.3,-2.922 -11.97,-0.993 -14.88,4.308 -2.92,5.301 -0.98,11.961 4.32,14.883 5.3,2.918 11.96,0.977 14.88,-4.32" /><path
         id="path630"
         style="fill:#ffffff;fill-opacity:1;fill-rule:nonzero;stroke:none"
         d="m 5088.46,751.289 c 2.91,-5.309 0.98,-11.969 -4.32,-14.887 -5.31,-2.91 -11.97,-0.972 -14.89,4.328 -2.91,5.301 -0.97,11.961 4.33,14.879 5.3,2.911 11.96,0.981 14.88,-4.32" /><path
         id="path632"
         style="fill:#ffffff;fill-opacity:1;fill-rule:nonzero;stroke:none"
         d="m 5570.66,914.93 -513.83,-282.578 -19.65,35.707 513.83,282.589 19.65,-35.718" /><path
         id="path634"
         style="fill:#ffffff;fill-opacity:1;fill-rule:nonzero;stroke:none"
         d="m 5596.79,866.602 -514.04,-282.7 -11.69,21.258 514.04,282.699 11.69,-21.257" /><path
         id="path636"
         style="fill:#ffffff;fill-opacity:1;fill-rule:nonzero;stroke:none"
         d="m 5616.22,831.27 -514.04,-282.7 -11.69,21.262 514.04,282.699 11.69,-21.261" /><path
         id="path638"
         style="fill:#ffffff;fill-opacity:1;fill-rule:nonzero;stroke:none"
         d="m 5635.65,795.93 -514.03,-282.688 -11.69,21.25 514.03,282.699 11.69,-21.261" /><path
         id="path640"
         style="fill:#ffffff;fill-opacity:1;fill-rule:nonzero;stroke:none"
         d="m 5730.07,618.789 -511.56,-281.34 -8.3,15.102 511.56,281.328 8.3,-15.09" /><path
         id="path642"
         style="fill:#ffffff;fill-opacity:1;fill-rule:nonzero;stroke:none"
         d="m 5743.87,593.691 -511.56,-281.339 -8.3,15.097 511.56,281.34 8.3,-15.098" /><path
         id="path644"
         style="fill:#ffffff;fill-opacity:1;fill-rule:nonzero;stroke:none"
         d="m 5757.68,568.59 -511.57,-281.34 -8.3,15.102 511.57,281.339 8.3,-15.101" /><path
         id="path646"
         style="fill:#ffffff;fill-opacity:1;fill-rule:nonzero;stroke:none"
         d="m 5332.01,439.34 -129.85,-71.399 -71.4,129.84 129.84,71.41 71.41,-129.851" /><path
         id="path648"
         style="fill:#ffffff;fill-opacity:1;fill-rule:nonzero;stroke:none"
         d="m 5564.84,567.391 -207.38,-114.051 -71.41,129.84 207.38,114.05 71.41,-129.839" /><path
         id="path650"
         style="fill:#ffffff;fill-opacity:1;fill-rule:nonzero;stroke:none"
         d="m 5714.7,649.801 -129.84,-71.403 -71.41,129.844 129.85,71.406 71.4,-129.847" /><path
         id="path652"
         style="fill:#e2eefa;fill-opacity:1;fill-rule:nonzero;stroke:none"
         d="M 5481.31,1007.05 5734.33,546.98 5159.62,230.91 4906.61,690.98 c -5.72,10.391 -1.93,23.45 8.47,29.172 l 537.06,295.358 c 10.4,5.72 23.46,1.93 29.17,-8.46" /><path
         id="path654"
         style="fill:#d6e3f3;fill-opacity:1;fill-rule:nonzero;stroke:none"
         d="m 5481.31,1007.05 13.79,-25.081 -574.7,-316.071 -13.79,25.082 c -5.72,10.391 -1.93,23.45 8.47,29.172 l 537.06,295.358 c 10.4,5.72 23.46,1.93 29.17,-8.46" /><path
         id="path656"
         style="fill:#ffffff;fill-opacity:1;fill-rule:nonzero;stroke:none"
         d="m 4953.27,709.242 c 3.01,-5.461 1.01,-12.332 -4.46,-15.34 -5.45,-3.004 -12.32,-1.004 -15.33,4.457 -3.01,5.461 -1.01,12.332 4.46,15.34 5.46,3.012 12.33,1.012 15.33,-4.457" /><path
         id="path658"
         style="fill:#ffffff;fill-opacity:1;fill-rule:nonzero;stroke:none"
         d="m 4982.36,725.238 c 3.01,-5.457 1.02,-12.316 -4.45,-15.328 -5.46,-3.012 -12.33,-1.019 -15.34,4.449 -3,5.461 -1.01,12.34 4.46,15.332 5.47,3.008 12.33,1.02 15.33,-4.453" /><path
         id="path660"
         style="fill:#ffffff;fill-opacity:1;fill-rule:nonzero;stroke:none"
         d="m 5011.45,741.25 c 3.01,-5.469 1.02,-12.34 -4.45,-15.352 -5.46,-3 -12.33,-1.007 -15.33,4.461 -3.01,5.473 -1.02,12.332 4.45,15.34 5.46,3 12.33,1.012 15.33,-4.449" /><path
         id="path662"
         style="fill:#ffffff;fill-opacity:1;fill-rule:nonzero;stroke:none"
         d="m 5508.4,909.891 -529.55,-291.219 -20.24,36.808 529.55,291.219 20.24,-36.808" /><path
         id="path664"
         style="fill:#ffffff;fill-opacity:1;fill-rule:nonzero;stroke:none"
         d="m 5535.34,860.082 -529.77,-291.344 -12.05,21.903 529.77,291.351 12.05,-21.91" /><path
         id="path666"
         style="fill:#ffffff;fill-opacity:1;fill-rule:nonzero;stroke:none"
         d="m 5555.36,823.672 -529.76,-291.34 -12.05,21.898 529.77,291.34 12.04,-21.898" /><path
         id="path668"
         style="fill:#ffffff;fill-opacity:1;fill-rule:nonzero;stroke:none"
         d="m 5575.39,787.25 -529.77,-291.34 -12.04,21.91 529.76,291.34 12.05,-21.91" /><path
         id="path670"
         style="fill:#ffffff;fill-opacity:1;fill-rule:nonzero;stroke:none"
         d="m 5672.7,604.68 -527.22,-289.938 -8.55,15.559 527.22,289.937 8.55,-15.558" /><path
         id="path672"
         style="fill:#ffffff;fill-opacity:1;fill-rule:nonzero;stroke:none"
         d="m 5686.92,578.82 -527.21,-289.949 -8.56,15.57 527.22,289.938 8.55,-15.559" /><path
         id="path674"
         style="fill:#ffffff;fill-opacity:1;fill-rule:nonzero;stroke:none"
         d="m 5701.15,552.961 -527.22,-289.949 -8.55,15.558 527.21,289.942 8.56,-15.551" /><path
         id="path676"
         style="fill:#ffffff;fill-opacity:1;fill-rule:nonzero;stroke:none"
         d="m 5262.45,419.75 -133.81,-73.59 -73.59,133.82 133.81,73.59 73.59,-133.82" /><path
         id="path678"
         style="fill:#ffffff;fill-opacity:1;fill-rule:nonzero;stroke:none"
         d="m 5502.41,551.719 -213.72,-117.539 -73.6,133.812 213.72,117.539 73.6,-133.812" /><path
         id="path680"
         style="fill:#ffffff;fill-opacity:1;fill-rule:nonzero;stroke:none"
         d="m 5656.85,636.66 -133.81,-73.601 -73.59,133.82 133.82,73.601 73.58,-133.82" /><path
         id="path682"
         style="fill:#f68537;fill-opacity:1;fill-rule:nonzero;stroke:none"
         d="m 5773.92,157.34 h -699.98 v 505.551 h 699.98 V 157.34" /><path
         id="path684"
         style="fill:#f57630;fill-opacity:1;fill-rule:nonzero;stroke:none"
         d="m 5079.12,157.34 h -201.97 v 505.551 h 201.97 V 157.34" /><path
         id="path686"
         style="fill:#f79354;fill-opacity:1;fill-rule:nonzero;stroke:none"
         d="m 5079.5,662.891 45.83,-166.661 h 712.48 l -63.89,166.661 H 5079.5" /><path
         id="path688"
         style="fill:#f68537;fill-opacity:1;fill-rule:nonzero;stroke:none"
         d="m 5079.12,662.891 -52.75,-165.789 -206.94,-0.18 58.33,165.969 h 201.36" /></g></g></svg>