<svg height="512" viewBox="0 0 74 74" width="512" xmlns="http://www.w3.org/2000/svg"><g id="color_line" data-name="color line"><path d="m29.408 19.563-6.772-11.545 10.481-2.601 3.859 2.292 13.484-1.236-5.888 13.09z" fill="#fcd462"/><path d="m47 6.792v.022l.08-.007-5.73 12.76h3.22l5.89-13.09z" fill="#f7be56"/><path d="m44.881 23.193h-15.761c-7.51 7.351-16.83 19.122-16.83 29.9 0 14.516 11.063 17.826 24.71 17.826s24.71-3.313 24.71-17.829c0-10.775-9.319-22.547-16.829-29.897z" fill="#fcd462"/><path d="m44.881 23.193h-15.761c-7.51 7.351-16.83 19.122-16.83 29.9 0 14.516 11.063 17.826 24.71 17.826s24.71-3.313 24.71-17.829c0-10.775-9.319-22.547-16.829-29.897z" fill="#fcd462"/><path d="m61.71 53.087c0 14.52-11.06 17.83-24.71 17.83-7.41 0-14.07-.98-18.59-4.21 4.22 1.82 9.56 2.42 15.38 2.42 13.64 0 24.71-3.31 24.71-17.83 0-9.94-7.92-20.72-15.04-28.1h1.42c7.51 7.35 16.83 19.12 16.83 29.89z" fill="#f7be56"/><circle cx="37" cy="48.284" fill="#f7be56" r="12.201"/><g fill="#323c6b"><path d="m37 60.985a12.7 12.7 0 1 1 12.7-12.7 12.715 12.715 0 0 1 -12.7 12.7zm0-24.4a11.7 11.7 0 1 0 11.7 11.7 11.714 11.714 0 0 0 -11.7-11.702z"/><path d="m37 55.211a3.718 3.718 0 0 1 -3.714-3.711.5.5 0 0 1 1 0 2.714 2.714 0 1 0 2.714-2.716 3.714 3.714 0 1 1 3.714-3.713.5.5 0 0 1 -1 0 2.714 2.714 0 1 0 -2.714 2.713 3.714 3.714 0 1 1 0 7.427z"/><path d="m37 42.357a.5.5 0 0 1 -.5-.5v-1.011a.5.5 0 0 1 1 0v1.011a.5.5 0 0 1 -.5.5z"/><path d="m37 56.223a.5.5 0 0 1 -.5-.5v-1.012a.5.5 0 0 1 1 0v1.011a.5.5 0 0 1 -.5.501z"/><path d="m38.562 5.052a.5.5 0 0 1 -.045-1l7.594-.7a.5.5 0 1 1 .092 1l-7.594.7z"/><path d="m48.5 4.14a.5.5 0 0 1 -.045-1l.994-.091a.5.5 0 1 1 .092 1l-.994.091z"/><path d="m11.373 63.458a.5.5 0 0 1 -.447-.277 22.5 22.5 0 0 1 -2.136-10.091c0-.16.006-.32.013-.479l.007-.211a.5.5 0 0 1 .5-.485h.016a.5.5 0 0 1 .484.515l-.008.217c-.006.147-.012.294-.012.441a21.532 21.532 0 0 0 2.03 9.646.5.5 0 0 1 -.447.723z"/><path d="m9.551 50.208a.462.462 0 0 1 -.073-.005.5.5 0 0 1 -.423-.567c.03-.206.068-.411.105-.617l.056-.312a.5.5 0 0 1 .986.17l-.059.322c-.035.194-.07.388-.1.583a.5.5 0 0 1 -.492.426z"/><path d="m44.571 20.063h-15.164a.5.5 0 0 1 -.432-.247l-6.77-11.545a.5.5 0 0 1 .312-.738l10.483-2.602a.5.5 0 0 1 .375.056l3.718 2.213 13.321-1.225a.482.482 0 0 1 .453.208.5.5 0 0 1 .049.5l-5.889 13.09a.5.5 0 0 1 -.456.29zm-14.878-1h14.555l5.4-12.014-12.626 1.159a.51.51 0 0 1 -.3-.068l-3.685-2.189-9.631 2.391z"/></g><rect fill="#e1e6e9" height="4.213" rx="2.107" width="19.25" x="27.375" y="18.979"/><path d="m44.519 23.692h-15.038a2.607 2.607 0 0 1 0-5.213h15.038a2.607 2.607 0 0 1 0 5.213zm-15.038-4.213a1.607 1.607 0 0 0 0 3.213h15.038a1.607 1.607 0 0 0 0-3.213z" fill="#323c6b"/><path d="m37 71.417c-10.822 0-25.21-1.9-25.21-18.326 0-12.306 11.874-25.258 16.979-30.255a.5.5 0 0 1 .35-.143h15.762a.5.5 0 0 1 .35.143c5.105 5 16.979 17.949 16.979 30.255 0 16.426-14.388 18.326-25.21 18.326zm-7.677-47.725c-5.091 5.008-16.533 17.585-16.533 29.398 0 11.982 7.467 17.326 24.21 17.326s24.21-5.343 24.21-17.326c0-11.813-11.442-24.39-16.533-29.4z" fill="#323c6b"/><path d="m43.083 34.307a.646.646 0 0 1 -.25-.05c-.175-.073-.351-.144-.529-.211a.65.65 0 0 1 .463-1.215c.19.073.38.148.566.226a.65.65 0 0 1 -.25 1.25z" fill="#fff"/><path d="m52.018 43.817a.651.651 0 0 1 -.615-.44 15.321 15.321 0 0 0 -5.88-7.67.65.65 0 1 1 .729-1.076 16.628 16.628 0 0 1 6.382 8.326.651.651 0 0 1 -.615.861z" fill="#fff"/></g></svg>