<svg height="512" viewBox="0 0 74 74" width="512" xmlns="http://www.w3.org/2000/svg"><g id="color_line" data-name="color line"><path d="m10.793 39.053h10.148v27.08h-10.148z" fill="#bbbbcd"/><path d="m53.059 27.945h10.148v38.188h-10.148z" fill="#27ccbc"/><path d="m38.967 43.127h10.148v23.005h-10.148z" fill="#fcd462"/><path d="m24.875 34.208h10.158v31.924h-10.158z" fill="#fe7058"/><path d="m20.94 39.057v27.08h-3v-24.26h-7.15v-2.82z" fill="#9297ab"/><path d="m63.21 27.947v38.19h-3v-35.37h-7.15v-2.82z" fill="#21b3a9"/><path d="m49.12 43.127v23.01h-3v-20.19h-7.15v-2.82z" fill="#f7be56"/><path d="m35.03 34.207v31.93h-3v-29.11h-7.15v-2.82z" fill="#ea6453"/><path d="m5.793 66.132h62.413v3.784h-62.413z" fill="#d5d6db"/><path d="m68.207 70.417h-62.414a.5.5 0 0 1 -.5-.5v-3.785a.5.5 0 0 1 .5-.5h62.414a.5.5 0 0 1 .5.5v3.784a.5.5 0 0 1 -.5.501zm-61.913-1h61.413v-2.785h-61.414z" fill="#323c6b"/><path d="m15.867 33.193a.5.5 0 0 1 -.295-.9l14.088-10.257a.5.5 0 0 1 .52-.042l13.8 6.958 16.98-13.51a.5.5 0 0 1 .623.782l-17.23 13.71a.5.5 0 0 1 -.537.055l-13.816-6.965-13.839 10.076a.5.5 0 0 1 -.294.093z" fill="#323c6b"/><path d="m60.1 22.9a.5.5 0 0 1 -.493-.588l1.077-6.021-6.528-.457a.5.5 0 0 1 -.464-.533.509.509 0 0 1 .533-.464l7.084.5a.5.5 0 0 1 .458.586l-1.179 6.567a.5.5 0 0 1 -.488.41z" fill="#323c6b"/><path d="m28.98 16.107a9.745 9.745 0 1 1 -13.27-12.26l4.15 8.81z" fill="#27ccbc"/><path d="m19.86 22.907a10.245 10.245 0 0 1 -4.36-19.512.5.5 0 0 1 .382-.019.5.5 0 0 1 .283.258l4.064 8.627 8.931 3.378a.5.5 0 0 1 .291.645 10.3 10.3 0 0 1 -9.591 6.623zm-4.383-18.383a9.245 9.245 0 1 0 12.846 11.869l-8.64-3.268a.5.5 0 0 1 -.275-.255z" fill="#323c6b"/><path d="m29.61 12.657a9.606 9.606 0 0 1 -.63 3.45l-9.12-3.45 9.01-3.73a9.658 9.658 0 0 1 .74 3.73z" fill="#fcd462"/><path d="m28.98 16.606a.5.5 0 0 1 -.177-.032l-9.12-3.45a.5.5 0 0 1 -.015-.93l9.01-3.73a.5.5 0 0 1 .653.27 10.267 10.267 0 0 1 .115 7.551.5.5 0 0 1 -.466.321zm-7.762-3.971 7.46 2.822a9.3 9.3 0 0 0 -.09-5.873z" fill="#323c6b"/><path d="m28.87 8.927-9.01 3.73-4.15-8.81a9.6 9.6 0 0 1 4.15-.93 9.748 9.748 0 0 1 9.01 6.01z" fill="#fe7058"/><g fill="#323c6b"><path d="m19.86 13.157a.5.5 0 0 1 -.452-.287l-4.15-8.81a.5.5 0 0 1 .242-.66 10.062 10.062 0 0 1 4.365-.979 10.234 10.234 0 0 1 9.472 6.318.5.5 0 0 1 -.27.654l-9.01 3.73a.5.5 0 0 1 -.197.034zm-3.48-9.057 3.729 7.916 8.091-3.354a9.234 9.234 0 0 0 -8.34-5.245 9.1 9.1 0 0 0 -3.48.683z"/><path d="m7.793 42.1a.5.5 0 0 1 -.5-.5v-5.547a.5.5 0 0 1 .5-.5h3a.5.5 0 0 1 0 1h-2.5v5.047a.5.5 0 0 1 -.5.5z"/><path d="m13.959 36.553h-.792a.5.5 0 0 1 0-1h.792a.5.5 0 0 1 0 1z"/><path d="m66.207 46.823a.5.5 0 0 1 -.5-.5v-.692a.5.5 0 0 1 1 0v.692a.5.5 0 0 1 -.5.5z"/><path d="m66.207 56.854a.5.5 0 0 1 -.5-.5v-7.69a.5.5 0 0 1 1 0v7.69a.5.5 0 0 1 -.5.5z"/><path d="m20.941 66.632h-10.148a.5.5 0 0 1 -.5-.5v-27.079a.5.5 0 0 1 .5-.5h10.148a.5.5 0 0 1 .5.5v27.08a.5.5 0 0 1 -.5.499zm-9.648-1h9.148v-26.079h-9.148z"/><path d="m63.207 66.632h-10.148a.5.5 0 0 1 -.5-.5v-38.187a.5.5 0 0 1 .5-.5h10.148a.5.5 0 0 1 .5.5v38.187a.5.5 0 0 1 -.5.5zm-9.648-1h9.148v-37.187h-9.148z"/><path d="m49.115 66.632h-10.148a.5.5 0 0 1 -.5-.5v-23a.5.5 0 0 1 .5-.5h10.148a.5.5 0 0 1 .5.5v23a.5.5 0 0 1 -.5.5zm-9.648-1h9.148v-22h-9.148z"/><path d="m35.033 66.632h-10.158a.5.5 0 0 1 -.5-.5v-31.924a.5.5 0 0 1 .5-.5h10.158a.5.5 0 0 1 .5.5v31.924a.5.5 0 0 1 -.5.5zm-9.658-1h9.158v-30.924h-9.158z"/></g><path d="m27.937 61.023a.577.577 0 0 1 -.577-.577v-.615a.577.577 0 1 1 1.155 0v.615a.577.577 0 0 1 -.578.577z" fill="#fff"/><path d="m27.937 58.329a.577.577 0 0 1 -.577-.577v-5.564a.577.577 0 1 1 1.155 0v5.564a.577.577 0 0 1 -.578.577z" fill="#fff"/></g></svg>