<svg width="512.001" height="512.001" xmlns="http://www.w3.org/2000/svg">

 <g>
  <title>background</title>
  <rect fill="none" id="canvas_background" height="402" width="582" y="-1" x="-1"/>
 </g>
 <g>
  <title>Layer 1</title>
  <g id="svg_1">
   <g id="svg_2">
    <circle fill="#a6e64d" id="svg_3" r="17.302" cy="394.611" cx="110.202"/>
   </g>
  </g>
  <g id="svg_4">
   <g id="svg_5">
    <path fill="#a6e64d" id="svg_6" d="m501.619,301.273c0,-8.503 -2.634,-16.4 -7.121,-22.929c10.566,-7.335 17.503,-19.547 17.503,-33.354c0,-22.378 -18.206,-40.585 -40.583,-40.585l-106.695,0l6.758,-15.152c9.88,-22.156 14.916,-45.692 14.968,-69.951c0,0 0.061,-29.607 0.061,-29.773c0,-22.999 -18.711,-41.711 -41.711,-41.711c-17.096,0 -32.282,10.241 -38.688,26.092c-0.282,0.699 -9.989,29.296 -9.989,29.296c-8.753,25.429 -24.283,47.989 -44.908,65.245l-49.492,41.403l-28.612,0l0,-13.061c0,-13.721 -11.163,-24.885 -24.885,-24.885l-123.34,0c-13.722,0 -24.885,11.163 -24.885,24.885l0,242.506c0,13.721 11.163,24.885 24.885,24.885l123.338,0c13.721,0 24.885,-11.163 24.885,-24.885l0,-19.48l15.621,0l15.509,7.497c36.688,17.734 77.618,27.108 118.367,27.108l56.72,0l17.302,0l43.644,0c22.378,0 40.585,-18.206 40.585,-40.583c0,-8.503 -2.634,-16.4 -7.121,-22.929c10.566,-7.335 17.503,-19.547 17.503,-33.354c0,-8.503 -2.634,-16.4 -7.121,-22.929c10.566,-7.335 17.502,-19.548 17.502,-33.356zm-353.396,138.026l-123.338,0l0,-242.507l123.338,0l0.016,242.506c0,0 -0.005,0.001 -0.016,0.001zm323.195,-178.608l-17.706,0c-6.872,0 -12.442,5.57 -12.442,12.442c0,6.872 5.57,12.442 12.442,12.442l7.324,0c8.657,0 15.7,7.042 15.7,15.7s-7.042,15.7 -15.7,15.7l-17.704,0c-6.872,0 -12.442,5.57 -12.442,12.442s5.57,12.442 12.442,12.442l7.324,0c8.656,0 15.7,7.042 15.7,15.7c0,8.656 -7.042,15.699 -15.7,15.699l-17.704,0c-6.872,0 -12.442,5.57 -12.442,12.442s5.57,12.442 12.442,12.442l7.324,0c8.657,0 15.7,7.044 15.7,15.7c-0.002,8.654 -7.045,15.696 -15.702,15.696l-43.644,0l-17.302,0l-56.72,0c-37.021,0 -74.206,-8.516 -107.537,-24.627l-18.075,-8.737c-1.688,-0.816 -3.54,-1.241 -5.415,-1.241l-18.471,0l0,-160.196l33.13,0c2.919,0 5.745,-1.026 7.983,-2.899l52.957,-44.302c24.1,-20.16 42.244,-46.521 52.471,-76.232c0,0 9.9,-28.823 9.958,-29.019c2.79,-5.852 8.64,-9.582 15.191,-9.582c9.278,0 16.826,7.548 16.826,16.826c0,0.165 -0.061,29.721 -0.061,29.721c-0.044,20.764 -4.354,40.906 -12.811,59.869l-14.493,32.502c-1.27,2.849 -1.374,5.918 -0.53,8.685c0.071,0.245 2.758,8.986 11.946,8.986l125.743,0c8.656,0 15.699,7.042 15.699,15.7c-0.003,8.656 -7.045,15.699 -15.701,15.699z"/>
   </g>
  </g>
  <g id="svg_7"/>
  <g id="svg_8"/>
  <g id="svg_9"/>
  <g id="svg_10"/>
  <g id="svg_11"/>
  <g id="svg_12"/>
  <g id="svg_13"/>
  <g id="svg_14"/>
  <g id="svg_15"/>
  <g id="svg_16"/>
  <g id="svg_17"/>
  <g id="svg_18"/>
  <g id="svg_19"/>
  <g id="svg_20"/>
  <g id="svg_21"/>
 </g>
</svg>