<?xml version="1.0" encoding="UTF-8" standalone="no"?>
<svg
   xmlns:dc="http://purl.org/dc/elements/1.1/"
   xmlns:cc="http://creativecommons.org/ns#"
   xmlns:rdf="http://www.w3.org/1999/02/22-rdf-syntax-ns#"
   xmlns:svg="http://www.w3.org/2000/svg"
   xmlns="http://www.w3.org/2000/svg"
   viewBox="0 0 556.96002 512.22668"
   height="512.22668"
   width="556.96002"
   xml:space="preserve"
   id="svg2"
   version="1.1"><metadata
     id="metadata8"><rdf:RDF><cc:Work
         rdf:about=""><dc:format>image/svg+xml</dc:format><dc:type
           rdf:resource="http://purl.org/dc/dcmitype/StillImage" /></cc:Work></rdf:RDF></metadata><defs
     id="defs6" /><g
     transform="matrix(1.3333333,0,0,-1.3333333,0,512.22667)"
     id="g10"><g
       transform="scale(0.1)"
       id="g12"><path
         id="path14"
         style="fill:#6a86ca;fill-opacity:1;fill-rule:nonzero;stroke:none"
         d="m 3886.85,2008.2 c 0,-1012.63 -820.9,-1833.528 -1833.53,-1833.528 -1012.64,0 -1833.543,820.898 -1833.543,1833.528 0,1012.64 820.903,1833.54 1833.543,1833.54 1012.63,0 1833.53,-820.9 1833.53,-1833.54" /><path
         id="path16"
         style="fill:#ffffff;fill-opacity:1;fill-rule:nonzero;stroke:none"
         d="M 315.117,640.289 1120.82,910.93 748.871,2018.28 125.91,1809.04 10.0039,1548.72 315.117,640.289" /><path
         id="path18"
         style="fill:#6a86ca;fill-opacity:1;fill-rule:nonzero;stroke:none"
         d="m 315.117,640.289 3.188,-9.48 805.705,270.64 c 5.23,1.762 8.05,7.43 6.29,12.66 L 758.355,2021.46 c -1.761,5.24 -7.429,8.06 -12.664,6.3 L 122.727,1818.52 c -2.641,-0.88 -4.821,-2.87 -5.954,-5.41 L 0.867188,1552.79 c -1.023438,-2.3 -1.144532,-4.87 -0.34375,-7.25 L 305.641,637.109 c 0.836,-2.5 2.668,-4.597 5.027,-5.769 2.359,-1.18 5.137,-1.371 7.637,-0.531 l -3.188,9.48 9.481,3.191 -303.8753,904.73 112.5353,252.75 609.32,204.66 L 1108.16,917.219 311.934,649.77 l 3.183,-9.481 9.481,3.191 -9.481,-3.191" /><path
         id="path20"
         style="fill:#6a86ca;fill-opacity:1;fill-rule:nonzero;stroke:none"
         d="M 125.91,1809.04 192.734,1610.09 9.99609,1548.71 125.91,1809.04" /><path
         id="path22"
         style="fill:#dde7e9;fill-opacity:1;fill-rule:nonzero;stroke:none"
         d="m 22.0703,1551.24 0.7969,1.79 169.8668,57.06 -62.117,184.94 0.715,1.61 89.109,-203.82 -198.3707,-41.58" /><path
         id="path24"
         style="fill:#5e7cbd;fill-opacity:1;fill-rule:nonzero;stroke:none"
         d="m 9.99609,1548.71 12.87111,4.32 -0.7969,-1.79 -12.07421,-2.53 m 120.62091,246.32 -4.707,14.01 5.422,-12.4 -0.715,-1.61" /><path
         id="path26"
         style="fill:#5e7cbd;fill-opacity:1;fill-rule:nonzero;stroke:none"
         d="m 192.734,1610.09 -66.824,198.95 4.707,-14.01 62.117,-184.94" /><path
         id="path28"
         style="fill:#dadbd8;fill-opacity:1;fill-rule:nonzero;stroke:none"
         d="m 569.383,1608.1 -10.988,32.71 218.035,73.23 10.984,-32.7 -218.031,-73.24" /><path
         id="path30"
         style="fill:#dadbd8;fill-opacity:1;fill-rule:nonzero;stroke:none"
         d="m 436.445,1522.73 -5.496,16.34 363.266,122.02 4.101,-12.19 -0.461,-4.78 -361.41,-121.39" /><path
         id="path32"
         style="fill:#dadbd8;fill-opacity:1;fill-rule:nonzero;stroke:none"
         d="m 646.719,893.422 -5.496,16.348 363.267,122.02 5.49,-16.35 -363.261,-122.018" /><path
         id="path34"
         style="fill:#dadbd8;fill-opacity:1;fill-rule:nonzero;stroke:none"
         d="m 812.918,915.871 -5.492,16.359 207.134,69.57 5.5,-16.339 -207.142,-69.59" /><path
         id="path36"
         style="fill:#dadbd8;fill-opacity:1;fill-rule:nonzero;stroke:none"
         d="m 199.328,1286.31 -9.785,29.12 595.898,200.15 -3.234,-33.48 -582.879,-195.79" /><path
         id="path38"
         style="fill:#dadbd8;fill-opacity:1;fill-rule:nonzero;stroke:none"
         d="m 219.211,1227.11 -9.773,29.11 569.425,191.26 -3.234,-33.47 -556.418,-186.9" /><path
         id="path40"
         style="fill:#dadbd8;fill-opacity:1;fill-rule:nonzero;stroke:none"
         d="m 239.098,1167.9 -9.782,29.13 542.969,182.35 -3.23,-33.47 -529.957,-178.01" /><path
         id="path42"
         style="fill:#dadbd8;fill-opacity:1;fill-rule:nonzero;stroke:none"
         d="m 258.988,1108.69 -9.781,29.12 516.504,173.48 -3.234,-33.47 -503.489,-169.13" /><path
         id="path44"
         style="fill:#dadbd8;fill-opacity:1;fill-rule:nonzero;stroke:none"
         d="m 278.867,1049.49 -9.773,29.11 490.23,164.67 c -0.219,-10.87 2.406,-21.09 7.149,-30 L 278.867,1049.49" /><path
         id="path46"
         style="fill:#dadbd8;fill-opacity:1;fill-rule:nonzero;stroke:none"
         d="m 298.758,990.289 -9.781,29.101 502.281,168.72 c 8.824,-4.89 18.926,-7.66 29.582,-7.66 3.816,0 7.707,0.36 11.633,1.1 l 81.781,15.47 -615.496,-206.731" /><path
         id="path48"
         style="fill:#dadbd8;fill-opacity:1;fill-rule:nonzero;stroke:none"
         d="m 318.641,931.082 -9.778,29.109 646.715,217.219 9.785,-29.11 -646.722,-217.218" /><path
         id="path50"
         style="fill:#dadbd8;fill-opacity:1;fill-rule:nonzero;stroke:none"
         d="m 338.527,871.871 -9.773,29.109 646.711,217.23 9.777,-29.12 -646.715,-217.219" /><path
         id="path52"
         style="fill:#dadbd8;fill-opacity:1;fill-rule:nonzero;stroke:none"
         d="m 445.988,1494.32 -5.492,16.33 356.02,119.59 -1.817,-18.81 -348.711,-117.11" /><path
         id="path54"
         style="fill:#dadbd8;fill-opacity:1;fill-rule:nonzero;stroke:none"
         d="m 455.539,1465.88 -5.492,16.36 343.308,115.31 -1.816,-18.82 -336,-112.85" /><path
         id="path56"
         style="fill:#ffffff;fill-opacity:1;fill-rule:nonzero;stroke:none"
         d="m 3563.26,1192.22 c -4.31,0.04 -8.11,2.85 -9.42,6.95 l -37.22,116.5 c -46.35,3.78 -82.91,42.71 -82.91,90.01 v 339.35 c 0,49.79 40.52,90.31 90.31,90.31 h 552.84 c 49.8,0 90.3,-40.52 90.3,-90.31 v -339.35 c 0,-49.79 -40.5,-90.31 -90.3,-90.31 h -464.05 l -39.99,-116.41 c -1.39,-4.04 -5.19,-6.74 -9.45,-6.74 h -0.11" /><path
         id="path58"
         style="fill:#6a86ca;fill-opacity:1;fill-rule:nonzero;stroke:none"
         d="m 4076.86,1845.34 h -552.84 c -55.31,0 -100.31,-45 -100.31,-100.31 v -339.35 c 0,-50.22 37.11,-91.95 85.35,-99.2 l 35.25,-110.35 c 2.62,-8.21 10.22,-13.82 18.83,-13.9 l 0.23,-0.01 c 8.52,0 16.13,5.42 18.9,13.5 l 37.68,109.65 h 456.91 c 55.31,0 100.3,45 100.3,100.31 v 339.35 c 0,55.31 -44.99,100.31 -100.3,100.31 z m 0,-20 c 44.36,0 80.3,-35.96 80.3,-80.31 v -339.35 c 0,-44.35 -35.94,-80.31 -80.3,-80.31 h -471.19 l -42.31,-123.15 -39.34,123.15 c -44.36,0 -80.31,35.96 -80.31,80.31 v 339.35 c 0,44.35 35.95,80.31 80.31,80.31 h 552.84" /><path
         id="path60"
         style="fill:#6a86ca;fill-opacity:1;fill-rule:nonzero;stroke:none"
         d="m 3647.41,1583.44 c 0,-23.66 19.18,-42.84 42.83,-42.84 23.65,0 42.83,19.18 42.83,42.84 0,23.65 -19.18,42.83 -42.83,42.83 -23.65,0 -42.83,-19.18 -42.83,-42.83" /><path
         id="path62"
         style="fill:#6a86ca;fill-opacity:1;fill-rule:nonzero;stroke:none"
         d="m 3763.7,1583.44 c 0,-23.66 19.17,-42.84 42.83,-42.84 23.65,0 42.83,19.18 42.83,42.84 0,23.65 -19.18,42.83 -42.83,42.83 -23.66,0 -42.83,-19.18 -42.83,-42.83" /><path
         id="path64"
         style="fill:#6a86ca;fill-opacity:1;fill-rule:nonzero;stroke:none"
         d="m 3879.99,1583.44 c 0,-23.66 19.17,-42.84 42.82,-42.84 23.66,0 42.83,19.18 42.83,42.84 0,23.65 -19.17,42.83 -42.83,42.83 -23.65,0 -42.82,-19.18 -42.82,-42.83" /><path
         id="path66"
         style="fill:#ffffff;fill-opacity:1;fill-rule:nonzero;stroke:none"
         d="m 3719.41,3257.79 c 0,89.95 -72.93,162.88 -162.88,162.88 -35.75,0 -68.7,-11.65 -95.57,-31.17 0.03,1.59 0.13,3.18 0.13,4.78 0,165.35 -134.03,299.38 -299.37,299.38 -150.83,0 -275.56,-111.56 -296.3,-256.65 -35.35,33.07 -82.72,53.47 -134.94,53.47 -109.24,0 -197.79,-88.56 -197.79,-197.79 0,-106.62 84.42,-193.29 190.03,-197.39 v -0.4 h 839.62 v 0.3 c 87.25,3.09 157.07,74.59 157.07,162.59" /><path
         id="path68"
         style="fill:#6a86ca;fill-opacity:1;fill-rule:nonzero;stroke:none"
         d="m 3719.41,3257.79 h 10 c -0.01,95.48 -77.4,172.87 -172.88,172.88 -37.94,0 -72.98,-12.39 -101.44,-33.08 l 5.87,-8.09 10,-0.19 c 0.02,1.31 0.13,2.96 0.13,4.97 -0.01,170.87 -138.51,309.37 -309.37,309.38 v 0 c -155.88,-0.02 -284.76,-115.26 -306.2,-265.23 l 9.9,-1.42 6.83,7.3 c -37.09,34.71 -86.92,56.17 -141.77,56.17 -114.77,-0.01 -207.78,-93.03 -207.79,-207.79 0.01,-112.02 88.69,-203.08 199.64,-207.39 l 0.39,10 h -10 v -0.4 c 0,-2.63 1.07,-5.21 2.93,-7.07 1.86,-1.86 4.44,-2.93 7.07,-2.93 h 839.62 c 2.63,0 5.21,1.07 7.07,2.93 1.86,1.86 2.93,4.44 2.93,7.07 v 0.3 h -10 l 0.35,-10 c 92.61,3.28 166.71,79.18 166.72,172.59 h -10 -10 c 0.01,-82.58 -65.53,-149.7 -147.42,-152.6 -5.37,-0.19 -9.65,-4.62 -9.65,-9.99 v -0.3 h 10 v 10 h -839.62 v -10 h 10 v 0.4 c 0,5.37 -4.24,9.78 -9.61,9.99 -100.27,3.89 -180.43,86.19 -180.42,187.4 0.01,51.89 21,98.77 55,132.79 34.01,33.99 80.9,54.99 132.79,55 49.59,-0.01 94.49,-19.34 128.11,-50.77 2.72,-2.55 6.63,-3.37 10.15,-2.13 3.52,1.24 6.05,4.32 6.58,8.01 20.04,140.21 140.61,248.09 286.4,248.07 79.94,-0.01 152.22,-32.37 204.62,-84.76 52.38,-52.4 84.75,-124.68 84.75,-204.62 0,-1.2 -0.09,-2.72 -0.12,-4.6 -0.07,-3.8 2.01,-7.3 5.37,-9.05 3.37,-1.75 7.43,-1.45 10.5,0.78 25.27,18.34 56.13,29.25 89.69,29.26 42.25,-0.01 80.4,-17.1 108.1,-44.78 27.68,-27.7 44.78,-65.85 44.78,-108.1 h 10" /><path
         id="path70"
         style="fill:#ffffff;fill-opacity:1;fill-rule:nonzero;stroke:none"
         d="m 4107.02,2734.97 c 0,50.53 -40.97,91.5 -91.51,91.5 -20.07,0 -38.58,-6.54 -53.67,-17.51 l 0.06,2.68 c 0,92.89 -75.29,168.18 -168.17,168.18 -84.73,0 -154.79,-62.66 -166.44,-144.17 -19.86,18.58 -46.47,30.03 -75.81,30.03 -61.36,0 -111.1,-49.74 -111.1,-111.1 0,-59.89 47.42,-108.59 106.75,-110.89 v -0.22 h 471.66 v 0.17 c 49,1.73 88.23,41.9 88.23,91.33" /><path
         id="path72"
         style="fill:#6a86ca;fill-opacity:1;fill-rule:nonzero;stroke:none"
         d="m 4107.02,2734.97 h 10 c -0.01,56.06 -45.44,101.49 -101.51,101.5 -22.26,0 -42.86,-7.28 -59.55,-19.42 l 5.88,-8.09 10,-0.22 0.06,2.69 v 0.21 c -0.01,98.41 -79.76,178.18 -178.17,178.18 -89.77,-0.02 -163.99,-66.36 -176.34,-152.76 l 9.9,-1.41 6.83,7.3 c -21.6,20.22 -50.67,32.74 -82.64,32.73 -66.88,0 -121.1,-54.21 -121.1,-121.1 0.01,-65.3 51.69,-118.37 116.36,-120.88 l 0.39,9.99 h -10 v -0.22 c 0,-2.63 1.06,-5.21 2.92,-7.07 1.87,-1.86 4.44,-2.93 7.08,-2.93 h 471.66 c 2.63,0 5.21,1.07 7.07,2.93 1.86,1.86 2.93,4.44 2.93,7.07 v 0.17 h -10 l 0.35,-10 c 54.36,1.93 97.87,46.48 97.88,101.33 h -10 -10 c 0.01,-44.01 -34.94,-79.8 -78.59,-81.34 -5.37,-0.19 -9.64,-4.62 -9.64,-9.99 v -0.17 h 10 v 10 h -471.66 v -10 h 10 v 0.22 c 0,5.37 -4.25,9.78 -9.62,9.99 -53.98,2.1 -97.14,46.41 -97.13,100.9 0,27.95 11.3,53.16 29.61,71.49 18.33,18.31 43.54,29.61 71.49,29.61 26.71,0 50.85,-10.39 68.98,-27.34 2.73,-2.54 6.63,-3.36 10.15,-2.12 3.52,1.23 6.05,4.32 6.58,8.01 10.95,76.63 76.86,135.61 156.54,135.59 43.71,0 83.19,-17.69 111.84,-46.33 28.64,-28.65 46.33,-68.13 46.33,-111.85 h 10 l -10,0.22 -0.06,-2.68 c -0.08,-3.8 2,-7.32 5.37,-9.08 3.36,-1.76 7.44,-1.46 10.51,0.77 13.49,9.79 29.9,15.59 47.79,15.6 22.54,-0.01 42.86,-9.11 57.64,-23.87 14.76,-14.78 23.86,-35.09 23.87,-57.63 h 10" /><path
         id="path74"
         style="fill:#ffffff;fill-opacity:1;fill-rule:nonzero;stroke:none"
         d="m 435.758,3086.88 c -13.52,0 -24.52,11 -24.52,24.53 v 88.24 c 0,13.52 11,24.52 24.52,24.52 H 1561.59 c 13.52,0 24.53,-11 24.53,-24.52 v -88.24 c 0,-13.53 -11.01,-24.53 -24.53,-24.53 H 435.758" /><path
         id="path76"
         style="fill:#6a86ca;fill-opacity:1;fill-rule:nonzero;stroke:none"
         d="M 1561.59,3234.17 H 435.758 c -19.035,0 -34.52,-15.48 -34.52,-34.52 v -88.24 c 0,-19.04 15.485,-34.53 34.52,-34.53 H 1561.59 c 19.04,0 34.53,15.49 34.53,34.53 v 88.24 c 0,19.04 -15.49,34.52 -34.53,34.52 z m 0,-20 c 8.03,0 14.53,-6.49 14.53,-14.52 v -88.24 c 0,-8.02 -6.5,-14.53 -14.53,-14.53 H 435.758 c -8.024,0 -14.52,6.51 -14.52,14.53 v 88.24 c 0,8.03 6.496,14.52 14.52,14.52 H 1561.59" /><path
         id="path78"
         style="fill:#ffffff;fill-opacity:1;fill-rule:nonzero;stroke:none"
         d="m 435.758,3262.16 c -13.52,0 -24.52,11 -24.52,24.52 v 88.25 c 0,13.52 11,24.52 24.52,24.52 H 1561.59 c 13.52,0 24.53,-11 24.53,-24.52 v -88.25 c 0,-13.52 -11.01,-24.52 -24.53,-24.52 H 435.758" /><path
         id="path80"
         style="fill:#6a86ca;fill-opacity:1;fill-rule:nonzero;stroke:none"
         d="M 1561.59,3409.45 H 435.758 c -19.035,0 -34.52,-15.49 -34.52,-34.52 v -88.25 c 0,-19.04 15.485,-34.52 34.52,-34.52 H 1561.59 c 19.04,0 34.53,15.48 34.53,34.52 v 88.25 c 0,19.03 -15.49,34.52 -34.53,34.52 z m 0,-20 c 8.03,0 14.53,-6.5 14.53,-14.52 v -88.25 c 0,-8.02 -6.5,-14.52 -14.53,-14.52 H 435.758 c -8.024,0 -14.52,6.5 -14.52,14.52 v 88.25 c 0,8.02 6.496,14.52 14.52,14.52 H 1561.59" /><path
         id="path82"
         style="fill:#ffffff;fill-opacity:1;fill-rule:nonzero;stroke:none"
         d="m 435.758,3437.43 c -13.52,0 -24.52,11.01 -24.52,24.53 v 88.24 c 0,13.52 11,24.53 24.52,24.53 H 1561.59 c 13.52,0 24.53,-11.01 24.53,-24.53 v -88.24 c 0,-13.52 -11.01,-24.53 -24.53,-24.53 H 435.758" /><path
         id="path84"
         style="fill:#6a86ca;fill-opacity:1;fill-rule:nonzero;stroke:none"
         d="M 1561.59,3584.73 H 435.758 c -19.035,0 -34.52,-15.49 -34.52,-34.53 v -88.24 c 0,-19.04 15.485,-34.53 34.52,-34.53 H 1561.59 c 19.04,0 34.53,15.49 34.53,34.53 v 88.24 c 0,19.04 -15.49,34.53 -34.53,34.53 z m 0,-20 c 8.03,0 14.53,-6.51 14.53,-14.53 v -88.24 c 0,-8.03 -6.5,-14.53 -14.53,-14.53 H 435.758 c -8.024,0 -14.52,6.5 -14.52,14.53 v 88.24 c 0,8.02 6.496,14.53 14.52,14.53 H 1561.59" /><path
         id="path86"
         style="fill:#6a86ca;fill-opacity:1;fill-rule:nonzero;stroke:none"
         d="m 491.086,3480.37 h -25.293 c -7.211,0 -13.063,5.85 -13.063,13.06 v 25.3 c 0,7.21 5.852,13.06 13.063,13.06 h 25.293 c 7.211,0 13.062,-5.85 13.062,-13.06 v -25.3 c 0,-7.21 -5.851,-13.06 -13.062,-13.06" /><path
         id="path88"
         style="fill:#6a86ca;fill-opacity:1;fill-rule:nonzero;stroke:none"
         d="m 491.086,3305.1 h -25.293 c -7.211,0 -13.063,5.85 -13.063,13.06 v 25.29 c 0,7.22 5.852,13.06 13.063,13.06 h 25.293 c 7.211,0 13.062,-5.84 13.062,-13.06 v -25.29 c 0,-7.21 -5.851,-13.06 -13.062,-13.06" /><path
         id="path90"
         style="fill:#6a86ca;fill-opacity:1;fill-rule:nonzero;stroke:none"
         d="m 491.086,3129.82 h -25.293 c -7.211,0 -13.063,5.85 -13.063,13.06 v 25.3 c 0,7.21 5.852,13.06 13.063,13.06 h 25.293 c 7.211,0 13.062,-5.85 13.062,-13.06 v -25.3 c 0,-7.21 -5.851,-13.06 -13.062,-13.06" /><path
         id="path92"
         style="fill:#ffffff;fill-opacity:1;fill-rule:nonzero;stroke:none"
         d="m 2891.51,10 c -1.03,0 -2.08,0.1602 -3.09,0.4922 L 1944.97,316.391 c -5.26,1.691 -8.13,7.339 -6.43,12.589 l 107.76,332.36 c 0.82,2.519 2.6,4.621 4.97,5.82 1.42,0.719 2.97,1.09 4.54,1.09 1.04,0 2.08,-0.168 3.09,-0.488 l 943.45,-305.91 c 5.25,-1.7 8.14,-7.34 6.43,-12.59 L 2901.02,16.9102 c -0.82,-2.5196 -2.61,-4.6211 -4.97,-5.8204 C 2894.64,10.3711 2893.07,10 2891.51,10" /><path
         id="path94"
         style="fill:#6a86ca;fill-opacity:1;fill-rule:nonzero;stroke:none"
         d="m 2055.81,678.25 c -3.13,0 -6.24,-0.738 -9.08,-2.191 -4.73,-2.407 -8.31,-6.598 -9.94,-11.649 L 1929.03,332.059 c -1.64,-5.039 -1.21,-10.528 1.21,-15.25 2.41,-4.727 6.6,-8.309 11.64,-9.938 L 2885.34,0.980469 C 2887.35,0.320313 2889.43,0 2891.51,0 c 3.13,0 6.25,0.730469 9.09,2.17969 4.73,2.41015 8.29,6.60156 9.93,11.65231 l 107.76,332.34 c 3.41,10.508 -2.35,21.789 -12.85,25.199 L 2061.98,677.27 c -2.01,0.66 -4.09,0.98 -6.17,0.98 z m 0,-20 L 2999.26,352.34 2891.51,20 1948.05,325.898 2055.81,658.25" /><path
         id="path96"
         style="fill:#ffffff;fill-opacity:1;fill-rule:nonzero;stroke:none"
         d="m 2891.51,10 c -3.21,0 -6.26,1.5391 -8.15,4.2109 L 2529.91,512.16 1951.37,316.789 c -1.05,-0.359 -2.13,-0.527 -3.2,-0.527 -2.59,0 -5.13,1 -7.03,2.886 -2.69,2.661 -3.65,6.602 -2.48,10.192 l 188.35,580.152 c 0.82,2.528 2.61,4.617 4.97,5.817 1.42,0.722 2.98,1.093 4.54,1.093 1.04,0 2.08,-0.16 3.09,-0.48 l 943.34,-306.274 c 5.25,-1.707 8.13,-7.347 6.42,-12.597 L 2901.02,16.9102 c -1.17,-3.5899 -4.27,-6.2305 -8,-6.7891 L 2891.51,10" /><path
         id="path98"
         style="fill:#6a86ca;fill-opacity:1;fill-rule:nonzero;stroke:none"
         d="m 2136.52,926.41 c -3.12,0 -6.24,-0.75 -9.08,-2.191 -4.73,-2.399 -8.3,-6.59 -9.94,-11.637 L 1929.15,332.441 c -2.34,-7.191 -0.41,-15.089 4.96,-20.402 3.81,-3.758 8.89,-5.769 14.07,-5.769 2.14,0 4.3,0.339 6.39,1.039 L 2526.06,500.301 2875.2,8.42188 C 2878.98,3.08203 2885.09,0 2891.5,0 c 1.01,0 2.02,0.0703125 3.03,0.21875 7.48,1.15234 13.67,6.41016 16,13.60155 l 188.35,580.1287 c 1.64,5.051 1.2,10.543 -1.2,15.27 -2.41,4.722 -6.6,8.301 -11.65,9.941 L 2142.7,925.43 c -2.02,0.64 -4.1,0.98 -6.18,0.98 m 0,-20.008 L 3079.86,600.141 2891.51,20 2533.76,524.012 1948.17,326.27 2136.52,906.402" /><path
         id="path100"
         style="fill:#ffffff;fill-opacity:1;fill-rule:nonzero;stroke:none"
         d="m 2592.93,337.191 c -6.02,0 -11.66,0.809 -16.33,2.321 l -191.2,62.078 c -13.19,4.281 -27.62,16.941 -33.58,29.441 l -215.83,453.051 c -4.86,10.188 -2.32,16.879 -0.38,19.949 2.9,4.61 8.07,7.258 14.17,7.258 2.72,0 5.66,-0.508 8.74,-1.519 l 905.29,-293.918 c 12.76,-4.141 14.83,-12.403 15.13,-15.762 0.3,-3.36 -0.29,-11.86 -12.13,-18.18 L 2621.06,343.469 c -7.45,-3.989 -17.7,-6.278 -28.13,-6.278" /><path
         id="path102"
         style="fill:#6a86ca;fill-opacity:1;fill-rule:nonzero;stroke:none"
         d="m 2149.78,921.289 c -9.6,0 -17.85,-4.348 -22.62,-11.918 -3.05,-4.812 -7.12,-15.062 -0.2,-29.59 L 2342.8,426.73 c 7.13,-14.949 23.74,-29.531 39.5,-34.648 L 2573.5,330 c 5.74,-1.871 12.28,-2.809 19.43,-2.809 12.02,0 23.99,2.719 32.85,7.457 l 445.76,238.442 c 17.09,9.14 17.83,22.551 17.36,27.879 -0.48,5.351 -3.57,18.402 -22,24.39 l -905.29,293.93 c -4.08,1.313 -8.07,2 -11.83,2 m 0,-20 c 1.62,0 3.52,-0.328 5.66,-1.027 L 3060.72,606.34 c 10.47,-3.391 11.09,-10.418 1.39,-15.61 L 2616.34,352.281 c -6.16,-3.301 -15.06,-5.09 -23.41,-5.09 -4.81,0 -9.43,0.59 -13.25,1.829 l -191.2,62.082 c -10.47,3.398 -22.9,14.296 -27.62,24.23 l -215.84,453.047 c -3.77,7.91 -1.57,12.91 4.76,12.91" /><path
         id="path104"
         style="fill:#5e7cbd;fill-opacity:1;fill-rule:nonzero;stroke:none"
         d="m 2050.51,729.512 c -523.18,0 -947.3,44.449 -947.3,99.277 0,26.293 97.53,50.203 256.75,67.961 v -59.699 0 -1.199 c 0,-8.461 6.86,-15.313 15.32,-15.313 h 712.33 l -29.55,-91.027 c -2.51,0 -5.03,0 -7.55,0 m 620.82,24.289 -205.55,66.738 h 259.28 c 8.83,0 15.99,7.152 15.99,15.992 v 0.52 0 59.699 c 159.22,-17.758 256.76,-41.668 256.76,-67.961 0,-29.937 -126.47,-56.789 -326.48,-74.988" /><path
         id="path106"
         style="fill:#dde7e9;fill-opacity:1;fill-rule:nonzero;stroke:none"
         d="m 2079.1,729.551 29.54,90.988 h 46.55 l 42.79,-89.828 c -38.88,-0.641 -78.58,-1.031 -118.88,-1.16" /><path
         id="path108"
         style="fill:#5e7cbd;fill-opacity:1;fill-rule:nonzero;stroke:none"
         d="m 2058.06,729.512 29.55,91.027 h 21.03 l -29.54,-90.988 c -7,-0.02 -13.99,-0.031 -21.04,-0.039 m 613.25,24.289 -205.55,66.738 h 0.02 l 205.55,-66.738 h -0.02" /><path
         id="path110"
         style="fill:#dde7e9;fill-opacity:1;fill-rule:nonzero;stroke:none"
         d="m 2219.95,731.09 -42.61,89.449 h 223.65 l 218.96,-71.098 c -115.61,-9.121 -251.82,-15.539 -400,-18.351" /><path
         id="path112"
         style="fill:#5e7cbd;fill-opacity:1;fill-rule:nonzero;stroke:none"
         d="m 2197.98,730.711 -42.79,89.828 h 22.15 l 42.61,-89.449 c -7.29,-0.129 -14.63,-0.258 -21.97,-0.379 m 421.97,18.73 -218.96,71.098 h 64.77 l 205.55,-66.738 c -16.64,-1.512 -33.74,-2.961 -51.36,-4.36" /><path
         id="path114"
         style="fill:#5e7cbd;fill-opacity:1;fill-rule:nonzero;stroke:none"
         d="m 1028.04,1218.55 -0.3,0.9 h 5.07 l -4.77,-0.9 m -209.614,624.07 -1.086,3.24 1.086,11.24 v -14.48" /><path
         id="path116"
         style="fill:#dde7e9;fill-opacity:1;fill-rule:nonzero;stroke:none"
         d="m 791.258,1188.11 c -10.465,5.79 -19.133,14.54 -24.785,25.16 l 61.281,20.58 c 7.351,-8.79 18.387,-14.4 30.672,-14.4 h 26.152 l -93.32,-31.34 m 122.996,8.91 31.219,10.49 -4.012,11.94 h 65.179 l 1.57,-4.65 -93.956,-17.78 m -154.93,46.25 c 0.031,1.59 0.125,3.2 0.281,4.82 l 2.872,29.73 55.949,18.79 v -33.49 l -59.102,-19.85 m 6.387,68.02 3.344,34.62 49.371,16.58 v -33.5 l -52.715,-17.7 m 6.574,68.09 3.344,34.63 42.797,14.37 v -33.5 l -46.141,-15.5 m 6.578,68.1 3.344,34.62 36.219,12.17 v -33.5 l -39.563,-13.29 m 6.578,68.1 6.098,63.15 26.887,9.03 v -61.11 l -32.985,-11.07 m 32.985,73.43 -5.121,15.24 -19.95,-6.7 1.344,13.88 14.555,4.89 -5.488,16.35 -7.25,-2.43 1.339,13.88 1.86,0.62 -1.399,4.16 14.313,148.17 5.797,-17.26 v -190.8" /><path
         id="path118"
         style="fill:#5e7cbd;fill-opacity:1;fill-rule:nonzero;stroke:none"
         d="m 1008.21,1214.8 -1.57,4.65 h 21.1 l 0.3,-0.9 -19.83,-3.75 m -189.784,565.01 -5.797,17.26 4.711,48.79 1.086,-3.24 v -62.81" /><path
         id="path120"
         style="fill:#bcc5c8;fill-opacity:1;fill-rule:nonzero;stroke:none"
         d="m 797.855,1644.12 0.461,4.78 1.399,-4.16 -1.86,-0.62" /><path
         id="path122"
         style="fill:#bcc5c8;fill-opacity:1;fill-rule:nonzero;stroke:none"
         d="m 782.207,1482.1 3.234,33.48 32.985,11.07 v -32.38 l -36.219,-12.17" /><path
         id="path124"
         style="fill:#bcc5c8;fill-opacity:1;fill-rule:nonzero;stroke:none"
         d="m 775.629,1414.01 3.234,33.47 39.563,13.29 v -32.39 l -42.797,-14.37" /><path
         id="path126"
         style="fill:#bcc5c8;fill-opacity:1;fill-rule:nonzero;stroke:none"
         d="m 769.055,1345.91 3.23,33.47 46.141,15.5 v -32.39 l -49.371,-16.58" /><path
         id="path128"
         style="fill:#bcc5c8;fill-opacity:1;fill-rule:nonzero;stroke:none"
         d="m 762.477,1277.82 3.234,33.47 52.715,17.7 v -32.38 l -55.949,-18.79" /><path
         id="path130"
         style="fill:#bcc5c8;fill-opacity:1;fill-rule:nonzero;stroke:none"
         d="m 766.473,1213.27 c -4.743,8.91 -7.368,19.13 -7.149,30 l 59.102,19.85 v -3.67 c 0,-9.72 3.512,-18.65 9.328,-25.6 l -61.281,-20.58" /><path
         id="path132"
         style="fill:#bcc5c8;fill-opacity:1;fill-rule:nonzero;stroke:none"
         d="m 820.84,1180.45 c -10.656,0 -20.758,2.77 -29.582,7.66 l 93.32,31.34 h 56.883 l 4.012,-11.94 -31.219,-10.49 -81.781,-15.47 c -3.926,-0.74 -7.817,-1.1 -11.633,-1.1" /><path
         id="path134"
         style="fill:#bcc5c8;fill-opacity:1;fill-rule:nonzero;stroke:none"
         d="m 794.699,1611.43 1.817,18.81 7.25,2.43 5.488,-16.35 -14.555,-4.89" /><path
         id="path136"
         style="fill:#bcc5c8;fill-opacity:1;fill-rule:nonzero;stroke:none"
         d="m 791.539,1578.73 1.816,18.82 19.95,6.7 5.121,-15.24 v -1.25 l -26.887,-9.03" /><path
         id="path138"
         style="fill:#ffffff;fill-opacity:1;fill-rule:nonzero;stroke:none"
         d="m 1621.32,870.059 h 858.371 v 396.172 H 1621.32 Z" /><path
         id="path140"
         style="fill:#ffffff;fill-opacity:1;fill-rule:nonzero;stroke:none"
         d="m 2741.05,837.051 c 0,-9.082 -7.43,-16.512 -16.5,-16.512 H 1376.47 c -9.08,0 -16.51,7.43 -16.51,16.512 v 66.031 c 0,9.066 7.43,16.5 16.51,16.5 h 1348.08 c 9.07,0 16.5,-7.434 16.5,-16.5 v -66.031" /><path
         id="path142"
         style="fill:#ffffff;fill-opacity:1;fill-rule:nonzero;stroke:none"
         d="m 3282.6,1259.45 c 0,-22 -18,-40 -40,-40 H 858.426 c -22.004,0 -40,18 -40,40 v 1587.21 c 0,22 17.996,40 40,40 H 3242.6 c 22,0 40,-18 40,-40 V 1259.45" /><path
         id="path144"
         style="fill:#5e7cbd;fill-opacity:1;fill-rule:nonzero;stroke:none"
         d="m 1617.26,1153.74 h 4.0586 v 65.707 h -4.0586 z" /><path
         id="path146"
         style="fill:#dde7e9;fill-opacity:1;fill-rule:nonzero;stroke:none"
         d="m 1621.32,1153.74 h 858.371 v 65.707 H 1621.32 Z" /><path
         id="path148"
         style="fill:#5e7cbd;fill-opacity:1;fill-rule:nonzero;stroke:none"
         d="m 1617.26,919.582 h 4.0586 v 16.9766 h -4.0586 z" /><path
         id="path150"
         style="fill:#dde7e9;fill-opacity:1;fill-rule:nonzero;stroke:none"
         d="m 1621.32,919.582 h 858.371 v 16.9766 H 1621.32 Z" /><path
         id="path152"
         style="fill:#dde7e9;fill-opacity:1;fill-rule:nonzero;stroke:none"
         d="m 2479.69,919.582 h -862.43 862.43" /><path
         id="path154"
         style="fill:#0f1828;fill-opacity:1;fill-rule:nonzero;stroke:none"
         d="m 864.754,1365.26 h 2371.52 V 2837.14 H 864.754 Z" /><path
         id="path156"
         style="fill:#c7d8e4;fill-opacity:1;fill-rule:nonzero;stroke:none"
         d="m 3236.27,2810.48 h 1.0625 v 26.6602 h -1.0625 z" /><path
         id="path158"
         style="fill:#5572b1;fill-opacity:1;fill-rule:nonzero;stroke:none"
         d="m 2725.06,820.539 h -259.28 258.77 c 9.07,0 16.5,7.43 16.5,16.512 v 0 -0.52 c 0,-8.84 -7.16,-15.992 -15.99,-15.992 m -637.45,0 h -712.33 c -8.46,0 -15.32,6.852 -15.32,15.313 v 1.199 c 0,-9.082 7.43,-16.512 16.51,-16.512 h 711.14" /><path
         id="path160"
         style="fill:#dde7e9;fill-opacity:1;fill-rule:nonzero;stroke:none"
         d="M 2724.55,820.539 H 1376.47 c -9.08,0 -16.51,7.43 -16.51,16.512 h 1381.09 c 0,-9.082 -7.43,-16.512 -16.5,-16.512" /><path
         id="path162"
         style="fill:#0f1828;fill-opacity:1;fill-rule:nonzero;stroke:none"
         d="m 2077.33,1293.05 c 0,-14.81 -12,-26.82 -26.82,-26.82 -14.81,0 -26.83,12.01 -26.83,26.82 0,14.81 12.02,26.82 26.83,26.82 14.82,0 26.82,-12.01 26.82,-26.82" /><path
         id="path164"
         style="fill:#ffffff;fill-opacity:1;fill-rule:nonzero;stroke:none"
         d="m 2294.42,1628.69 c 0,55.14 44.7,99.88 99.85,99.88 55.17,0 99.87,-44.74 99.87,-99.88 0,-55.19 -44.7,-99.88 -99.87,-99.88 -55.15,0 -99.85,44.69 -99.85,99.88 z m 249.03,-43.5 35.2,6.91 -0.05,71.91 -35,7.64 c -3.19,11.17 -7.59,21.74 -13.09,31.76 l 19.98,29.76 -50.83,50.81 -30.23,-19.35 c -9.94,5.52 -20.48,9.95 -31.68,13.21 l -6.9,35.2 h -71.86 l -7.66,-35.05 c -11.18,-3.22 -21.74,-7.59 -31.73,-13.09 l -29.77,19.99 -50.87,-50.89 19.31,-30.18 c -5.48,-9.94 -9.87,-20.51 -13.17,-31.65 l -35.19,-6.94 0.05,-71.88 35.05,-7.69 c 3.21,-11.17 7.58,-21.69 13.03,-31.66 l -19.96,-29.81 50.86,-50.84 30.21,19.35 c 9.93,-5.52 20.46,-9.94 31.64,-13.13 l 6.94,-35.25 h 71.87 l 7.66,35.04 c 11.15,3.25 21.73,7.6 31.71,13.12 l 29.82,-20.04 50.81,50.89 -19.36,30.18 c 5.56,10 9.95,20.51 13.21,31.68" /><path
         id="path166"
         style="fill:#ffffff;fill-opacity:1;fill-rule:nonzero;stroke:none"
         d="m 2647.15,1869.06 c 0,80.38 65.18,145.56 145.54,145.56 80.38,0 145.59,-65.18 145.59,-145.56 0,-80.41 -65.21,-145.57 -145.59,-145.57 -80.36,0 -145.54,65.16 -145.54,145.57 z m 362.96,-63.42 51.31,10.1 -0.05,104.8 -51.03,11.15 c -4.67,16.31 -11.06,31.68 -19.06,46.22 l 29.11,43.45 -74.06,74.09 -44.11,-28.22 c -14.44,8.06 -29.86,14.49 -46.14,19.23 l -10.1,51.28 h -104.74 l -11.17,-51.08 c -16.29,-4.67 -31.69,-11.08 -46.24,-19.08 l -43.41,29.17 -74.08,-74.17 28.15,-44.01 c -8.03,-14.54 -14.46,-29.86 -19.2,-46.15 l -51.34,-10.04 0.05,-104.85 51.07,-11.13 c 4.71,-16.32 11.1,-31.67 19.05,-46.24 l -29.07,-43.42 74.09,-74.08 44.01,28.18 c 14.46,-8.01 29.89,-14.44 46.15,-19.16 l 10.12,-51.33 h 104.75 l 11.17,51.08 c 16.29,4.72 31.71,11.06 46.22,19.09 l 43.5,-29.2 74.02,74.17 -28.19,44.01 c 8.05,14.53 14.49,29.88 19.22,46.14" /><path
         id="path168"
         style="fill:#334154;fill-opacity:1;fill-rule:nonzero;stroke:none"
         d="m 1620.66,2592.31 h -252.32 c -8.02,0 -14.52,6.5 -14.52,14.52 v 42.1 c 0,8.02 6.5,14.53 14.52,14.53 h 252.32 c 8.02,0 14.52,-6.51 14.52,-14.53 v -42.1 c 0,-8.02 -6.5,-14.52 -14.52,-14.52" /><path
         id="path170"
         style="fill:#334154;fill-opacity:1;fill-rule:nonzero;stroke:none"
         d="m 2229.38,2592.31 h -550.91 c -8.01,0 -14.52,6.5 -14.52,14.52 v 42.1 c 0,8.02 6.51,14.53 14.52,14.53 h 550.91 c 8.02,0 14.52,-6.51 14.52,-14.53 v -42.1 c 0,-8.02 -6.5,-14.52 -14.52,-14.52" /><path
         id="path172"
         style="fill:#334154;fill-opacity:1;fill-rule:nonzero;stroke:none"
         d="m 2039.82,2469.77 h -671.48 c -8.02,0 -14.52,6.5 -14.52,14.53 v 42.1 c 0,8.02 6.5,14.52 14.52,14.52 h 671.48 c 8.02,0 14.52,-6.5 14.52,-14.52 v -42.1 c 0,-8.03 -6.5,-14.53 -14.52,-14.53" /><path
         id="path174"
         style="fill:#334154;fill-opacity:1;fill-rule:nonzero;stroke:none"
         d="m 2340.26,2469.77 h -242.63 c -8.01,0 -14.52,6.5 -14.52,14.53 v 42.1 c 0,8.02 6.51,14.52 14.52,14.52 h 242.63 c 8.02,0 14.52,-6.5 14.52,-14.52 v -42.1 c 0,-8.03 -6.5,-14.53 -14.52,-14.53" /><path
         id="path176"
         style="fill:#334154;fill-opacity:1;fill-rule:nonzero;stroke:none"
         d="m 1808.98,2347.24 h -440.64 c -8.02,0 -14.52,6.5 -14.52,14.52 v 42.1 c 0,8.02 6.5,14.52 14.52,14.52 h 440.64 c 8.01,0 14.52,-6.5 14.52,-14.52 v -42.1 c 0,-8.02 -6.51,-14.52 -14.52,-14.52" /><path
         id="path178"
         style="fill:#334154;fill-opacity:1;fill-rule:nonzero;stroke:none"
         d="m 2215.28,2347.24 h -348.49 c -8.02,0 -14.52,6.5 -14.52,14.52 v 42.1 c 0,8.02 6.5,14.52 14.52,14.52 h 348.49 c 8.02,0 14.52,-6.5 14.52,-14.52 v -42.1 c 0,-8.02 -6.5,-14.52 -14.52,-14.52" /><path
         id="path180"
         style="fill:#334154;fill-opacity:1;fill-rule:nonzero;stroke:none"
         d="m 1930.8,2224.71 h -562.46 c -8.02,0 -14.52,6.5 -14.52,14.52 v 42.1 c 0,8.02 6.5,14.52 14.52,14.52 h 562.46 c 8.02,0 14.52,-6.5 14.52,-14.52 v -42.1 c 0,-8.02 -6.5,-14.52 -14.52,-14.52" /><path
         id="path182"
         style="fill:#334154;fill-opacity:1;fill-rule:nonzero;stroke:none"
         d="m 2268.75,2224.71 h -280.14 c -8.02,0 -14.52,6.5 -14.52,14.52 v 42.1 c 0,8.02 6.5,14.52 14.52,14.52 h 280.14 c 8.01,0 14.52,-6.5 14.52,-14.52 v -42.1 c 0,-8.02 -6.51,-14.52 -14.52,-14.52" /><path
         id="path184"
         style="fill:#334154;fill-opacity:1;fill-rule:nonzero;stroke:none"
         d="m 1794.59,2102.17 h -426.25 c -8.02,0 -14.52,6.5 -14.52,14.52 v 42.1 c 0,8.03 6.5,14.52 14.52,14.52 h 426.25 c 8.02,0 14.52,-6.49 14.52,-14.52 v -42.1 c 0,-8.02 -6.5,-14.52 -14.52,-14.52" /><path
         id="path186"
         style="fill:#334154;fill-opacity:1;fill-rule:nonzero;stroke:none"
         d="M 2215.28,2102.17 H 1852.4 c -8.02,0 -14.52,6.5 -14.52,14.52 v 42.1 c 0,8.03 6.5,14.52 14.52,14.52 h 362.88 c 8.02,0 14.52,-6.49 14.52,-14.52 v -42.1 c 0,-8.02 -6.5,-14.52 -14.52,-14.52" /><path
         id="path188"
         style="fill:#334154;fill-opacity:1;fill-rule:nonzero;stroke:none"
         d="m 2074.62,1979.63 h -706.28 c -8.02,0 -14.52,6.51 -14.52,14.52 v 42.11 c 0,8.02 6.5,14.52 14.52,14.52 h 706.28 c 8.01,0 14.52,-6.5 14.52,-14.52 v -42.11 c 0,-8.01 -6.51,-14.52 -14.52,-14.52" /><path
         id="path190"
         style="fill:#334154;fill-opacity:1;fill-rule:nonzero;stroke:none"
         d="m 2268.75,1979.63 h -136.32 c -8.02,0 -14.52,6.51 -14.52,14.52 v 42.11 c 0,8.02 6.5,14.52 14.52,14.52 h 136.32 c 8.01,0 14.52,-6.5 14.52,-14.52 v -42.11 c 0,-8.01 -6.51,-14.52 -14.52,-14.52" /><path
         id="path192"
         style="fill:#334154;fill-opacity:1;fill-rule:nonzero;stroke:none"
         d="m 1754.4,1857.1 h -386.06 c -8.02,0 -14.52,6.5 -14.52,14.52 v 42.1 c 0,8.03 6.5,14.52 14.52,14.52 h 386.06 c 8.02,0 14.52,-6.49 14.52,-14.52 v -42.1 c 0,-8.02 -6.5,-14.52 -14.52,-14.52" /><path
         id="path194"
         style="fill:#ffffff;fill-opacity:1;fill-rule:nonzero;stroke:none"
         d="m 979.727,1857.1 h 263.993 c 20.09,0 36.37,16.29 36.37,36.37 v 733.61 c 0,20.09 -16.28,36.38 -36.37,36.38 H 979.727 c -20.086,0 -36.372,-16.29 -36.372,-36.38 v -733.61 c 0,-20.08 16.286,-36.37 36.372,-36.37" /><path
         id="path196"
         style="fill:#0f1828;fill-opacity:1;fill-rule:nonzero;stroke:none"
         d="m 1225.2,2260.28 c 0,-62.67 -50.8,-113.48 -113.47,-113.48 -62.68,0 -113.48,50.81 -113.48,113.48 0,62.67 50.8,113.47 113.48,113.47 62.67,0 113.47,-50.8 113.47,-113.47" /><path
         id="path198"
         style="fill:#e6e6e4;fill-opacity:1;fill-rule:nonzero;stroke:none"
         d="m 1100.59,2225.46 v 73.19 c 0,2.99 3.62,4.49 5.73,2.37 l 36.59,-36.59 c 1.32,-1.31 1.32,-3.44 0,-4.75 l -36.59,-36.59 c -2.11,-2.11 -5.73,-0.62 -5.73,2.37" /><path
         id="path200"
         style="fill:#f46845;fill-opacity:1;fill-rule:nonzero;stroke:none"
         d="m 972.234,1441.32 h 972.976 c 15.95,0 28.88,12.93 28.88,28.87 v 237.97 c 0,15.96 -12.93,28.88 -28.88,28.88 H 972.234 c -15.949,0 -28.879,-12.92 -28.879,-28.88 v -237.97 c 0,-15.94 12.93,-28.87 28.879,-28.87" /><path
         id="path202"
         style="fill:#0f1828;fill-opacity:1;fill-rule:nonzero;stroke:none"
         d="m 1072.87,1663.45 c -22.3,0 -40.38,-18.09 -40.38,-40.39 0,-22.31 18.08,-40.4 40.38,-40.4 22.31,0 40.39,18.09 40.39,40.4 0,22.3 -18.08,40.39 -40.39,40.39 z m 72.34,-166.92 h -144.67 c 0,39.94 32.38,72.34 72.33,72.34 39.95,0 72.34,-32.4 72.34,-72.34" /><path
         id="path204"
         style="fill:#0f1828;fill-opacity:1;fill-rule:nonzero;stroke:none"
         d="m 1513.26,1622.53 h -239.64 c -8.01,0 -14.52,6.5 -14.52,14.52 v 7.75 c 0,8.03 6.51,14.52 14.52,14.52 h 239.64 c 8.02,0 14.52,-6.49 14.52,-14.52 v -7.75 c 0,-8.02 -6.5,-14.52 -14.52,-14.52" /><path
         id="path206"
         style="fill:#0f1828;fill-opacity:1;fill-rule:nonzero;stroke:none"
         d="m 1661.57,1576.14 h -391.75 c -5.92,0 -10.72,4.81 -10.72,10.72 v 1.13 c 0,5.91 4.8,10.71 10.72,10.71 h 391.75 c 5.93,0 10.73,-4.8 10.73,-10.71 v -1.13 c 0,-5.91 -4.8,-10.72 -10.73,-10.72" /><path
         id="path208"
         style="fill:#0f1828;fill-opacity:1;fill-rule:nonzero;stroke:none"
         d="m 1493.1,1539.09 h -223.28 c -5.92,0 -10.72,4.81 -10.72,10.72 v 1.12 c 0,5.92 4.8,10.72 10.72,10.72 h 223.28 c 5.92,0 10.72,-4.8 10.72,-10.72 v -1.12 c 0,-5.91 -4.8,-10.72 -10.72,-10.72" /><path
         id="path210"
         style="fill:#0f1828;fill-opacity:1;fill-rule:nonzero;stroke:none"
         d="m 1752.32,1539.09 h -223.27 c -5.92,0 -10.72,4.81 -10.72,10.72 v 1.12 c 0,5.92 4.8,10.72 10.72,10.72 h 223.27 c 5.92,0 10.72,-4.8 10.72,-10.72 v -1.12 c 0,-5.91 -4.8,-10.72 -10.72,-10.72" /><path
         id="path212"
         style="fill:#0f1828;fill-opacity:1;fill-rule:nonzero;stroke:none"
         d="m 1661.57,1502.04 h -391.75 c -5.92,0 -10.72,4.79 -10.72,10.71 v 1.13 c 0,5.91 4.8,10.72 10.72,10.72 h 391.75 c 5.93,0 10.73,-4.81 10.73,-10.72 v -1.13 c 0,-5.92 -4.8,-10.71 -10.73,-10.71" /><path
         id="path214"
         style="fill:#0f1828;fill-opacity:1;fill-rule:nonzero;stroke:none"
         d="m 1837,1622.53 h -275.05 c -8.02,0 -14.52,6.5 -14.52,14.52 v 7.75 c 0,8.03 6.5,14.52 14.52,14.52 H 1837 c 8.02,0 14.52,-6.49 14.52,-14.52 v -7.75 c 0,-8.02 -6.5,-14.52 -14.52,-14.52" /><path
         id="path216"
         style="fill:#f2a344;fill-opacity:1;fill-rule:nonzero;stroke:none"
         d="m 2582.43,2294.91 h 457.91 c 32.29,0 58.47,26.17 58.47,58.47 v 253.84 c 0,32.29 -26.18,58.47 -58.47,58.47 h -457.91 c -32.3,0 -58.48,-26.18 -58.48,-58.47 v -253.84 c 0,-32.3 26.18,-58.47 58.48,-58.47" /><path
         id="path218"
         style="fill:#334154;fill-opacity:1;fill-rule:nonzero;stroke:none"
         d="m 864.754,2737.11 h 2371.52 v 73.3711 H 864.754 Z" /><path
         id="path220"
         style="fill:#313e51;fill-opacity:1;fill-rule:nonzero;stroke:none"
         d="m 864.754,2810.48 h 2371.52 v 26.6602 H 864.754 Z" /><path
         id="path222"
         style="fill:#ffffff;fill-opacity:1;fill-rule:nonzero;stroke:none"
         d="m 3185.65,2787.13 c 0,-9.52 -7.71,-17.24 -17.24,-17.24 -9.52,0 -17.23,7.72 -17.23,17.24 0,9.52 7.71,17.24 17.23,17.24 9.53,0 17.24,-7.72 17.24,-17.24" /><path
         id="path224"
         style="fill:#ffffff;fill-opacity:1;fill-rule:nonzero;stroke:none"
         d="m 3133.29,2787.13 c 0,-9.52 -7.72,-17.24 -17.24,-17.24 -9.52,0 -17.24,7.72 -17.24,17.24 0,9.52 7.72,17.24 17.24,17.24 9.52,0 17.24,-7.72 17.24,-17.24" /><path
         id="path226"
         style="fill:#ffffff;fill-opacity:1;fill-rule:nonzero;stroke:none"
         d="m 3080.92,2787.13 c 0,-9.52 -7.71,-17.24 -17.23,-17.24 -9.52,0 -17.25,7.72 -17.25,17.24 0,9.52 7.73,17.24 17.25,17.24 9.52,0 17.23,-7.72 17.23,-17.24" /><path
         id="path228"
         style="fill:#040606;fill-opacity:1;fill-rule:nonzero;stroke:none"
         d="m 2661.69,2465.57 v 21.85 l 85.58,35.14 v -29.13 l -43.15,-16.94 43.15,-17.3 v -28.58 l -85.58,34.96" /><path
         id="path230"
         style="fill:#040606;fill-opacity:1;fill-rule:nonzero;stroke:none"
         d="m 2830.68,2543.69 h 28.41 l -71.56,-153.33 h -28.41 l 71.56,153.33" /><path
         id="path232"
         style="fill:#040606;fill-opacity:1;fill-rule:nonzero;stroke:none"
         d="m 2875.48,2430.61 v 28.95 l 43.16,16.93 -43.16,17.3 v 28.77 l 85.58,-35.14 v -21.85 l -85.58,-34.96" /></g></g></svg>