<svg width="511.999" height="511.999" xmlns="http://www.w3.org/2000/svg">

 <g>
  <title>background</title>
  <rect fill="none" id="canvas_background" height="402" width="582" y="-1" x="-1"/>
 </g>
 <g>
  <title>Layer 1</title>
  <g id="svg_1">
   <g id="svg_2">
    <path fill="#a6e64d" id="svg_3" d="m481.091,27.937l-450.182,0c-17.043,0 -30.909,13.866 -30.909,30.909l0,310.819c0,17.043 13.866,30.909 30.909,30.909l154.26,0l0,22.49c0,20.617 -16.774,37.391 -37.391,37.391l-33.997,0c-6.518,0 -11.803,5.284 -11.803,11.803c0,6.519 5.285,11.803 11.803,11.803l284.436,0c6.518,0 11.803,-5.284 11.803,-11.803c0,-6.519 -5.285,-11.803 -11.803,-11.803l-33.998,0c-20.617,0 -37.391,-16.774 -37.391,-37.391l0,-22.489l154.26,0c17.043,0 30.91,-13.866 30.91,-30.909l0,-310.82c0.002,-17.043 -13.864,-30.909 -30.907,-30.909zm-285.171,432.52c8.046,-10.336 12.857,-23.308 12.857,-37.391l0,-22.49l94.447,0l0,22.49c0,14.083 4.811,27.056 12.857,37.391l-120.161,0zm292.474,-90.791c0,4.027 -3.276,7.304 -7.304,7.304l-450.181,0c-4.027,0 -7.304,-3.276 -7.304,-7.304l0,-62.033l464.789,0l0,62.033zm0,-85.64l-464.788,0l0,-225.18c0,-4.027 3.276,-7.304 7.304,-7.304l450.18,0c4.027,0 7.305,3.276 7.305,7.304l0,225.18l-0.001,0z"/>
   </g>
  </g>
  <g id="svg_4">
   <g id="svg_5">
    <circle fill="#a6e64d" id="svg_6" r="12.738" cy="342.305" cx="256.003"/>
   </g>
  </g>
  <g id="svg_7">
   <g id="svg_8">
    <path fill="#a6e64d" id="svg_9" d="m276.238,109.254c-4.61,-4.609 -12.081,-4.609 -16.693,0l-83.414,83.414c-4.609,4.609 -4.609,12.083 0,16.693c2.306,2.305 5.325,3.457 8.347,3.457c3.022,0 6.041,-1.152 8.346,-3.457l83.414,-83.414c4.609,-4.609 4.609,-12.083 0,-16.693z"/>
   </g>
  </g>
  <g id="svg_10">
   <g id="svg_11">
    <path fill="#a6e64d" id="svg_12" d="m325.678,157.593c-4.608,-4.609 -12.079,-4.609 -16.692,-0.001l-33.23,33.228c-4.609,4.61 -4.609,12.084 0,16.693c2.305,2.305 5.325,3.457 8.346,3.457c3.02,0 6.041,-1.152 8.346,-3.457l33.23,-33.228c4.609,-4.609 4.609,-12.083 0,-16.692z"/>
   </g>
  </g>
  <g id="svg_13"/>
  <g id="svg_14"/>
  <g id="svg_15"/>
  <g id="svg_16"/>
  <g id="svg_17"/>
  <g id="svg_18"/>
  <g id="svg_19"/>
  <g id="svg_20"/>
  <g id="svg_21"/>
  <g id="svg_22"/>
  <g id="svg_23"/>
  <g id="svg_24"/>
  <g id="svg_25"/>
  <g id="svg_26"/>
  <g id="svg_27"/>
 </g>
</svg>