<svg height="512" viewBox="0 0 128 128" width="512" xmlns="http://www.w3.org/2000/svg"><g id="Circle_Grid" data-name="Circle Grid"><circle cx="64" cy="64" fill="#3b5059" r="64"/></g><g id="icon"><g fill="#eeefee"><path d="m60.718 27.746v-5.246a44.492 44.492 0 0 1 31.665 13.118 44.486 44.486 0 0 1 13.117 31.664h-5.246a39.541 39.541 0 0 0 -39.536-39.536z"/><path d="m86.063 66.486a24.576 24.576 0 0 0 -24.548-24.548v-5.246a29.829 29.829 0 0 1 29.794 29.793z"/><path d="m71.87 65.689a9.573 9.573 0 0 0 -9.558-9.559v-5.246a14.818 14.818 0 0 1 14.8 14.8z"/></g><path d="m52.4 75.6c6.586 6.6 13.94 9.97 16.384 7.526l3.085-3.085a6.021 6.021 0 0 1 8.515 0l6.816 6.812a8.43 8.43 0 0 1 0 11.921l-4.788 4.788c-5.937 5.937-23.726-2.228-39.734-18.237-8-8-14.048-16.454-17.348-23.644s-3.857-13.122-.889-16.09l4.785-4.791a8.43 8.43 0 0 1 11.921 0l6.812 6.812a6.021 6.021 0 0 1 0 8.515l-3.085 3.085c-2.444 2.448.926 9.802 7.526 16.388z" fill="#69b0ee"/></g></svg>