<svg width="512" height="512" xmlns="http://www.w3.org/2000/svg">

 <g>
  <title>background</title>
  <rect fill="none" id="canvas_background" height="402" width="582" y="-1" x="-1"/>
 </g>
 <g>
  <title>Layer 1</title>
  <g id="svg_1">
   <g id="svg_2">
    <path fill="#a6e64d" id="svg_3" d="m489.061,35.88l-221.592,0l0,-12.909c0,-6.334 -5.135,-11.469 -11.469,-11.469c-6.334,0 -11.469,5.135 -11.469,11.469l0,12.909l-221.592,0c-12.649,0 -22.939,10.29 -22.939,22.939l0,21.284c0,12.648 10.29,22.939 22.939,22.939l3.117,0l0,257.795c0,12.648 10.29,22.939 22.939,22.939l195.536,0l0,33.662l-84.993,62.343c-5.107,3.747 -6.212,10.925 -2.465,16.032c3.748,5.108 10.925,6.211 16.032,2.465l71.426,-52.392l0,43.144c0,6.334 5.135,11.469 11.469,11.469c6.335,0 11.469,-5.135 11.469,-11.469l0,-43.144l71.426,52.392c2.044,1.499 4.42,2.222 6.775,2.222c3.529,0 7.01,-1.623 9.257,-4.686c3.747,-5.107 2.643,-12.285 -2.465,-16.032l-84.993,-62.343l0,-33.662l195.536,0c12.648,0 22.939,-10.29 22.939,-22.939l0,-257.797l3.117,0c12.648,0 22.939,-10.29 22.939,-22.939l0,-21.283c0,-12.649 -10.29,-22.939 -22.939,-22.939zm-26.056,324.955l-414.01,0l0,-257.794l414.011,0l0,257.794l-0.001,0zm26.056,-280.733l-466.122,0l0,-21.283l466.123,0l0,21.283l-0.001,0z"/>
   </g>
  </g>
  <g id="svg_4">
   <g id="svg_5">
    <path fill="#a6e64d" id="svg_6" d="m255.782,136.254c-5.701,0 -10.322,4.621 -10.322,10.322l0,79.157l-79.157,0c-5.701,0 -10.322,4.621 -10.322,10.322c0,55.031 44.771,99.801 99.802,99.801s99.803,-44.771 99.803,-99.801s-44.773,-99.801 -99.804,-99.801zm0,178.958c-40.15,0 -73.413,-30.046 -78.487,-68.834l78.487,0c5.701,0 10.322,-4.621 10.322,-10.322l0,-78.487c38.788,5.074 68.835,38.337 68.835,78.487c0.001,43.647 -35.509,79.156 -79.157,79.156z"/>
   </g>
  </g>
  <g id="svg_7">
   <g id="svg_8">
    <path fill="#a6e64d" id="svg_9" d="m220.845,125.575c-41.652,0 -75.539,33.891 -75.539,75.548c0,5.701 4.621,10.322 10.322,10.322l65.217,0c5.701,0 10.322,-4.621 10.322,-10.322l0,-65.226c0.001,-5.701 -4.62,-10.322 -10.322,-10.322zm-10.322,65.226l-43.599,0c4.203,-22.013 21.59,-39.403 43.599,-43.607l0,43.607z"/>
   </g>
  </g>
  <g id="svg_10"/>
  <g id="svg_11"/>
  <g id="svg_12"/>
  <g id="svg_13"/>
  <g id="svg_14"/>
  <g id="svg_15"/>
  <g id="svg_16"/>
  <g id="svg_17"/>
  <g id="svg_18"/>
  <g id="svg_19"/>
  <g id="svg_20"/>
  <g id="svg_21"/>
  <g id="svg_22"/>
  <g id="svg_23"/>
  <g id="svg_24"/>
 </g>
</svg>