<svg height="512" viewBox="0 0 74 74" width="512" xmlns="http://www.w3.org/2000/svg"><g id="color_line" data-name="color line"><path d="m43.7 51.622 5.67 15a3.024 3.024 0 0 1 -1.748 3.893 3.242 3.242 0 0 1 -.7.173 3.008 3.008 0 0 1 -3.189-1.921l-5.3-14.036" fill="#e7aa6c"/><path d="m46.533 71.211a3.488 3.488 0 0 1 -3.272-2.27l-5.3-14.035a.5.5 0 1 1 .936-.354l5.3 14.036a2.505 2.505 0 0 0 2.658 1.6 2.732 2.732 0 0 0 .6-.147 2.528 2.528 0 0 0 1.445-3.241l-5.669-15a.5.5 0 1 1 .936-.354l5.67 15a3.533 3.533 0 0 1 -2.04 4.538 3.737 3.737 0 0 1 -.821.2 3.579 3.579 0 0 1 -.443.027z" fill="#323c6b"/><path d="m20.3 54.73-5.3 14.036a3.008 3.008 0 0 1 -3.2 1.921 3.242 3.242 0 0 1 -.7-.173 3.024 3.024 0 0 1 -1.748-3.893l5.67-15" fill="#e7aa6c"/><path d="m12.187 71.211a3.61 3.61 0 0 1 -.445-.028 3.713 3.713 0 0 1 -.81-.2 3.535 3.535 0 0 1 -2.049-4.539l5.671-15a.5.5 0 0 1 .936.354l-5.67 15a2.53 2.53 0 0 0 1.457 3.249 2.71 2.71 0 0 0 .588.144 2.5 2.5 0 0 0 2.661-1.6l5.3-14.037a.5.5 0 1 1 .936.354l-5.3 14.036a3.49 3.49 0 0 1 -3.275 2.267z" fill="#323c6b"/><path d="m50.351 73.139a.5.5 0 0 1 -.318-.885 5.527 5.527 0 0 0 1.652-6.19l-.186-.489a.5.5 0 0 1 .936-.354l.187.492a6.529 6.529 0 0 1 -1.952 7.313.5.5 0 0 1 -.319.113z" fill="#323c6b"/><path d="m51.153 63.744a.5.5 0 0 1 -.468-.323l-.241-.639a.5.5 0 1 1 .936-.354l.241.639a.5.5 0 0 1 -.468.677z" fill="#323c6b"/><circle cx="29.361" cy="33.32" fill="#fe7058" r="24.27"/><path d="m47.48 49.473a24.259 24.259 0 0 0 -38.545-29.26 24.271 24.271 0 1 1 38.545 29.26z" fill="#ea6453"/><path d="m29.361 49.858a16.538 16.538 0 1 1 16.539-16.538 16.557 16.557 0 0 1 -16.539 16.538z" fill="#eeefee"/><path d="m45.9 33.325a16.53 16.53 0 0 1 -6.021 12.756 16.528 16.528 0 0 0 -23.356-23.171 16.531 16.531 0 0 1 29.377 10.415z" fill="#e1e6e9"/><circle cx="29.361" cy="33.32" fill="#fe7058" r="8.806"/><path d="m35.587 39.545a8.8 8.8 0 0 0 -14.125-10.1 8.8 8.8 0 1 1 14.125 10.1z" fill="#ea6453"/><path d="m29.361 34.32a1 1 0 0 1 -.573-1.82l30.812-21.481a1 1 0 0 1 1.145 1.641l-30.812 21.481a1 1 0 0 1 -.572.179z" fill="#323c6b"/><path d="m61.7 10.737-9.547 6.682.588-6.682 9.547-6.682z" fill="#fe7058"/><path d="m52.153 17.919a.5.5 0 0 1 -.5-.544l.588-6.682a.5.5 0 0 1 .211-.366l9.548-6.681a.5.5 0 0 1 .785.454l-.585 6.681a.5.5 0 0 1 -.211.366l-9.549 6.682a.5.5 0 0 1 -.287.09zm1.065-6.906-.474 5.381 8.478-5.933.478-5.381z" fill="#323c6b"/><path d="m61.7 10.737-9.547 6.682 6.493 1.683 9.547-6.682z" fill="#fe7058"/><g fill="#323c6b"><path d="m58.646 19.6a.493.493 0 0 1 -.125-.016l-6.493-1.684a.5.5 0 0 1 -.162-.894l9.547-6.682a.506.506 0 0 1 .412-.074l6.493 1.683a.5.5 0 0 1 .162.894l-9.547 6.682a.5.5 0 0 1 -.287.091zm-5.318-2.4 5.221 1.353 8.47-5.928-5.219-1.346z"/><path d="m2.224 31.475h-.044a.5.5 0 0 1 -.455-.541 27.607 27.607 0 0 1 2.075-8.378.5.5 0 0 1 .922.389 26.6 26.6 0 0 0 -2 8.073.5.5 0 0 1 -.498.457z"/><path d="m5.286 21.1a.5.5 0 0 1 -.233-.058.5.5 0 0 1 -.209-.676c.09-.169.187-.333.283-.5l.151-.26a.5.5 0 0 1 .869.5l-.158.272c-.09.152-.179.3-.261.458a.5.5 0 0 1 -.442.264z"/><path d="m29.36 58.09a24.77 24.77 0 1 1 24.771-24.77 24.8 24.8 0 0 1 -24.771 24.77zm0-48.54a23.77 23.77 0 1 0 23.771 23.77 23.8 23.8 0 0 0 -23.771-23.769z"/><path d="m29.36 42.626a9.306 9.306 0 1 1 9.307-9.306 9.317 9.317 0 0 1 -9.307 9.306zm0-17.612a8.306 8.306 0 1 0 8.307 8.306 8.315 8.315 0 0 0 -8.307-8.305z"/><path d="m29.36 50.358a17.038 17.038 0 1 1 17.04-17.038 17.057 17.057 0 0 1 -17.04 17.038zm0-33.076a16.038 16.038 0 1 0 16.04 16.038 16.056 16.056 0 0 0 -16.04-16.037z"/></g><path d="m24.5 53.765a.664.664 0 0 1 -.156-.019 21.131 21.131 0 0 1 -9.244-4.976.65.65 0 1 1 .881-.956 19.821 19.821 0 0 0 8.671 4.669.65.65 0 0 1 -.154 1.282z" fill="#fff"/><path d="m13.437 46.692a.65.65 0 0 1 -.507-.243c-.133-.166-.258-.339-.382-.512l-.158-.219a.65.65 0 0 1 1.049-.77l.166.231c.11.154.221.308.339.455a.65.65 0 0 1 -.507 1.057z" fill="#fff"/></g></svg>